<svg id="Layer_3" height="512" viewBox="0 0 64 64" width="512" xmlns="http://www.w3.org/2000/svg" data-name="Layer 3"><path d="m56 13h2v11h-2z" fill="#b5b5b5"/><path d="m50 16v12a30 30 0 0 1 -18 6 30 30 0 0 1 -18-6v-12l18 6z" fill="#474747"/><path d="m50 23a30 30 0 0 1 -18 6 30 30 0 0 1 -18-6v5a30 30 0 0 0 18 6 30 30 0 0 0 18-6z" fill="#f0ae42"/><path d="m14 23v3a30 30 0 0 0 36 0v-3a30 30 0 0 1 -18 6 30 30 0 0 1 -18-6z" fill="#f9d266"/><path d="m38.748 42.4 2.851-2.28a5.113 5.113 0 0 1 3.195-1.12 5.108 5.108 0 0 1 2.285.539l.921.461 1.338-.669a3.143 3.143 0 0 1 1.4-.33 3.137 3.137 0 0 1 2.976 2.145l.286.854-12.751 9a16.392 16.392 0 0 1 -9.45 3 16.408 16.408 0 0 1 -3.555-.39l-1.82-.405a14.8 14.8 0 0 0 -10.3 1.456l-.624.339-4.9-9.8 2.4-1.2 3.2-2.13a11.137 11.137 0 0 1 6.171-1.87 11.123 11.123 0 0 1 4.98 1.176l1.649.824h8a3.983 3.983 0 0 1 1.748.4" fill="#fbe1ca"/><path d="m42.394 39.6-1.871-.467a4.369 4.369 0 0 0 -1.062-.133 4.386 4.386 0 0 0 -2.629.876l-2.832 2.124h3a3.983 3.983 0 0 1 1.748.4l2.851-2.28a5.094 5.094 0 0 1 .8-.523z" fill="#e8ab95"/><path d="m48 40-7 6a4 4 0 0 0 -2.252-3.6l2.851-2.28a5.113 5.113 0 0 1 3.195-1.12 5.108 5.108 0 0 1 2.285.539z" fill="#f2b9a1"/><path d="m31 46h10v2h-10z" fill="#ffd5b6"/><path d="m10 62 7-4-8-16-7 3z" fill="#3b5892"/><path d="m62 12-30 10-30-10 30-10z" fill="#686868"/><path d="m56 24-2 5v2h6v-2l-2-5z" fill="#f0ae42"/><path d="m32 14a2 2 0 1 1 2-2 2 2 0 0 1 -2 2z" fill="#939393"/><path d="m54 29v.274h3a1 1 0 0 0 1-1v-4.274h-2z" fill="#f9d266"/></svg>