<?xml version="1.0" encoding="utf-8"?>
<!-- Generator: Adobe Illustrator 22.0.1, SVG Export Plug-In . SVG Version: 6.00 Build 0)  -->
<svg version="1.1" xmlns="http://www.w3.org/2000/svg" xmlns:xlink="http://www.w3.org/1999/xlink" x="0px" y="0px"
	 viewBox="0 0 85 85" style="enable-background:new 0 0 85 85;" xml:space="preserve">
<style type="text/css">
	.st0{fill:#013E5E;}
	.st1{fill:#1A588E;}
	.st2{fill:#BB9E37;}
	.st3{fill:#CDD8DF;}
	.st4{fill:#FFFFFF;}
	.st5{display:none;}
	.st6{display:inline;}
	.st7{display:inline;fill:#1A588E;}
	.st8{fill:#E6EBEF;}
	.st9{fill:#C7A404;}
	.st10{fill:#FFFFFF;stroke:#1A588E;stroke-miterlimit:10;}
	.st11{fill:none;}
	.st12{fill:#DB3147;}
	.st13{fill:#3DBD37;}
	.st14{fill:#1A588E;stroke:#1A588E;stroke-miterlimit:10;}
</style>
<g id="Capa_1">
</g>
<g id="Capa_2">
</g>
<g id="_x31_" class="st5">
</g>
<g id="_x32_" class="st5">
</g>
<g id="_x33_" class="st5">
</g>
<g id="_x34_" class="st5">
</g>
<g id="_x35_" class="st5">
</g>
<g id="_x36_" class="st5">
</g>
<g id="_x37_" class="st5">
</g>
<g id="_x38_" class="st5">
</g>
<g id="_x39_" class="st5">
</g>
<g id="_x31_0" class="st5">
</g>
<g id="_x31_1" class="st5">
</g>
<g id="Capa_14" class="st5">
</g>
<g id="Capa_19" class="st5">
</g>
<g id="Capa_15" class="st5">
</g>
<g id="Capa_16" class="st5">
</g>
<g id="Capa_17" class="st5">
</g>
<g id="Capa_18" class="st5">
</g>
<g id="AAAAAA">
</g>
<g id="Apagado">
	<g>
		<g>
			<g>
				<circle class="st1" cx="41" cy="29.6" r="15.5"/>
			</g>
		</g>
		<path class="st11" d="M59.2,68.9C59.2,68.9,59.2,68.9,59.2,68.9L59.2,68.9C59.2,68.9,59.2,68.9,59.2,68.9z"/>
		<path class="st11" d="M41.6,51.1L41.6,51.1l2.7-2.7c0.1-0.1,0.2-0.3,0.2-0.5c0,0.2-0.1,0.3-0.2,0.5L41.6,51.1z"/>
		<path class="st2" d="M37.1,47.6c0,0.1,0,0.1,0,0.2c0-0.2,0-0.4,0.1-0.5c0,0,0,0,0,0C37.1,47.4,37.1,47.5,37.1,47.6z"/>
		<path class="st1" d="M37.1,48.4c-0.1-0.1-0.2-0.3-0.2-0.5c0,0,0-0.1,0-0.1c0-0.1,0-0.1,0-0.2c0-0.1,0-0.2,0.1-0.3c0,0,0,0,0,0
			c0,0,0,0,0,0c-0.2,0-0.3-0.1-0.5-0.1c-0.9-0.2-1.8-0.5-2.6-0.9c0,0,0,0,0,0c0,0,0,0,0,0c-2.6,0.9-4.9,2.2-6.9,3.9
			c0,0-0.1,0.1-0.1,0.1c-0.3,0.3-0.6,0.6-0.9,0.9c-0.1,0.1-0.2,0.2-0.3,0.3c-0.3,0.3-0.5,0.6-0.8,0.9c-0.1,0.1-0.2,0.2-0.3,0.3
			c-0.2,0.3-0.5,0.6-0.7,0.9c-0.1,0.1-0.2,0.3-0.3,0.4c0,0,0,0,0,0.1h0c-2.5,3.5-4,7.8-4,12.4h11.1h6h0l3.4-15.3L37.1,48.4z"/>
		<path class="st1" d="M57.8,53.9L57.8,53.9C57.8,53.9,57.8,53.9,57.8,53.9c-0.1-0.2-0.2-0.3-0.3-0.4c-0.2-0.3-0.5-0.6-0.7-0.9
			c-0.1-0.1-0.2-0.2-0.3-0.3c-0.3-0.3-0.5-0.6-0.8-0.9c-0.1-0.1-0.2-0.2-0.3-0.3c-0.3-0.3-0.6-0.6-0.9-0.9c0,0-0.1-0.1-0.1-0.1
			c-2-1.7-4.4-3.1-6.9-3.9c0,0,0,0,0,0c0,0,0,0,0,0c-0.8,0.4-1.7,0.7-2.6,0.9c-0.2,0-0.3,0.1-0.5,0.1c0,0,0,0,0,0c0,0,0,0,0,0
			c0.1,0.1,0.1,0.2,0.1,0.3c0,0.1,0,0.1,0,0.2c0,0,0,0.1,0,0.1c0,0.2-0.1,0.3-0.2,0.5l-2.7,2.7l3.4,15.3h0h6h11.1
			C61.8,61.7,60.3,57.4,57.8,53.9z"/>
		<path class="st2" d="M36.5,66.4h8.3l-3.4-15.3l2.7-2.7c0.1-0.1,0.2-0.3,0.2-0.5c0,0,0-0.1,0-0.1c0-0.2,0-0.3-0.1-0.5
			c-1.2,0.3-2.4,0.4-3.6,0.4c-1.3,0-2.5-0.2-3.6-0.4c-0.1,0.2-0.1,0.3-0.1,0.5c0,0,0,0.1,0,0.1c0,0.2,0.1,0.3,0.2,0.5l2.7,2.7l0,0
			L36.5,66.4z"/>
		<g>
			<g>
				<path class="st2" d="M63.6,61.7c-0.1-0.2-0.1-0.4-0.2-0.6l1.4-1.4l-2.6-2.6l-1.4,1.4c-0.2-0.1-0.4-0.2-0.6-0.2v-2h-3.7v2
					c-0.2,0.1-0.4,0.1-0.6,0.2l-1.4-1.4l-2.6,2.6l1.4,1.4c-0.1,0.2-0.2,0.4-0.2,0.6h-2v3.7h2c0.1,0.2,0.1,0.4,0.2,0.5l-1.4,1.4
					l2.6,2.6l1.5-1.5c0.2,0.1,0.3,0.2,0.5,0.2v2.1h3.7v-2.1c0.2-0.1,0.4-0.1,0.5-0.2l1.5,1.5l2.6-2.6L63.4,66
					c0.1-0.2,0.2-0.4,0.2-0.5h2v-3.7H63.6z M60.5,65.3c-0.5,0.6-1.3,1-2.1,1s-1.6-0.4-2.1-1c-0.6-0.8-0.9-1.9-0.4-3
					c0.3-0.6,0.7-1.1,1.3-1.3c2-0.9,4,0.6,4,2.5C61.1,64.2,60.9,64.8,60.5,65.3z"/>
			</g>
		</g>
	</g>
</g>
<g id="Encendido_1_">
	<g>
		<circle class="st2" cx="41" cy="29.6" r="15.5"/>
	</g>
	<path class="st11" d="M59.2,68.9C59.2,68.9,59.2,68.9,59.2,68.9L59.2,68.9C59.2,68.9,59.2,68.9,59.2,68.9z"/>
	<path class="st11" d="M41.6,51.1L41.6,51.1l2.7-2.7c0.1-0.1,0.2-0.3,0.2-0.5c0,0.2-0.1,0.3-0.2,0.5L41.6,51.1z"/>
	<path class="st2" d="M37.1,47.6c0,0.1,0,0.1,0,0.2c0-0.2,0-0.4,0.1-0.5c0,0,0,0,0,0C37.1,47.4,37.1,47.5,37.1,47.6z"/>
	<path class="st2" d="M37.1,48.4c-0.1-0.1-0.2-0.3-0.2-0.5c0,0,0-0.1,0-0.1c0-0.1,0-0.1,0-0.2c0-0.1,0-0.2,0.1-0.3c0,0,0,0,0,0
		c0,0,0,0,0,0c-0.2,0-0.3-0.1-0.5-0.1c-0.9-0.2-1.8-0.5-2.6-0.9c0,0,0,0,0,0c0,0,0,0,0,0c-2.6,0.9-4.9,2.2-6.9,3.9
		c0,0-0.1,0.1-0.1,0.1c-0.3,0.3-0.6,0.6-0.9,0.9c-0.1,0.1-0.2,0.2-0.3,0.3c-0.3,0.3-0.5,0.6-0.8,0.9c-0.1,0.1-0.2,0.2-0.3,0.3
		c-0.2,0.3-0.5,0.6-0.7,0.9c-0.1,0.1-0.2,0.3-0.3,0.4c0,0,0,0,0,0.1h0c-2.5,3.5-4,7.8-4,12.4h11.1h6h0l3.4-15.3L37.1,48.4z"/>
	<path class="st2" d="M57.8,53.9L57.8,53.9C57.8,53.9,57.8,53.9,57.8,53.9c-0.1-0.2-0.2-0.3-0.3-0.4c-0.2-0.3-0.5-0.6-0.7-0.9
		c-0.1-0.1-0.2-0.2-0.3-0.3c-0.3-0.3-0.5-0.6-0.8-0.9c-0.1-0.1-0.2-0.2-0.3-0.3c-0.3-0.3-0.6-0.6-0.9-0.9c0,0-0.1-0.1-0.1-0.1
		c-2-1.7-4.4-3.1-6.9-3.9c0,0,0,0,0,0c0,0,0,0,0,0c-0.8,0.4-1.7,0.7-2.6,0.9c-0.2,0-0.3,0.1-0.5,0.1c0,0,0,0,0,0c0,0,0,0,0,0
		c0.1,0.1,0.1,0.2,0.1,0.3c0,0.1,0,0.1,0,0.2c0,0,0,0.1,0,0.1c0,0.2-0.1,0.3-0.2,0.5l-2.7,2.7l3.4,15.3h0h6h11.1
		C61.8,61.7,60.3,57.4,57.8,53.9z"/>
	<path class="st1" d="M36.5,66.4h8.3l-3.4-15.3l2.7-2.7c0.1-0.1,0.2-0.3,0.2-0.5c0,0,0-0.1,0-0.1c0-0.2,0-0.3-0.1-0.5
		c-1.2,0.3-2.4,0.4-3.6,0.4c-1.3,0-2.5-0.2-3.6-0.4c-0.1,0.2-0.1,0.3-0.1,0.5c0,0,0,0.1,0,0.1c0,0.2,0.1,0.3,0.2,0.5l2.7,2.7l0,0
		L36.5,66.4z"/>
	<g>
		<path class="st1" d="M63.6,61.7c-0.1-0.2-0.1-0.4-0.2-0.6l1.4-1.4l-2.6-2.6l-1.4,1.4c-0.2-0.1-0.4-0.2-0.6-0.2v-2h-3.7v2
			c-0.2,0.1-0.4,0.1-0.6,0.2l-1.4-1.4l-2.6,2.6l1.4,1.4c-0.1,0.2-0.2,0.4-0.2,0.6h-2v3.7h2c0.1,0.2,0.1,0.4,0.2,0.5l-1.4,1.4
			l2.6,2.6l1.5-1.5c0.2,0.1,0.3,0.2,0.5,0.2v2.1h3.7v-2.1c0.2-0.1,0.4-0.1,0.5-0.2l1.5,1.5l2.6-2.6L63.4,66c0.1-0.2,0.2-0.4,0.2-0.5
			h2v-3.7H63.6z M60.5,65.3c-0.5,0.6-1.3,1-2.1,1s-1.6-0.4-2.1-1c-0.6-0.8-0.9-1.9-0.4-3c0.3-0.6,0.7-1.1,1.3-1.3c2-0.9,4,0.6,4,2.5
			C61.1,64.2,60.9,64.8,60.5,65.3z"/>
	</g>
</g>
</svg>
