<?xml version="1.0" encoding="utf-8"?>
<!-- Generator: Adobe Illustrator 22.0.1, SVG Export Plug-In . SVG Version: 6.00 Build 0)  -->
<svg version="1.1" xmlns="http://www.w3.org/2000/svg" xmlns:xlink="http://www.w3.org/1999/xlink" x="0px" y="0px"
	 viewBox="0 0 85 85" style="enable-background:new 0 0 85 85;" xml:space="preserve">
<style type="text/css">
	.st0{fill:#013E5E;}
	.st1{fill:#1A588E;}
	.st2{fill:#BB9E37;}
	.st3{fill:#CDD8DF;}
	.st4{fill:#FFFFFF;}
	.st5{display:none;}
	.st6{display:inline;}
	.st7{display:inline;fill:#1A588E;}
	.st8{fill:#E6EBEF;}
	.st9{fill:#C7A404;}
	.st10{fill:#FFFFFF;stroke:#1A588E;stroke-miterlimit:10;}
	.st11{fill:none;}
	.st12{fill:#DB3147;}
	.st13{fill:#3DBD37;}
	.st14{fill:#1A588E;stroke:#1A588E;stroke-miterlimit:10;}
</style>
<g id="Capa_1">
</g>
<g id="Capa_2">
</g>
<g id="_x31_" class="st5">
</g>
<g id="_x32_" class="st5">
</g>
<g id="_x33_" class="st5">
</g>
<g id="_x34_" class="st5">
</g>
<g id="_x35_" class="st5">
</g>
<g id="_x36_" class="st5">
</g>
<g id="_x37_" class="st5">
</g>
<g id="_x38_" class="st5">
</g>
<g id="_x39_" class="st5">
</g>
<g id="_x31_0" class="st5">
</g>
<g id="_x31_1" class="st5">
</g>
<g id="Capa_14" class="st5">
</g>
<g id="Capa_19" class="st5">
</g>
<g id="Capa_15" class="st5">
</g>
<g id="Capa_16" class="st5">
</g>
<g id="Capa_17" class="st5">
</g>
<g id="Capa_18" class="st5">
</g>
<g id="AAAAAA">
</g>
<g id="Apagado">
	<path class="st1" d="M56.1,50.6c2.5-3.6,3.9-8,3.9-12.4c0-12.1-9.8-21.9-21.9-21.9s-21.9,9.8-21.9,21.9S26.1,60,38.1,60
		c4.4,0,8.8-1.4,12.5-3.9l12.7,12.7l5.6-5.6L56.1,50.6z M52.3,38.1c0,7.8-6.3,14.1-14.1,14.1S24,45.9,24,38.1S30.3,24,38.1,24
		S52.3,30.3,52.3,38.1z"/>
</g>
<g id="Encendido_1_">
	<path class="st2" d="M56.1,50.6c2.5-3.6,3.9-8,3.9-12.4c0-12.1-9.8-21.9-21.9-21.9s-21.9,9.8-21.9,21.9S26.1,60,38.1,60
		c4.4,0,8.8-1.4,12.5-3.9l12.7,12.7l5.6-5.6L56.1,50.6z M52.3,38.1c0,7.8-6.3,14.1-14.1,14.1S24,45.9,24,38.1S30.3,24,38.1,24
		S52.3,30.3,52.3,38.1z"/>
</g>
</svg>
