<?xml version="1.0" encoding="utf-8"?>
<!-- Generator: Adobe Illustrator 22.0.1, SVG Export Plug-In . SVG Version: 6.00 Build 0)  -->
<svg version="1.1" xmlns="http://www.w3.org/2000/svg" xmlns:xlink="http://www.w3.org/1999/xlink" x="0px" y="0px"
	 viewBox="0 0 85 85" style="enable-background:new 0 0 85 85;" xml:space="preserve">
<style type="text/css">
	.st0{fill:#013E5E;}
	.st1{fill:#1A588E;}
	.st2{fill:#BB9E37;}
	.st3{fill:#CDD8DF;}
	.st4{fill:#FFFFFF;}
	.st5{display:none;}
	.st6{display:inline;}
	.st7{display:inline;fill:#1A588E;}
	.st8{fill:#E6EBEF;}
	.st9{fill:#C7A404;}
	.st10{fill:#FFFFFF;stroke:#1A588E;stroke-miterlimit:10;}
	.st11{fill:none;}
	.st12{fill:#DB3147;}
	.st13{fill:#3DBD37;}
	.st14{fill:#1A588E;stroke:#1A588E;stroke-miterlimit:10;}
</style>
<g id="Capa_1">
</g>
<g id="Capa_2">
</g>
<g id="_x31_" class="st5">
</g>
<g id="_x32_" class="st5">
</g>
<g id="_x33_" class="st5">
</g>
<g id="_x34_" class="st5">
</g>
<g id="_x35_" class="st5">
</g>
<g id="_x36_" class="st5">
</g>
<g id="_x37_" class="st5">
</g>
<g id="_x38_" class="st5">
</g>
<g id="_x39_" class="st5">
</g>
<g id="_x31_0" class="st5">
</g>
<g id="_x31_1" class="st5">
</g>
<g id="Capa_14" class="st5">
</g>
<g id="Capa_19" class="st5">
</g>
<g id="Capa_15" class="st5">
</g>
<g id="Capa_16" class="st5">
</g>
<g id="Capa_17" class="st5">
</g>
<g id="Capa_18" class="st5">
</g>
<g id="AAAAAA">
</g>
<g id="Apagado">
	<g>
		<g>
			<rect x="16.5" y="32.4" class="st10" width="52" height="36.3"/>
		</g>
		<g>
			<g>
				<g>
					<rect x="54.8" y="36.5" class="st10" width="8.1" height="6"/>
				</g>
			</g>
		</g>
		<g>
			<g>
				<g>
					<rect x="54.8" y="44" class="st10" width="8.1" height="6"/>
				</g>
			</g>
		</g>
		<g>
			<g>
				<g>
					<rect x="54.8" y="51.6" class="st10" width="8.1" height="6"/>
				</g>
			</g>
		</g>
		<g>
			<g>
				<g>
					<g>
						<rect x="22.1" y="44" class="st10" width="8.1" height="6"/>
					</g>
				</g>
			</g>
			<g>
				<g>
					<g>
						<rect x="22.1" y="51.6" class="st10" width="8.1" height="6"/>
					</g>
				</g>
			</g>
			<g>
				<g>
					<g>
						<rect x="22.1" y="59.1" class="st10" width="8.1" height="6"/>
					</g>
				</g>
			</g>
		</g>
		<g>
			<g>
				<g>
					<g>
						<rect x="33" y="44" class="st10" width="8.1" height="6"/>
					</g>
				</g>
			</g>
			<g>
				<g>
					<g>
						<rect x="33" y="51.6" class="st10" width="8.1" height="6"/>
					</g>
				</g>
			</g>
			<g>
				<g>
					<g>
						<rect x="33" y="59.1" class="st10" width="8.1" height="6"/>
					</g>
				</g>
			</g>
		</g>
		<g>
			<g>
				<g>
					<rect x="43.9" y="36.5" class="st10" width="8.1" height="6"/>
				</g>
			</g>
		</g>
		<g>
			<g>
				<g>
					<rect x="43.9" y="44" class="st10" width="8.1" height="6"/>
				</g>
			</g>
		</g>
		<g>
			<g>
				<g>
					<rect x="43.9" y="51.6" class="st10" width="8.1" height="6"/>
				</g>
			</g>
		</g>
		<g>
			<g>
				<g>
					<rect x="43.9" y="59.1" class="st10" width="8.1" height="6"/>
				</g>
			</g>
		</g>
		<g>
			<g>
				<g>
					<polygon class="st1" points="58.5,19.6 58.5,25.9 49.7,25.9 49.7,19.6 35.7,19.6 35.7,25.9 26.8,25.9 26.8,19.6 16.5,19.6 
						16.5,30.9 68.5,30.9 68.5,19.6 					"/>
				</g>
			</g>
		</g>
		<g>
			<rect x="51.2" y="16.3" class="st1" width="5.7" height="8.3"/>
		</g>
		<g>
			<rect x="28.4" y="16.3" class="st1" width="5.7" height="8.3"/>
		</g>
	</g>
</g>
<g id="Encendido_1_">
</g>
</svg>
