<?xml version="1.0" encoding="utf-8"?>
<!-- Generator: Adobe Illustrator 22.0.1, SVG Export Plug-In . SVG Version: 6.00 Build 0)  -->
<svg version="1.1" xmlns="http://www.w3.org/2000/svg" xmlns:xlink="http://www.w3.org/1999/xlink" x="0px" y="0px"
	 viewBox="0 0 85 85" style="enable-background:new 0 0 85 85;" xml:space="preserve">
<style type="text/css">
	.st0{fill:#013E5E;}
	.st1{fill:#1A588E;}
	.st2{fill:#BB9E37;}
	.st3{fill:#CDD8DF;}
	.st4{fill:#FFFFFF;}
	.st5{fill:#FFFFFF;stroke:#1A588E;stroke-miterlimit:10;}
	.st6{fill:none;}
	.st7{fill:#DB3147;}
	.st8{fill:#3DBD37;}
	.st9{fill:#1A588E;stroke:#1A588E;stroke-miterlimit:10;}
	.st10{fill:#3DBD37;stroke:#FFFFFF;stroke-width:3;stroke-miterlimit:10;}
	.st11{fill:#C5A303;}
	.st12{fill:#E6EBEF;}
</style>
<g id="Capa_1">
</g>
<g id="Capa_2">
</g>
<g id="AAAAAA">
</g>
<g id="Apagado">
</g>
<g id="Encendido_1_">
</g>
<g id="Grises">
	<g>
		<g>
			<rect x="16.4" y="16.4" class="st3" width="52.2" height="52.2"/>
		</g>
		<g>
			<path class="st4" d="M52.4,25.3h-7.2l-5.7,23.6l-0.1,0.4h5.3l1.2-5.4H52l1.3,5.4h5.4L52.4,25.3z M51.2,40.5h-4.6l2.2-10.3
				L51.2,40.5z"/>
		</g>
		<g>
			<polygon class="st4" points="64.1,28 61.4,28 61.4,25.3 58.7,25.3 58.7,28 56,28 56,30.7 58.7,30.7 58.7,33.4 61.4,33.4 
				61.4,30.7 64.1,30.7 			"/>
		</g>
		<g>
			<g>
				<rect x="20.9" y="54.6" class="st4" width="43.2" height="5.6"/>
			</g>
			<g>
				<rect x="20.9" y="43.4" class="st4" width="15.5" height="5.6"/>
			</g>
			<g>
				<rect x="20.9" y="32.2" class="st4" width="15.5" height="5.6"/>
			</g>
		</g>
	</g>
	<rect x="16.4" y="16.4" class="st12" width="52.2" height="52.2"/>
	<path class="st3" d="M52.4,25.3h-7.2l-5.7,23.6l-0.1,0.4h5.3l1.2-5.4H52l1.3,5.4h5.4L52.4,25.3z M51.2,40.5h-4.6l2.2-10.3
		L51.2,40.5z"/>
	<polygon class="st3" points="64.1,28 61.4,28 61.4,25.3 58.7,25.3 58.7,28 56,28 56,30.7 58.7,30.7 58.7,33.4 61.4,33.4 61.4,30.7 
		64.1,30.7 	"/>
	<g>
		<rect x="20.9" y="54.6" class="st3" width="43.2" height="5.6"/>
	</g>
	<g>
		<rect x="20.9" y="43.4" class="st3" width="15.5" height="5.6"/>
	</g>
	<g>
		<rect x="20.9" y="32.2" class="st3" width="15.5" height="5.6"/>
	</g>
</g>
</svg>
