<?xml version="1.0" encoding="utf-8"?>
<!-- Generator: Adobe Illustrator 22.0.1, SVG Export Plug-In . SVG Version: 6.00 Build 0)  -->
<svg version="1.1" xmlns="http://www.w3.org/2000/svg" xmlns:xlink="http://www.w3.org/1999/xlink" x="0px" y="0px"
	 viewBox="0 0 85 85" style="enable-background:new 0 0 85 85;" xml:space="preserve">
<style type="text/css">
	.st0{fill:#013E5E;}
	.st1{fill:#1A588E;}
	.st2{fill:#BB9E37;}
	.st3{fill:#CDD8DF;}
	.st4{fill:#FFFFFF;}
	.st5{fill:#FFFFFF;stroke:#1A588E;stroke-miterlimit:10;}
	.st6{fill:none;}
	.st7{fill:#DB3147;}
	.st8{fill:#3DBD37;}
	.st9{fill:#1A588E;stroke:#1A588E;stroke-miterlimit:10;}
	.st10{fill:#3DBD37;stroke:#FFFFFF;stroke-width:3;stroke-miterlimit:10;}
	.st11{fill:#C5A303;}
	.st12{fill:#E6EBEF;}
</style>
<g id="Capa_1">
</g>
<g id="Capa_2">
</g>
<g id="AAAAAA">
</g>
<g id="Apagado">
</g>
<g id="Encendido_1_">
</g>
<g id="Grises">
	<g>
		<path class="st5" d="M63.7,38.7c-3,5.1-10.5,12.7-22.4,12.2v-7.4L24.9,54.9L20.5,58l20.8,14.5v-7.4c1.9-0.2,5.5-0.8,9.2-2.5
			c4.2-1.7,7.7-4.6,10.1-8.3c2.2-3.4,3.5-7.4,3.5-11.7C64.1,41.2,63.9,39.9,63.7,38.7z"/>
		<path class="st5" d="M43.8,12.6V20c-1.9,0.2-5.5,0.8-9.2,2.5c-4.2,1.7-7.7,4.6-10.1,8.3c-2.2,3.4-3.5,7.4-3.5,11.7
			c0,1.3,0.1,2.6,0.4,3.9c3-5.1,10.5-12.7,22.4-12.2v7.4l16.4-11.4l4.4-3.1L43.8,12.6z"/>
	</g>
</g>
</svg>
