<?xml version="1.0" encoding="utf-8"?>
<!-- Generator: Adobe Illustrator 22.0.1, SVG Export Plug-In . SVG Version: 6.00 Build 0)  -->
<svg version="1.1" xmlns="http://www.w3.org/2000/svg" xmlns:xlink="http://www.w3.org/1999/xlink" x="0px" y="0px"
	 viewBox="0 0 85 85" style="enable-background:new 0 0 85 85;" xml:space="preserve">
<style type="text/css">
	.st0{fill:#013E5E;}
	.st1{fill:#1A588E;}
	.st2{fill:#BB9E37;}
	.st3{fill:#CDD8DF;}
	.st4{fill:#FFFFFF;}
	.st5{display:none;}
	.st6{display:inline;}
	.st7{display:inline;fill:#1A588E;}
	.st8{fill:#E6EBEF;}
	.st9{fill:#C7A404;}
	.st10{fill:#FFFFFF;stroke:#1A588E;stroke-miterlimit:10;}
	.st11{fill:none;}
	.st12{fill:#DB3147;}
	.st13{fill:#3DBD37;}
	.st14{fill:#1A588E;stroke:#1A588E;stroke-miterlimit:10;}
</style>
<g id="Capa_1">
</g>
<g id="Capa_2">
</g>
<g id="_x31_" class="st5">
</g>
<g id="_x32_" class="st5">
</g>
<g id="_x33_" class="st5">
</g>
<g id="_x34_" class="st5">
</g>
<g id="_x35_" class="st5">
</g>
<g id="_x36_" class="st5">
</g>
<g id="_x37_" class="st5">
</g>
<g id="_x38_" class="st5">
</g>
<g id="_x39_" class="st5">
</g>
<g id="_x31_0" class="st5">
</g>
<g id="_x31_1" class="st5">
</g>
<g id="Capa_14" class="st5">
</g>
<g id="Capa_19" class="st5">
</g>
<g id="Capa_15" class="st5">
</g>
<g id="Capa_16" class="st5">
</g>
<g id="Capa_17" class="st5">
</g>
<g id="Capa_18" class="st5">
</g>
<g id="AAAAAA">
</g>
<g id="Apagado">
	<polygon class="st10" points="57.2,46.1 57.2,61.3 42,61.3 38.8,61.3 34,61.3 30.8,61.3 19.6,61.3 19.6,50.1 19.6,46.9 19.6,43.7 
		19.6,38.6 19.6,37.4 19.6,37.4 19.6,35.4 19.6,32.2 19.6,23.7 43.6,23.7 43.6,23.7 57.2,23.7 64.6,16.3 26.4,16.3 26.4,16.3 
		12.2,16.3 12.2,39.6 12.2,42.7 12.2,68.7 12.2,68.7 12.2,68.7 64.6,68.7 64.6,68.7 64.6,68.7 64.6,38.7 	"/>
	<polygon class="st10" points="62.5,21.7 55.7,28.5 37,47.2 24,34.2 22.5,35.7 22.2,36 17,41.2 37.1,61.3 39.3,59.2 55.7,42.8 
		62.3,36.2 69.7,28.8 	"/>
</g>
<g id="Encendido_1_">
</g>
</svg>
