<?xml version="1.0" encoding="utf-8"?>
<!-- Generator: Adobe Illustrator 22.0.1, SVG Export Plug-In . SVG Version: 6.00 Build 0)  -->
<svg version="1.1" xmlns="http://www.w3.org/2000/svg" xmlns:xlink="http://www.w3.org/1999/xlink" x="0px" y="0px"
	 viewBox="0 0 85 85" style="enable-background:new 0 0 85 85;" xml:space="preserve">
<style type="text/css">
	.st0{fill:#013E5E;}
	.st1{fill:#1A588E;}
	.st2{fill:#BB9E37;}
	.st3{fill:#CDD8DF;}
	.st4{fill:#FFFFFF;}
	.st5{fill:#FFFFFF;stroke:#1A588E;stroke-miterlimit:10;}
	.st6{fill:none;}
	.st7{fill:#DB3147;}
	.st8{fill:#3DBD37;}
	.st9{fill:#1A588E;stroke:#1A588E;stroke-miterlimit:10;}
	.st10{fill:#3DBD37;stroke:#FFFFFF;stroke-width:3;stroke-miterlimit:10;}
	.st11{fill:#C5A303;}
	.st12{fill:#E6EBEF;}
</style>
<g id="Capa_1">
</g>
<g id="Capa_2">
</g>
<g id="AAAAAA">
</g>
<g id="Apagado">
</g>
<g id="Encendido_1_">
</g>
<g id="Grises">
	<g>
		<polygon class="st1" points="19.6,23.7 43.6,23.7 43.6,23.7 57.2,23.7 64.6,16.3 26.4,16.3 26.4,16.3 12.2,16.3 12.2,39.6 
			19.6,32.2 		"/>
		<polygon class="st1" points="57.2,61.3 42,61.3 36.4,67 30.8,61.3 19.6,61.3 19.6,50.1 12.2,42.7 12.2,68.7 12.2,68.7 12.2,68.7 
			64.6,68.7 64.6,68.7 64.6,68.7 64.6,38.7 57.2,46.1 		"/>
		<polygon class="st12" points="17,41.1 19.6,43.7 19.6,38.6 		"/>
		<polygon class="st1" points="36.4,63.8 34,61.3 30.8,61.3 36.4,67 42,61.3 38.8,61.3 		"/>
		<polygon class="st1" points="19.6,46.9 13.8,41.1 19.6,35.4 19.6,32.2 12.2,39.6 12.2,42.7 19.6,50.1 		"/>
		<polygon class="st4" points="17,41.1 19.6,38.6 19.6,37.4 19.6,37.4 19.6,35.4 13.8,41.1 19.6,46.9 19.6,43.7 		"/>
		<polygon class="st4" points="38.8,61.3 34,61.3 36.4,63.8 		"/>
		<polygon class="st12" points="64.8,19.3 57.2,26.9 36.2,47.9 21.7,33.3 20,34.9 19.6,35.4 13.8,41.1 36.4,63.8 38.8,61.3 
			57.2,42.9 64.6,35.5 72.9,27.3 		"/>
	</g>
	<polygon class="st12" points="19.6,23.7 43.6,23.7 43.6,23.7 57.2,23.7 64.6,16.3 26.4,16.3 26.4,16.3 12.2,16.3 12.2,39.6 
		19.6,32.2 	"/>
	<polygon class="st12" points="57.2,61.3 42,61.3 36.4,67 30.8,61.3 19.6,61.3 19.6,50.1 12.2,42.7 12.2,68.7 12.2,68.7 12.2,68.7 
		64.6,68.7 64.6,68.7 64.6,68.7 64.6,38.7 57.2,46.1 	"/>
	<polygon class="st12" points="17,41.1 19.6,43.7 19.6,38.6 	"/>
	<polygon class="st12" points="36.4,63.8 34,61.3 30.8,61.3 36.4,67 42,61.3 38.8,61.3 	"/>
	<polygon class="st12" points="19.6,46.9 13.8,41.1 19.6,35.4 19.6,32.2 12.2,39.6 12.2,42.7 19.6,50.1 	"/>
	<polygon class="st12" points="17,41.1 19.6,38.6 19.6,37.4 19.6,37.4 19.6,35.4 13.8,41.1 19.6,46.9 19.6,43.7 	"/>
	<polygon class="st12" points="38.8,61.3 34,61.3 36.4,63.8 	"/>
	<polygon class="st3" points="64.8,19.3 57.2,26.9 36.2,47.9 21.7,33.3 20,34.9 19.6,35.4 13.8,41.1 36.4,63.8 38.8,61.3 57.2,42.9 
		64.6,35.5 72.9,27.3 	"/>
</g>
</svg>
