<?xml version="1.0" encoding="utf-8"?>
<!-- Generator: Adobe Illustrator 22.0.1, SVG Export Plug-In . SVG Version: 6.00 Build 0)  -->
<svg version="1.1" xmlns="http://www.w3.org/2000/svg" xmlns:xlink="http://www.w3.org/1999/xlink" x="0px" y="0px"
	 viewBox="0 0 85 85" style="enable-background:new 0 0 85 85;" xml:space="preserve">
<style type="text/css">
	.st0{fill:#013E5E;}
	.st1{fill:#1A588E;}
	.st2{fill:#BB9E37;}
	.st3{fill:#CDD8DF;}
	.st4{fill:#FFFFFF;}
	.st5{display:none;}
	.st6{display:inline;}
	.st7{display:inline;fill:#1A588E;}
	.st8{fill:#E6EBEF;}
	.st9{fill:#C7A404;}
	.st10{fill:#FFFFFF;stroke:#1A588E;stroke-miterlimit:10;}
	.st11{fill:none;}
	.st12{fill:#DB3147;}
	.st13{fill:#3DBD37;}
	.st14{fill:#1A588E;stroke:#1A588E;stroke-miterlimit:10;}
</style>
<g id="Capa_1">
</g>
<g id="Capa_2">
</g>
<g id="_x31_" class="st5">
	<g class="st6">
		<g>
			<g>
				<path class="st1" d="M136.6,125.6h-13.5c-0.5-1.5-1.1-2.9-1.7-4.3l9.5-9.5c0.7-0.7,0.7-2,0-2.7l-17.5-17.5c-0.7-0.7-2-0.7-2.7,0
					l-9.4,9.4c-1.4-0.7-2.9-1.3-4.3-1.8V85.8c0-1.1-0.9-1.9-1.9-1.9H70.1c-1.1,0-1.9,0.9-1.9,1.9v13.4c-1.5,0.5-2.9,1.1-4.3,1.8
					l-9.4-9.4c-0.7-0.7-2-0.7-2.7,0l-17.5,17.5c-0.7,0.7-0.7,2,0,2.7l9.5,9.5c-0.7,1.4-1.2,2.8-1.7,4.3H28.5c-1.1,0-1.9,0.9-1.9,1.9
					v24.8c0,1.1,0.9,1.9,1.9,1.9h13.7c0.5,1.4,1.1,2.8,1.7,4.1l-9.7,9.7c-0.7,0.7-0.7,2,0,2.7l17.5,17.5c0.7,0.7,2,0.7,2.7,0
					l9.7-9.7c1.3,0.6,2.7,1.2,4,1.7V194c0,1.1,0.9,1.9,1.9,1.9H95c1.1,0,1.9-0.9,1.9-1.9v-13.8c1.4-0.5,2.7-1,4-1.7l9.7,9.7
					c0.7,0.7,2,0.7,2.7,0l17.5-17.5c0.7-0.7,0.7-2,0-2.7l-9.7-9.7c0.6-1.3,1.2-2.7,1.7-4.1h13.7c1.1,0,1.9-0.9,1.9-1.9v-24.8
					C138.5,126.4,137.7,125.6,136.6,125.6z M98.9,153.5c-3.9,4.6-9.8,7.6-16.3,7.6s-12.4-2.9-16.3-7.6c-3.2-3.7-5.1-8.6-5.1-13.8
					c0-11.8,9.6-21.4,21.4-21.4s21.4,9.6,21.4,21.4C103.9,144.9,102,149.8,98.9,153.5z"/>
			</g>
		</g>
	</g>
</g>
<g id="_x32_" class="st5">
</g>
<g id="_x33_" class="st5">
	<g class="st6">
		<g>
			<g>
				<polygon class="st2" points="101.2,131.4 101.2,84 63.9,84 63.9,131.4 45,131.4 82.5,168.9 120.1,131.4 				"/>
			</g>
		</g>
	</g>
</g>
<g id="_x34_" class="st5">
	<g class="st6">
		<path class="st1" d="M138.5,140.2v-0.3L101.2,84H82.5H63.9l-37.3,55.9v55.9h37.3v-37.3c0-10.3,8.3-18.6,18.6-18.6
			s18.6,8.3,18.6,18.6v37.3h37.3v-42V140.2L138.5,140.2z"/>
	</g>
</g>
<g id="_x35_" class="st5">
	<polygon class="st7" points="138.5,130.6 91.9,130.6 91.9,84 73.2,84 73.2,130.6 26.6,130.6 26.6,149.2 73.2,149.2 73.2,195.8 
		91.9,195.8 91.9,149.2 138.5,149.2 	"/>
</g>
<g id="_x36_" class="st5">
</g>
<g id="_x37_" class="st5">
	<g class="st6">
		<g>
			<g>
				<g>
					<path class="st2" d="M76.4,152.1h12.3c16.4,0,30.4,9.8,36.6,23.9c8.3-9.7,13.2-22.3,13.2-36.1c0-30.9-25-55.9-55.9-55.9
						s-55.9,25-55.9,55.9c0,13.8,5,26.4,13.2,36.1C46,161.9,60.1,152.1,76.4,152.1z"/>
				</g>
			</g>
		</g>
	</g>
</g>
<g id="_x38_" class="st5">
</g>
<g id="_x39_" class="st5">
	<g class="st6">
		<path class="st1" d="M138.5,189.2L109.3,160c6.6-8,10.5-18.3,10.5-29.5C119.8,104.8,99,84,73.2,84s-46.6,20.9-46.6,46.6
			s20.9,46.6,46.6,46.6c11.2,0,21.5-4,29.5-10.5l29.2,29.2L138.5,189.2z M35.7,130.6c0-20.7,16.8-37.5,37.5-37.5
			c20.7,0,37.5,16.8,37.5,37.5c0,20.7-16.8,37.5-37.5,37.5C52.5,168.1,35.7,151.3,35.7,130.6z"/>
	</g>
</g>
<g id="_x31_0" class="st5">
	<g class="st6">
		<g>
			<polygon class="st2" points="26.6,121.2 73.2,149.2 101.2,195.8 138.5,84 			"/>
		</g>
	</g>
	<g class="st6">
		<g>
			<polyline class="st1" points="73.2,149.2 101.2,195.8 138.5,84 			"/>
		</g>
	</g>
</g>
<g id="_x31_1" class="st5">
</g>
<g id="Capa_14" class="st5">
</g>
<g id="Capa_19" class="st5">
</g>
<g id="Capa_15" class="st5">
</g>
<g id="Capa_16" class="st5">
</g>
<g id="Capa_17" class="st5">
</g>
<g id="Capa_18" class="st5">
	<g class="st6">
	</g>
</g>
<g id="AAAAAA">
</g>
<g id="Apagado">
	<g>
		<g>
			<rect x="16.5" y="32.4" class="st10" width="52" height="36.3"/>
		</g>
		<g>
			<g>
				<g>
					<polygon class="st1" points="58.5,19.6 58.5,25.9 49.7,25.9 49.7,19.6 35.7,19.6 35.7,25.9 26.8,25.9 26.8,19.6 16.5,19.6 
						16.5,30.9 68.5,30.9 68.5,19.6 					"/>
				</g>
			</g>
		</g>
		<g>
			<rect x="51.2" y="16.3" class="st1" width="5.7" height="8.3"/>
		</g>
		<g>
			<rect x="28.4" y="16.3" class="st1" width="5.7" height="8.3"/>
		</g>
		<g>
			<polygon class="st1" points="52.6,39.3 39.2,52.6 32.4,45.8 28.1,50.2 39.3,61.4 57,43.7 			"/>
		</g>
	</g>
</g>
<g id="Encendido_1_">
</g>
</svg>
