<?xml version="1.0" encoding="utf-8"?>
<!-- Generator: Adobe Illustrator 22.0.1, SVG Export Plug-In . SVG Version: 6.00 Build 0)  -->
<svg version="1.1" xmlns="http://www.w3.org/2000/svg" xmlns:xlink="http://www.w3.org/1999/xlink" x="0px" y="0px"
	 viewBox="0 0 85 85" style="enable-background:new 0 0 85 85;" xml:space="preserve">
<style type="text/css">
	.st0{fill:#013E5E;}
	.st1{fill:#1A588E;}
	.st2{fill:#BB9E37;}
	.st3{fill:#CDD8DF;}
	.st4{fill:#FFFFFF;}
	.st5{fill:#FFFFFF;stroke:#1A588E;stroke-miterlimit:10;}
	.st6{fill:none;}
	.st7{fill:#DB3147;}
	.st8{fill:#3DBD37;}
	.st9{fill:#1A588E;stroke:#1A588E;stroke-miterlimit:10;}
	.st10{fill:#3DBD37;stroke:#FFFFFF;stroke-width:3;stroke-miterlimit:10;}
	.st11{fill:#C5A303;}
	.st12{fill:#E6EBEF;}
</style>
<g id="Capa_1">
</g>
<g id="Capa_2">
</g>
<g id="AAAAAA">
</g>
<g id="Apagado">
</g>
<g id="Encendido_1_">
</g>
<g id="Grises">
	<g>
		<g>
			<path class="st3" d="M29.3,50.2c-0.3-0.1-0.6-0.3-1-0.4c-1.2,0.5-2.5,0.8-3.8,0.8c-1.4,0-2.6-0.3-3.8-0.8
				c-4.7,1.6-8.2,6.1-8.2,11.3h10.8C24.1,56.9,26.2,53,29.3,50.2z"/>
		</g>
		<g>
			<path class="st3" d="M28.1,32.6c-1.1-0.5-2.3-0.8-3.6-0.8c-4.8,0-8.6,3.9-8.6,8.6c0,4.8,3.9,8.6,8.6,8.6c3.6,0,6.6-2.1,7.9-5.2
				c-2.7-2.6-4.4-6.3-4.4-10.4C28,33.2,28,32.9,28.1,32.6z"/>
		</g>
		<g>
			<path class="st3" d="M61.7,61.1h10.8c0-5.3-3.4-9.7-8.2-11.3c-1.2,0.5-2.5,0.8-3.8,0.8s-2.6-0.3-3.8-0.8c-0.3,0.1-0.7,0.3-1,0.4
				C58.8,53,61,56.9,61.7,61.1z"/>
		</g>
		<g>
			<path class="st3" d="M52.6,43.9c1.3,3.1,4.4,5.2,7.9,5.2c4.8,0,8.6-3.9,8.6-8.6c0-4.8-3.9-8.6-8.6-8.6c-1.3,0-2.5,0.3-3.6,0.8
				c0,0.3,0,0.6,0,0.9C57,37.6,55.3,41.3,52.6,43.9z"/>
		</g>
		<g>
			<g>
				<path class="st3" d="M48.3,47.5c-1.8,0.8-3.7,1.2-5.7,1.2s-4-0.4-5.7-1.2c-7.1,2.4-12.3,9.1-12.3,17.1h36
					C60.5,56.6,55.4,49.9,48.3,47.5z"/>
			</g>
		</g>
		<g>
			<g>
				<g>
					<g>
						<g>
							<circle class="st3" cx="42.5" cy="33.5" r="13"/>
						</g>
					</g>
				</g>
			</g>
		</g>
	</g>
	<path class="st12" d="M29.3,50.2c-0.3-0.1-0.6-0.3-1-0.4c-1.2,0.5-2.5,0.8-3.8,0.8c-1.4,0-2.6-0.3-3.8-0.8
		c-4.7,1.6-8.2,6.1-8.2,11.3h10.8C24.1,56.9,26.2,53,29.3,50.2z"/>
	<path class="st12" d="M28.1,32.6c-1.1-0.5-2.3-0.8-3.6-0.8c-4.8,0-8.6,3.9-8.6,8.6c0,4.8,3.9,8.6,8.6,8.6c3.6,0,6.6-2.1,7.9-5.2
		c-2.7-2.6-4.4-6.3-4.4-10.4C28,33.2,28,32.9,28.1,32.6z"/>
	<path class="st12" d="M61.7,61.1h10.8c0-5.3-3.4-9.7-8.2-11.3c-1.2,0.5-2.5,0.8-3.8,0.8s-2.6-0.3-3.8-0.8c-0.3,0.1-0.7,0.3-1,0.4
		C58.8,53,61,56.9,61.7,61.1z"/>
	<path class="st12" d="M52.6,43.9c1.3,3.1,4.4,5.2,7.9,5.2c4.8,0,8.6-3.9,8.6-8.6c0-4.8-3.9-8.6-8.6-8.6c-1.3,0-2.5,0.3-3.6,0.8
		c0,0.3,0,0.6,0,0.9C57,37.6,55.3,41.3,52.6,43.9z"/>
	<g>
		<path class="st12" d="M48.3,47.5c-1.8,0.8-3.7,1.2-5.7,1.2s-4-0.4-5.7-1.2c-7.1,2.4-12.3,9.1-12.3,17.1h36
			C60.5,56.6,55.4,49.9,48.3,47.5z"/>
	</g>
	<g>
		<g>
			<g>
				<g>
					<circle class="st12" cx="42.5" cy="33.5" r="13"/>
				</g>
			</g>
		</g>
	</g>
</g>
</svg>
