<?xml version="1.0" encoding="utf-8"?>
<!-- Generator: Adobe Illustrator 22.0.1, SVG Export Plug-In . SVG Version: 6.00 Build 0)  -->
<svg version="1.1" xmlns="http://www.w3.org/2000/svg" xmlns:xlink="http://www.w3.org/1999/xlink" x="0px" y="0px"
	 viewBox="0 0 85 85" style="enable-background:new 0 0 85 85;" xml:space="preserve">
<style type="text/css">
	.st0{fill:#013E5E;}
	.st1{fill:#1A588E;}
	.st2{fill:#BB9E37;}
	.st3{fill:#CDD8DF;}
	.st4{fill:#FFFFFF;}
	.st5{display:none;}
	.st6{display:inline;}
	.st7{display:inline;fill:#1A588E;}
	.st8{fill:#E6EBEF;}
	.st9{fill:#C7A404;}
	.st10{fill:#FFFFFF;stroke:#1A588E;stroke-miterlimit:10;}
	.st11{fill:none;}
	.st12{fill:#DB3147;}
	.st13{fill:#3DBD37;}
	.st14{fill:#1A588E;stroke:#1A588E;stroke-miterlimit:10;}
</style>
<g id="Capa_1">
</g>
<g id="Capa_2">
</g>
<g id="_x31_" class="st5">
</g>
<g id="_x32_" class="st5">
</g>
<g id="_x33_" class="st5">
</g>
<g id="_x34_" class="st5">
</g>
<g id="_x35_" class="st5">
</g>
<g id="_x36_" class="st5">
</g>
<g id="_x37_" class="st5">
</g>
<g id="_x38_" class="st5">
</g>
<g id="_x39_" class="st5">
</g>
<g id="_x31_0" class="st5">
</g>
<g id="_x31_1" class="st5">
</g>
<g id="Capa_14" class="st5">
</g>
<g id="Capa_19" class="st5">
</g>
<g id="Capa_15" class="st5">
</g>
<g id="Capa_16" class="st5">
</g>
<g id="Capa_17" class="st5">
</g>
<g id="Capa_18" class="st5">
</g>
<g id="AAAAAA">
</g>
<g id="Apagado">
	<g>
		<rect x="14.2" y="19.9" class="st1" width="56.6" height="45.2"/>
		<rect x="19.4" y="52" class="st4" width="26.3" height="4"/>
		<rect x="19.4" y="44.8" class="st4" width="26.3" height="4"/>
		<g>
			<path class="st2" d="M61.9,44.9c-0.4,0.1-0.9,0.2-1.4,0.2c-0.1,0-0.2,0-0.3,0c-1.8,0-3.4-0.7-4.6-1.8v17l4.6-4.6l4.6,4.6v-17
				C64,44,63,44.6,61.9,44.9z"/>
		</g>
		<g>
			<path class="st2" d="M62.6,33.9c-0.7-0.4-1.5-0.6-2.3-0.6c-2.4,0-4.4,1.7-5,3.9c-0.1,0.4-0.2,0.8-0.2,1.2c0,2.8,2.3,5.1,5.1,5.1
				c0.1,0,0.1,0,0.2,0c0.4,0,0.7-0.1,1.1-0.2c2.2-0.6,3.9-2.6,3.9-5C65.4,36.5,64.2,34.8,62.6,33.9z"/>
		</g>
	</g>
</g>
<g id="Encendido_1_">
</g>
</svg>
