<?xml version="1.0" encoding="utf-8"?>
<!-- Generator: Adobe Illustrator 22.0.1, SVG Export Plug-In . SVG Version: 6.00 Build 0)  -->
<svg version="1.1" xmlns="http://www.w3.org/2000/svg" xmlns:xlink="http://www.w3.org/1999/xlink" x="0px" y="0px"
	 viewBox="0 0 85 85" style="enable-background:new 0 0 85 85;" xml:space="preserve">
<style type="text/css">
	.st0{fill:#013E5E;}
	.st1{fill:#1A588E;}
	.st2{fill:#BB9E37;}
	.st3{fill:#CDD8DF;}
	.st4{fill:#FFFFFF;}
	.st5{fill:#FFFFFF;stroke:#1A588E;stroke-miterlimit:10;}
	.st6{fill:none;}
	.st7{fill:#DB3147;}
	.st8{fill:#3DBD37;}
	.st9{fill:#1A588E;stroke:#1A588E;stroke-miterlimit:10;}
	.st10{fill:#E6EBEF;}
	.st11{fill:#3DBD37;stroke:#FFFFFF;stroke-width:3;stroke-miterlimit:10;}
	.st12{fill:#C5A303;}
</style>
<g id="Capa_1">
</g>
<g id="Capa_2">
</g>
<g id="AAAAAA">
</g>
<g id="Apagado">
</g>
<g id="Encendido_1_">
</g>
<g id="Grises">
	<polygon class="st5" points="58.2,30 58.2,18.3 26.8,18.3 26.8,30 11.2,30 11.2,66.8 26.8,66.8 58.2,66.8 73.9,66.8 73.9,30 	"/>
	<g>
		<g>
			<g>
				<rect x="32.1" y="25.3" class="st5" width="6.4" height="4.7"/>
			</g>
		</g>
	</g>
	<g>
		<g>
			<g>
				<rect x="32.1" y="35.4" class="st5" width="6.4" height="4.7"/>
			</g>
		</g>
	</g>
	<g>
		<g>
			<g>
				<rect x="32.1" y="45.5" class="st5" width="6.4" height="4.7"/>
			</g>
		</g>
	</g>
	<g>
		<g>
			<g>
				<rect x="32.1" y="55.5" class="st5" width="6.4" height="4.7"/>
			</g>
		</g>
	</g>
	<g>
		<g>
			<g>
				<rect x="46.6" y="25.3" class="st5" width="6.4" height="4.7"/>
			</g>
		</g>
	</g>
	<g>
		<g>
			<g>
				<rect x="46.6" y="35.4" class="st5" width="6.4" height="4.7"/>
			</g>
		</g>
	</g>
	<g>
		<g>
			<g>
				<rect x="46.6" y="45.5" class="st5" width="6.4" height="4.7"/>
			</g>
		</g>
	</g>
	<g>
		<g>
			<g>
				<rect x="46.6" y="55.5" class="st5" width="6.4" height="4.7"/>
			</g>
		</g>
	</g>
	<g>
		<g>
			<g>
				<rect x="63.4" y="35.4" class="st5" width="6.4" height="4.7"/>
			</g>
		</g>
	</g>
	<g>
		<g>
			<g>
				<rect x="63.4" y="45.5" class="st5" width="6.4" height="4.7"/>
			</g>
		</g>
	</g>
	<g>
		<g>
			<g>
				<rect x="63.4" y="55.5" class="st5" width="6.4" height="4.7"/>
			</g>
		</g>
	</g>
	<g>
		<g>
			<g>
				<rect x="15.3" y="35.4" class="st5" width="6.4" height="4.7"/>
			</g>
		</g>
	</g>
	<g>
		<g>
			<g>
				<rect x="15.3" y="45.5" class="st5" width="6.4" height="4.7"/>
			</g>
		</g>
	</g>
	<g>
		<g>
			<g>
				<rect x="15.3" y="55.5" class="st5" width="6.4" height="4.7"/>
			</g>
		</g>
	</g>
</g>
</svg>
