<?xml version="1.0" encoding="utf-8"?>
<!-- Generator: Adobe Illustrator 22.0.1, SVG Export Plug-In . SVG Version: 6.00 Build 0)  -->
<svg version="1.1" xmlns="http://www.w3.org/2000/svg" xmlns:xlink="http://www.w3.org/1999/xlink" x="0px" y="0px"
	 viewBox="0 0 85 85" style="enable-background:new 0 0 85 85;" xml:space="preserve">
<style type="text/css">
	.st0{fill:#013E5E;}
	.st1{fill:#1A588E;}
	.st2{fill:#BB9E37;}
	.st3{fill:#CDD8DF;}
	.st4{fill:#FFFFFF;}
	.st5{display:none;}
	.st6{display:inline;}
	.st7{display:inline;fill:#1A588E;}
	.st8{fill:#E6EBEF;}
	.st9{fill:#C7A404;}
	.st10{fill:#FFFFFF;stroke:#1A588E;stroke-miterlimit:10;}
	.st11{fill:none;}
	.st12{fill:#DB3147;}
	.st13{fill:#3DBD37;}
	.st14{fill:#1A588E;stroke:#1A588E;stroke-miterlimit:10;}
</style>
<g id="Capa_1">
</g>
<g id="Capa_2">
</g>
<g id="_x31_" class="st5">
	<g class="st6">
		<g>
			<g>
				<path class="st1" d="M136.6-32.5h-13.5c-0.5-1.5-1.1-2.9-1.7-4.3l9.5-9.5c0.7-0.7,0.7-2,0-2.7l-17.5-17.5c-0.7-0.7-2-0.7-2.7,0
					l-9.4,9.4c-1.4-0.7-2.9-1.3-4.3-1.8v-13.4c0-1.1-0.9-1.9-1.9-1.9H70.1c-1.1,0-1.9,0.9-1.9,1.9v13.4c-1.5,0.5-2.9,1.1-4.3,1.8
					l-9.4-9.4c-0.7-0.7-2-0.7-2.7,0L34.2-49c-0.7,0.7-0.7,2,0,2.7l9.5,9.5c-0.7,1.4-1.2,2.8-1.7,4.3H28.5c-1.1,0-1.9,0.9-1.9,1.9
					v24.8c0,1.1,0.9,1.9,1.9,1.9h13.7c0.5,1.4,1.1,2.8,1.7,4.1L34.2,10c-0.7,0.7-0.7,2,0,2.7l17.5,17.5c0.7,0.7,2,0.7,2.7,0l9.7-9.7
					c1.3,0.6,2.7,1.2,4,1.7v13.8c0,1.1,0.9,1.9,1.9,1.9H95c1.1,0,1.9-0.9,1.9-1.9V22.1c1.4-0.5,2.7-1,4-1.7l9.7,9.7
					c0.7,0.7,2,0.7,2.7,0l17.5-17.5c0.7-0.7,0.7-2,0-2.7l-9.7-9.7c0.6-1.3,1.2-2.7,1.7-4.1h13.7c1.1,0,1.9-0.9,1.9-1.9v-24.8
					C138.5-31.6,137.7-32.5,136.6-32.5z M98.9-4.6C95,0.1,89.1,3,82.5,3S70.1,0.1,66.2-4.6c-3.2-3.7-5.1-8.6-5.1-13.8
					c0-11.8,9.6-21.4,21.4-21.4s21.4,9.6,21.4,21.4C103.9-13.1,102-8.3,98.9-4.6z"/>
			</g>
		</g>
	</g>
</g>
<g id="_x32_" class="st5">
	<g class="st6">
		<g>
			<path class="st1" d="M138.5-36.8L91.9-74.1v18.6c0,0-69,0.3-65.2,93.2c0,0,9.1-61.5,65.2-55.9V0.5L138.5-36.8z"/>
		</g>
	</g>
</g>
<g id="_x33_" class="st5">
	<g class="st6">
		<g>
			<g>
				<polygon class="st2" points="101.2,-26.7 101.2,-74.1 63.9,-74.1 63.9,-26.7 45,-26.7 82.5,10.9 120.1,-26.7 				"/>
			</g>
		</g>
		<g>
			<g>
				<polygon class="st1" points="26.6,0.5 45.3,0.5 45.3,19.1 119.8,19.1 119.8,0.5 138.5,0.5 138.5,37.8 26.6,37.8 				"/>
			</g>
		</g>
	</g>
</g>
<g id="_x34_" class="st5">
	<g class="st6">
		<path class="st1" d="M138.5-17.9v-0.3l-37.3-55.9H82.5H63.9L26.6-18.2v55.9h37.3V0.5c0-10.3,8.3-18.6,18.6-18.6
			s18.6,8.3,18.6,18.6v37.3h37.3v-42V-17.9L138.5-17.9z"/>
	</g>
</g>
<g id="_x35_" class="st5">
	<polygon class="st7" points="138.5,-27.5 91.9,-27.5 91.9,-74.1 73.2,-74.1 73.2,-27.5 26.6,-27.5 26.6,-8.8 73.2,-8.8 73.2,37.8 
		91.9,37.8 91.9,-8.8 138.5,-8.8 	"/>
</g>
<g id="_x36_" class="st5">
	<g class="st6">
		<path class="st2" d="M95.8-7.8C91.7-6,87.3-5,82.5-5c-4.7,0-9.2-1-13.2-2.8c-16.4,5.5-28.2,21-28.2,39.3H124
			C124,13.2,112.2-2.2,95.8-7.8z"/>
	</g>
</g>
<g id="_x37_" class="st5">
	<g class="st6">
		<g>
			<g>
				<g>
					<path class="st2" d="M76.4-6h12.3C105-6,119.1,3.9,125.2,18c8.3-9.7,13.2-22.3,13.2-36.1c0-30.9-25-55.9-55.9-55.9
						S26.6-49,26.6-18.2c0,13.8,5,26.4,13.2,36.1C46,3.9,60.1-6,76.4-6z"/>
				</g>
			</g>
			<g>
				<g>
					<path class="st1" d="M82.5,37.8c17.1,0,32.4-7.7,42.7-19.8C119.1,3.9,105-6,88.7-6H76.4C60.1-6,46,3.9,39.9,18
						C50.1,30.1,65.4,37.8,82.5,37.8z"/>
				</g>
			</g>
		</g>
	</g>
</g>
<g id="_x38_" class="st5">
	<g class="st6">
		<g>
			<polygon class="st1" points="110.7,-36.8 110.7,-55.4 101.2,-55.4 101.2,-36.8 63.9,-36.8 63.9,-55.4 54.4,-55.4 54.4,-36.8 
				35.9,-36.8 35.9,19.1 129.2,19.1 129.2,-36.8 			"/>
		</g>
		<g>
			<g>
				<rect x="54.6" y="0.5" class="st8" width="55.9" height="9.3"/>
			</g>
		</g>
		<g>
			<path class="st2" d="M63.9,0.5v32.6h37.3V0.5H63.9z M95.9,28.4H69.2v-4.7h26.7V28.4z M95.9,19.1H69.2v-4.7h26.7V19.1z M95.9,9.8
				H69.2V5.1h26.7V9.8z"/>
		</g>
		<g>
			<g>
				<rect x="69.2" y="23.8" class="st8" width="26.7" height="4.7"/>
			</g>
		</g>
		<g>
			<g>
				<rect x="69.2" y="14.5" class="st8" width="26.7" height="4.7"/>
			</g>
		</g>
		<g>
			<g>
				<rect x="69.2" y="5.1" class="st8" width="26.7" height="4.7"/>
			</g>
		</g>
	</g>
</g>
<g id="_x39_" class="st5">
	<g class="st6">
		<path class="st1" d="M138.5,31.2L109.3,2c6.6-8,10.5-18.3,10.5-29.5c0-25.7-20.9-46.6-46.6-46.6S26.6-53.2,26.6-27.5
			s20.9,46.6,46.6,46.6c11.2,0,21.5-4,29.5-10.5l29.2,29.2L138.5,31.2z M35.7-27.5C35.7-48.2,52.5-65,73.2-65
			c20.7,0,37.5,16.8,37.5,37.5C110.7-6.8,93.9,10,73.2,10C52.5,10,35.7-6.8,35.7-27.5z"/>
	</g>
</g>
<g id="_x31_0" class="st5">
	<g class="st6">
		<g>
			<polygon class="st2" points="26.6,-36.8 73.2,-8.8 101.2,37.8 138.5,-74.1 			"/>
		</g>
	</g>
	<g class="st6">
		<g>
			<polyline class="st1" points="73.2,-8.8 101.2,37.8 138.5,-74.1 			"/>
		</g>
	</g>
</g>
<g id="_x31_1" class="st5">
	<g class="st6">
		<g>
			<polygon class="st2" points="82.5,-71.3 101.4,-38.5 138.5,-30.7 113.1,-2.6 117.1,35 82.5,19.5 48,35 52,-2.6 26.6,-30.7 
				63.7,-38.5 			"/>
		</g>
	</g>
</g>
<g id="Capa_14" class="st5">
	<g class="st6">
		<path class="st9" d="M124.6-17.7H97.2v-5c0-2-1.6-3.6-3.6-3.6c-1.4,0-2.6-1.1-2.6-2.6v-0.5c0-2-1.6-3.6-3.6-3.6h-5.1v-27.5
			c0-2-1.6-3.6-3.6-3.6h-7.1c-2,0-3.6,1.6-3.6,3.6V-33H40.4c-2,0-3.6,1.6-3.6,3.6v7.1c0,2,1.6,3.6,3.6,3.6h27.5v5
			c0,2,1.6,3.6,3.6,3.6c1.4,0,2.6,1.1,2.6,2.6v0.5c0,2,1.6,3.6,3.6,3.6h5.1v27.5c0,2,1.6,3.6,3.6,3.6h7.1c2,0,3.6-1.6,3.6-3.6V-3.3
			h27.5c2,0,3.6-1.6,3.6-3.6v-7.1C128.3-16.1,126.6-17.7,124.6-17.7z M87.4-31.9c1.4,0,2.6,1.1,2.6,2.6v0.5c0,2,1.6,3.6,3.6,3.6
			c1.4,0,2.6,1.1,2.6,2.6v5H84.8c-0.7,0-1.3-0.3-1.7-0.7c-0.1-0.1-0.1-0.2-0.2-0.2c-0.4-0.4-0.6-1-0.6-1.6v-11.7H87.4z M96.1-16.6
			v12.2H83.9v-11.7c0-0.2,0-0.4-0.1-0.7c0.3,0.1,0.6,0.1,1,0.1H96.1z M81.3-19.6c-0.3-0.1-0.6-0.1-1-0.1H69v-12.2h12.2v11.7
			C81.2-20,81.2-19.8,81.3-19.6z M69-60.5c0-1.4,1.1-2.6,2.6-2.6h7.1c1.4,0,2.6,1.1,2.6,2.6V-33H69V-60.5z M40.4-19.7
			c-1.4,0-2.6-1.1-2.6-2.6v-7.1c0-1.4,1.1-2.6,2.6-2.6h27.5v12.2H40.4z M77.7-4.4c-1.4,0-2.6-1.1-2.6-2.6v-0.5c0-2-1.6-3.6-3.6-3.6
			c-1.4,0-2.6-1.1-2.6-2.6v-5h11.3c0.7,0,1.3,0.3,1.7,0.7c0.1,0.1,0.1,0.2,0.2,0.2c0.4,0.4,0.6,1,0.6,1.6v11.7H77.7z M96.1,24.2
			c0,1.4-1.1,2.6-2.6,2.6h-7.1c-1.4,0-2.6-1.1-2.6-2.6V-3.3h12.2V24.2z M127.2-6.9c0,1.4-1.1,2.6-2.6,2.6H97.2v-12.2h27.5
			c1.4,0,2.6,1.1,2.6,2.5V-6.9z"/>
	</g>
</g>
<g id="Capa_19" class="st5">
	<g class="st6">
		<g>
			<path class="st0" d="M41.7,17.6L41.7,17.6c2.6,0,4.8,2.1,4.8,4.8v0.7c0,2.6,2.1,4.8,4.8,4.8h72.3c2.6,0,4.8-2.1,4.8-4.8v-5.5
				v-5.5c0-2.6-2.1-4.8-4.8-4.8h-4.8H62.1c-2.6,0-4.8-2.1-4.8-4.8v-62c0-2.6-2.1-4.8-4.8-4.8H41.7c-2.6,0-4.8,2.1-4.8,4.8v72.3
				C36.9,15.5,39,17.6,41.7,17.6z"/>
		</g>
	</g>
</g>
<g id="Capa_15" class="st5">
	<g class="st6">
		<g>
			<g>
				<path class="st9" d="M93.7-25.9L93.7-25.9c-1.7,0-3.1-1.4-3.1-3.1v-0.5c0-1.7-1.4-3.1-3.1-3.1H39.9c-1.7,0-3.1,1.4-3.1,3.1v3.6
					v3.6c0,1.7,1.4,3.1,3.1,3.1h3.1h37.2c1.7,0,3.1,1.4,3.1,3.1v40.8c0,1.7,1.4,3.1,3.1,3.1h7.2c1.7,0,3.1-1.4,3.1-3.1v-47.5
					C96.8-24.5,95.4-25.9,93.7-25.9z"/>
			</g>
		</g>
	</g>
</g>
<g id="Capa_16" class="st5">
	<g class="st6">
		<g>
			<path class="st9" d="M71.5-30l33.4-33.4c1.4-1.4,3.6-1.4,5,0l2.8,2.8l2.8,2.8c1.4,1.4,1.4,3.6,0,5l-2.5,2.5L83.5-20.8
				c-1.4,1.4-1.4,3.6,0,5l32.3,32.3c1.4,1.4,1.4,3.6,0,5l-5.7,5.7c-1.4,1.4-3.6,1.4-5,0l-33-33"/>
		</g>
		<g>
			<path class="st0" d="M93.3-6L60.3,27.1c-1.4,1.4-3.6,1.4-5,0l-2.8-2.8l-2.8-2.8c-1.4-1.4-1.4-3.6,0-5l2.5-2.5l29.5-29.5
				c1.4-1.4,1.4-3.6,0-5L49.2-52.8c-1.4-1.4-1.4-3.6,0-5l5.7-5.7c1.4-1.4,3.6-1.4,5,0l33.3,33.3"/>
		</g>
	</g>
</g>
<g id="Capa_17" class="st5">
	<g class="st6">
		<g>
			<path class="st9" d="M49.8,15.3c-1.6,1.6-1.6,4.1,0,5.7l5.6,5.6c0.8,0.8,1.8,1.2,2.9,1.2c1,0,2.1-0.4,2.9-1.2L82.7,5l21.7,21.7
				c0.8,0.8,1.8,1.2,2.9,1.2c1.1,0,2.1-0.4,2.9-1.2l5.6-5.6c0.8-0.8,1.2-1.8,1.2-2.9c0-1.1-0.4-2.1-1.2-2.9L94-6.3l4-4
				c1.6-1.6,1.6-4.1,0-5.7l-0.4-0.4c-0.5-0.5-0.8-1.2-0.8-2c0-0.8,0.3-1.5,0.8-2c0.8-0.8,1.2-1.8,1.2-2.9c0-1.1-0.4-2.1-1.2-2.9
				l-4-4l21.6-21.6c1.6-1.6,1.6-4.1,0-5.7l-5.6-5.6c-1.6-1.6-4.1-1.6-5.7,0L82.4-41.4L60.7-63c-1.5-1.5-4.2-1.5-5.7,0l-5.6,5.6
				c-0.8,0.8-1.2,1.8-1.2,2.9c0,1.1,0.4,2.1,1.2,2.9l21.7,21.7l-4,4c-1.6,1.6-1.6,4.1,0,5.7l0.4,0.4c1.1,1.1,1.1,2.9,0,4
				c-0.8,0.8-1.2,1.8-1.2,2.9c0,1.1,0.4,2.1,1.2,2.9l4,4L49.8,15.3z M72-29.2l9.2,9.2c0.5,0.5,0.7,1.1,0.8,1.8c0,0.1,0,0.2,0,0.3
				c0,0.7-0.3,1.4-0.8,1.9l-8.9,8.9l-4-4c-0.5-0.5-0.8-1.2-0.8-2c0-0.8,0.3-1.5,0.8-2c1.6-1.6,1.6-4.1,0-5.7l-0.4-0.4
				c-1.1-1.1-1.1-2.9,0-4L72-29.2z M82.5-20.3c-0.1-0.2-0.3-0.4-0.5-0.6l-9.2-9.2l9.6-9.6l9.6,9.6l-8.9,8.9
				C82.8-20.9,82.6-20.6,82.5-20.3z M92.3-6.3l-9.6,9.6l-9.6-9.6l8.9-8.9c0.3-0.3,0.5-0.6,0.6-0.9c0.1,0.2,0.3,0.4,0.5,0.6L92.3-6.3
				z M81.6-40.5L72-30.9L50.3-52.6c-1.1-1.1-1.1-2.9,0-4l5.6-5.6c1.1-1.1,2.9-1.1,4,0L81.6-40.5z M92.8-30.9l-9.6-9.6l21.6-21.6
				c0.5-0.5,1.2-0.8,2-0.8c0.8,0,1.5,0.3,2,0.8l5.6,5.6c1.1,1.1,1.1,2.9,0,4L92.8-30.9z M93.1-7.1L84-16.3c-0.5-0.5-0.7-1.1-0.8-1.8
				c0-0.1,0-0.2,0-0.3c0-0.7,0.3-1.4,0.8-1.9l8.9-8.9l4,4c0.5,0.5,0.8,1.2,0.8,2c0,0.8-0.3,1.5-0.8,2c-0.8,0.8-1.2,1.8-1.2,2.9
				c0,1.1,0.4,2.1,1.2,2.9l0.4,0.4c1.1,1.1,1.1,2.9,0,4L93.1-7.1z M83.5,4.2l9.6-9.6l21.7,21.7c0.5,0.5,0.8,1.2,0.8,2
				c0,0.8-0.3,1.5-0.8,2l-5.6,5.6c-1.1,1.1-2.9,1.1-4,0L83.5,4.2z M50.7,16.2L72.3-5.4l9.6,9.6L60.3,25.8c-1.1,1.1-2.9,1.1-4,0
				l-5.6-5.6C49.6,19.1,49.6,17.3,50.7,16.2z"/>
		</g>
	</g>
</g>
<g id="Capa_18" class="st5">
	<g class="st6">
		<g>
			<g>
				<polygon class="st9" points="53.4,29.1 54.9,29.1 54.9,11 73.8,11 73.8,-7.9 92.8,-7.9 92.8,-26.8 110.9,-26.8 110.9,-28.4 
					91.2,-28.4 91.2,-9.4 72.3,-9.4 72.3,9.5 53.4,9.5 				"/>
			</g>
		</g>
		<g>
			<g>
				<polygon class="st0" points="54.2,29.9 73.8,29.9 73.8,11 92.8,11 92.8,-7.9 111.7,-7.9 111.7,-28.4 110.2,-28.4 110.2,-9.4 
					91.2,-9.4 91.2,9.5 72.3,9.5 72.3,28.4 54.2,28.4 				"/>
			</g>
		</g>
		<g>
			<g>
				<path class="st0" d="M43.5,28.4h11.5v11.5H43.5V28.4z M53.4,29.9H45v8.5h8.5V29.9z"/>
			</g>
		</g>
	</g>
</g>
<g id="AAAAAA">
</g>
<g id="Apagado">
	<g>
		<g>
			<g>
				<polygon class="st1" points="51.3,38.7 51.3,16.3 33.7,16.3 33.7,38.7 24.8,38.7 42.5,56.5 60.3,38.7 				"/>
			</g>
		</g>
		<g>
			<polygon class="st1" points="61.5,61.3 23.5,61.3 23.5,51.6 16,51.6 16,68.8 69,68.8 69,51.6 61.5,51.6 			"/>
		</g>
	</g>
</g>
<g id="Encendido_1_">
	<g>
		<polygon class="st2" points="51.3,38.7 51.3,16.3 33.7,16.3 33.7,38.7 24.8,38.7 42.5,56.5 60.3,38.7 		"/>
	</g>
	<polygon class="st2" points="61.5,61.3 23.5,61.3 23.5,51.6 16,51.6 16,68.8 69,68.8 69,51.6 61.5,51.6 	"/>
</g>
</svg>
