<?xml version="1.0" encoding="utf-8"?>
<!-- Generator: Adobe Illustrator 22.0.1, SVG Export Plug-In . SVG Version: 6.00 Build 0)  -->
<svg version="1.1" xmlns="http://www.w3.org/2000/svg" xmlns:xlink="http://www.w3.org/1999/xlink" x="0px" y="0px"
	 viewBox="0 0 85 85" style="enable-background:new 0 0 85 85;" xml:space="preserve">
<style type="text/css">
	.st0{fill:#013E5E;}
	.st1{fill:#1A588E;}
	.st2{fill:#BB9E37;}
	.st3{fill:#CDD8DF;}
	.st4{fill:#FFFFFF;}
	.st5{display:none;}
	.st6{display:inline;}
	.st7{display:inline;fill:#1A588E;}
	.st8{fill:#E6EBEF;}
	.st9{fill:#C7A404;}
	.st10{fill:#FFFFFF;stroke:#1A588E;stroke-miterlimit:10;}
	.st11{fill:none;}
	.st12{fill:#DB3147;}
	.st13{fill:#3DBD37;}
	.st14{fill:#1A588E;stroke:#1A588E;stroke-miterlimit:10;}
</style>
<g id="Capa_1">
</g>
<g id="Capa_2">
</g>
<g id="_x31_" class="st5">
</g>
<g id="_x32_" class="st5">
</g>
<g id="_x33_" class="st5">
</g>
<g id="_x34_" class="st5">
</g>
<g id="_x35_" class="st5">
</g>
<g id="_x36_" class="st5">
</g>
<g id="_x37_" class="st5">
</g>
<g id="_x38_" class="st5">
</g>
<g id="_x39_" class="st5">
</g>
<g id="_x31_0" class="st5">
</g>
<g id="_x31_1" class="st5">
</g>
<g id="Capa_14" class="st5">
</g>
<g id="Capa_19" class="st5">
</g>
<g id="Capa_15" class="st5">
</g>
<g id="Capa_16" class="st5">
</g>
<g id="Capa_17" class="st5">
</g>
<g id="Capa_18" class="st5">
</g>
<g id="AAAAAA">
</g>
<g id="Apagado">
	<g>
		<path class="st1" d="M42.5,52.5L42.5,52.5L42.5,52.5l-0.8-0.4l-14.4-6.6v9.7c0,2.8,6.8,5,15.2,5c8.4,0,15.2-2.2,15.2-5v-9.7
			l-14.5,6.6L42.5,52.5z"/>
		<path class="st1" d="M65.7,39.8l2.2-1l2.6-1.2L43.3,25.2l-0.8-0.4l0,0l0,0l-0.8,0.4L14.6,37.6l2.6,1.2l10.2,4.7l14.4,6.6l0.8,0.4
			l0,0l0,0l0.8-0.4l14.5-6.6l7.1-3.2v2.4v5.3c-0.7,0.2-1.2,1-1.2,1.9h0.2L63.4,55h0.5h2.8h0.5l-0.5-5.2h0.2c0-0.9-0.5-1.6-1.2-1.9
			v-5.7V39.8z"/>
	</g>
</g>
<g id="Encendido_1_">
	<path class="st2" d="M42.5,52.5L42.5,52.5L42.5,52.5l-0.8-0.4l-14.4-6.6v9.7c0,2.8,6.8,5,15.2,5c8.4,0,15.2-2.2,15.2-5v-9.7
		l-14.5,6.6L42.5,52.5z"/>
	<path class="st2" d="M65.7,39.8l2.2-1l2.6-1.2L43.3,25.2l-0.8-0.4l0,0l0,0l-0.8,0.4L14.6,37.6l2.6,1.2l10.2,4.7l14.4,6.6l0.8,0.4
		l0,0l0,0l0.8-0.4l14.5-6.6l7.1-3.2v2.4v5.3c-0.7,0.2-1.2,1-1.2,1.9h0.2L63.4,55h0.5h2.8h0.5l-0.5-5.2h0.2c0-0.9-0.5-1.6-1.2-1.9
		v-5.7V39.8z"/>
</g>
</svg>
