<?xml version="1.0" encoding="utf-8"?>
<!-- Generator: Adobe Illustrator 22.0.1, SVG Export Plug-In . SVG Version: 6.00 Build 0)  -->
<svg version="1.1" xmlns="http://www.w3.org/2000/svg" xmlns:xlink="http://www.w3.org/1999/xlink" x="0px" y="0px"
	 viewBox="0 0 85 85" style="enable-background:new 0 0 85 85;" xml:space="preserve">
<style type="text/css">
	.st0{fill:#013E5E;}
	.st1{fill:#1A588E;}
	.st2{fill:#BB9E37;}
	.st3{fill:#CDD8DF;}
	.st4{fill:#FFFFFF;}
	.st5{fill:#FFFFFF;stroke:#1A588E;stroke-miterlimit:10;}
	.st6{fill:none;}
	.st7{fill:#DB3147;}
	.st8{fill:#3DBD37;}
	.st9{fill:#1A588E;stroke:#1A588E;stroke-miterlimit:10;}
	.st10{fill:#3DBD37;stroke:#FFFFFF;stroke-width:3;stroke-miterlimit:10;}
	.st11{fill:#C5A303;}
	.st12{fill:#E6EBEF;}
</style>
<g id="Capa_1">
</g>
<g id="Capa_2">
</g>
<g id="AAAAAA">
</g>
<g id="Apagado">
</g>
<g id="Encendido_1_">
</g>
<g id="Grises">
	<polygon class="st5" points="60.4,16.8 50.9,16.8 50.9,13.3 35.5,13.3 35.5,16.8 26.3,16.8 23.7,16.8 23.7,29.1 62.6,29.1 
		62.6,16.8 	"/>
	<rect x="23.1" y="31.7" class="st5" width="38.9" height="39.1"/>
	<rect x="28.7" y="37.3" class="st5" width="15.9" height="16.3"/>
	<path class="st5" d="M39.2,47.7c-0.8,0.3-1.7,0.5-2.6,0.5S34.8,48,34,47.7c-3.2,1.1-5.5,4.1-5.5,7.7h16.2
		C44.7,51.8,42.4,48.8,39.2,47.7z"/>
	<g>
		<g>
			<circle class="st5" cx="36.6" cy="40.4" r="5.9"/>
		</g>
	</g>
	<rect x="27.7" y="58.2" class="st5" width="29.6" height="4.3"/>
	<rect x="48.4" y="49.7" class="st5" width="8.9" height="4.3"/>
	<rect x="48.4" y="41.2" class="st5" width="8.9" height="4.3"/>
</g>
</svg>
