<?xml version="1.0" encoding="utf-8"?>
<!-- Generator: Adobe Illustrator 22.0.1, SVG Export Plug-In . SVG Version: 6.00 Build 0)  -->
<svg version="1.1" xmlns="http://www.w3.org/2000/svg" xmlns:xlink="http://www.w3.org/1999/xlink" x="0px" y="0px"
	 viewBox="0 0 85 85" style="enable-background:new 0 0 85 85;" xml:space="preserve">
<style type="text/css">
	.st0{fill:#013E5E;}
	.st1{fill:#1A588E;}
	.st2{fill:#BB9E37;}
	.st3{fill:#CDD8DF;}
	.st4{fill:#FFFFFF;}
	.st5{fill:#FFFFFF;stroke:#1A588E;stroke-miterlimit:10;}
	.st6{fill:none;}
	.st7{fill:#DB3147;}
	.st8{fill:#3DBD37;}
	.st9{fill:#1A588E;stroke:#1A588E;stroke-miterlimit:10;}
	.st10{fill:#3DBD37;stroke:#FFFFFF;stroke-width:3;stroke-miterlimit:10;}
	.st11{fill:#C5A303;}
	.st12{fill:#E6EBEF;}
</style>
<g id="Capa_1">
</g>
<g id="Capa_2">
</g>
<g id="AAAAAA">
</g>
<g id="Apagado">
</g>
<g id="Encendido_1_">
</g>
<g id="Grises">
	<g>
		<polygon class="st2" points="63.8,17.8 60.4,17.8 50.9,17.8 50.9,14.3 35.5,14.3 35.5,17.8 26.3,17.8 21.3,17.8 23.7,17.8 
			23.7,30.1 62.6,30.1 62.6,17.8 		"/>
		<rect x="23.1" y="31.7" class="st1" width="38.9" height="39.1"/>
		<g>
			<g>
				<rect x="28.5" y="37.3" class="st4" width="16.3" height="16.3"/>
			</g>
			<path class="st1" d="M39.2,47.7c-0.8,0.3-1.7,0.5-2.6,0.5S34.8,48,34,47.7c-3.2,1.1-5.5,4.1-5.5,7.7h16.2
				C44.7,51.8,42.4,48.8,39.2,47.7z"/>
			<g>
				<g>
					<g>
						<circle class="st1" cx="36.6" cy="41.4" r="5.9"/>
					</g>
				</g>
			</g>
		</g>
		<rect x="27.7" y="58.2" class="st4" width="29.6" height="4.3"/>
		<rect x="48.4" y="49.7" class="st4" width="8.9" height="4.3"/>
		<rect x="48.4" y="41.2" class="st4" width="8.9" height="4.3"/>
	</g>
</g>
</svg>
