<?xml version="1.0" encoding="utf-8"?>
<!-- Generator: Adobe Illustrator 22.0.1, SVG Export Plug-In . SVG Version: 6.00 Build 0)  -->
<svg version="1.1" xmlns="http://www.w3.org/2000/svg" xmlns:xlink="http://www.w3.org/1999/xlink" x="0px" y="0px"
	 viewBox="0 0 85 85" style="enable-background:new 0 0 85 85;" xml:space="preserve">
<style type="text/css">
	.st0{fill:#013E5E;}
	.st1{fill:#1A588E;}
	.st2{fill:#BB9E37;}
	.st3{fill:#CDD8DF;}
	.st4{fill:#FFFFFF;}
	.st5{display:none;}
	.st6{display:inline;}
	.st7{display:inline;fill:#1A588E;}
	.st8{fill:#E6EBEF;}
	.st9{fill:#C7A404;}
	.st10{fill:#FFFFFF;stroke:#1A588E;stroke-miterlimit:10;}
	.st11{fill:none;}
	.st12{fill:#DB3147;}
	.st13{fill:#3DBD37;}
	.st14{fill:#1A588E;stroke:#1A588E;stroke-miterlimit:10;}
</style>
<g id="Capa_1">
</g>
<g id="Capa_2">
</g>
<g id="_x31_" class="st5">
</g>
<g id="_x32_" class="st5">
</g>
<g id="_x33_" class="st5">
</g>
<g id="_x34_" class="st5">
</g>
<g id="_x35_" class="st5">
</g>
<g id="_x36_" class="st5">
</g>
<g id="_x37_" class="st5">
</g>
<g id="_x38_" class="st5">
</g>
<g id="_x39_" class="st5">
</g>
<g id="_x31_0" class="st5">
</g>
<g id="_x31_1" class="st5">
</g>
<g id="Capa_14" class="st5">
</g>
<g id="Capa_19" class="st5">
</g>
<g id="Capa_15" class="st5">
</g>
<g id="Capa_16" class="st5">
</g>
<g id="Capa_17" class="st5">
</g>
<g id="Capa_18" class="st5">
</g>
<g id="AAAAAA">
</g>
<g id="Apagado">
	<g>
		<path class="st1" d="M69.2,30.3L69.2,30.3l0-14.5H30.3l0,0H15.9v53.3h0v0h53.3v0h0V30.3z M47.8,23.4L47.8,23.4l13.9,0v38.3H23.4
			V37.3l0,0V23.4H47.8z"/>
		<g>
			<rect x="38.2" y="52.2" class="st1" width="7.6" height="7.2"/>
		</g>
		<g>
			<path class="st1" d="M45.8,25.6h-6.5c-4.4,0-6.7,1.7-6.7,5v4.8h6.9v-4.2c0-0.5,0.1-0.8,0.3-1c0.1-0.1,0.4-0.2,1.3-0.2h3
				c0.9,0,1.2,0.2,1.3,0.2c0.2,0.2,0.3,0.5,0.3,1v8.5c0,0.6-0.1,0.9-0.3,1C45.2,40.8,44.9,41,44,41h-5.5l0.6,7.6H45l0.3-3.5h0.5
				c4.4,0,6.7-1.7,6.7-5v-9.6C52.5,27.3,50.2,25.6,45.8,25.6z"/>
		</g>
	</g>
</g>
<g id="Encendido_1_">
	<path class="st2" d="M69.2,30.3L69.2,30.3l0-14.5H30.3l0,0H15.9v53.3h0v0h53.3v0h0V30.3z M47.8,23.4L47.8,23.4l13.9,0v38.3H23.4
		V37.3l0,0V23.4H47.8z"/>
	<rect x="38.2" y="52.2" class="st2" width="7.6" height="7.2"/>
	<path class="st2" d="M45.8,25.6h-6.5c-4.4,0-6.7,1.7-6.7,5v4.8h6.9v-4.2c0-0.5,0.1-0.8,0.3-1c0.1-0.1,0.4-0.2,1.3-0.2h3
		c0.9,0,1.2,0.2,1.3,0.2c0.2,0.2,0.3,0.5,0.3,1v8.5c0,0.6-0.1,0.9-0.3,1C45.2,40.8,44.9,41,44,41h-5.5l0.6,7.6H45l0.3-3.5h0.5
		c4.4,0,6.7-1.7,6.7-5v-9.6C52.5,27.3,50.2,25.6,45.8,25.6z"/>
</g>
</svg>
