<?xml version="1.0" encoding="utf-8"?>
<!-- Generator: Adobe Illustrator 22.0.1, SVG Export Plug-In . SVG Version: 6.00 Build 0)  -->
<svg version="1.1" xmlns="http://www.w3.org/2000/svg" xmlns:xlink="http://www.w3.org/1999/xlink" x="0px" y="0px"
	 viewBox="0 0 85 85" style="enable-background:new 0 0 85 85;" xml:space="preserve">
<style type="text/css">
	.st0{fill:#013E5E;}
	.st1{fill:#1A588E;}
	.st2{fill:#BB9E37;}
	.st3{fill:#CDD8DF;}
	.st4{fill:#FFFFFF;}
	.st5{display:none;}
	.st6{display:inline;}
	.st7{display:inline;fill:#1A588E;}
	.st8{fill:#E6EBEF;}
	.st9{fill:#C7A404;}
	.st10{fill:#FFFFFF;stroke:#1A588E;stroke-miterlimit:10;}
	.st11{fill:none;}
	.st12{fill:#DB3147;}
	.st13{fill:#3DBD37;}
	.st14{fill:#1A588E;stroke:#1A588E;stroke-miterlimit:10;}
</style>
<g id="Capa_1">
</g>
<g id="Capa_2">
</g>
<g id="_x31_" class="st5">
</g>
<g id="_x32_" class="st5">
</g>
<g id="_x33_" class="st5">
</g>
<g id="_x34_" class="st5">
</g>
<g id="_x35_" class="st5">
</g>
<g id="_x36_" class="st5">
</g>
<g id="_x37_" class="st5">
</g>
<g id="_x38_" class="st5">
</g>
<g id="_x39_" class="st5">
</g>
<g id="_x31_0" class="st5">
</g>
<g id="_x31_1" class="st5">
</g>
<g id="Capa_14" class="st5">
</g>
<g id="Capa_19" class="st5">
</g>
<g id="Capa_15" class="st5">
</g>
<g id="Capa_16" class="st5">
</g>
<g id="Capa_17" class="st5">
</g>
<g id="Capa_18" class="st5">
</g>
<g id="AAAAAA">
</g>
<g id="Apagado">
	<g>
		<path class="st1" d="M54.3,32.1c0.2-0.8,0.2-1.5,0-2.3h3.5c-1-7.6-7.5-13.5-15.3-13.5s-14.3,5.9-15.3,13.5h3.5
			c-0.1,0.4-0.1,0.7-0.1,1.1c0,0.4,0,0.8,0.1,1.1h-3.6c0.1,8.4,7,15.2,15.5,15.2S57.8,40.5,58,32.1H54.3z"/>
		<path class="st11" d="M33.7,33.1c1.2,1.2,3.1,1.2,4.3,0c0.3-0.3,0.5-0.7,0.7-1h-5.7C33.2,32.5,33.4,32.8,33.7,33.1z"/>
		<path class="st11" d="M49.1,27.9c-0.8,0-1.6,0.3-2.2,0.9c-0.3,0.3-0.5,0.7-0.7,1H52c-0.1-0.4-0.4-0.7-0.7-1
			C50.7,28.2,49.9,27.9,49.1,27.9z"/>
		<path class="st11" d="M35.9,27.9c-0.8,0-1.6,0.3-2.2,0.9c-0.3,0.3-0.5,0.7-0.7,1h5.7c-0.1-0.4-0.4-0.7-0.7-1
			C37.5,28.2,36.7,27.9,35.9,27.9z"/>
		<path class="st11" d="M47,33.1c1.2,1.2,3.1,1.2,4.3,0c0.3-0.3,0.5-0.7,0.7-1h-5.7C46.5,32.5,46.7,32.8,47,33.1z"/>
		<polygon class="st2" points="41.1,32.1 41.1,32.1 44,32.1 44,32.1 		"/>
		<path class="st1" d="M57.8,29.8h-3.5c-0.2-1-0.7-1.9-1.4-2.6c-2.1-2.1-5.4-2.1-7.5,0c-0.7,0.7-1.2,1.6-1.4,2.6h-2.9
			c-0.2-1-0.7-1.9-1.4-2.6c-1-1-2.3-1.6-3.8-1.6c-1.4,0-2.8,0.6-3.8,1.6c-0.7,0.7-1.2,1.6-1.4,2.6h-3.5c-0.1,0.7-0.1,1.3-0.1,2
			c0,0.1,0,0.2,0,0.3h3.6c0.2,1,0.7,1.9,1.4,2.6c1,1,2.3,1.6,3.8,1.6c1.4,0,2.8-0.6,3.8-1.6c0.7-0.7,1.2-1.6,1.4-2.6c0,0,0,0,0,0H44
			c0,0,0,0,0,0c0.2,1,0.7,1.9,1.4,2.6c1,1,2.4,1.6,3.8,1.6c1.4,0,2.7-0.5,3.8-1.6c0.7-0.7,1.2-1.7,1.4-2.6H58c0-0.1,0-0.2,0-0.3
			C58,31.2,57.9,30.5,57.8,29.8z M38.1,33.1c-1.2,1.2-3.1,1.2-4.3,0c-0.3-0.3-0.5-0.7-0.7-1c-0.3-0.7-0.3-1.5,0-2.3
			c0.1-0.4,0.4-0.7,0.7-1c0.6-0.6,1.4-0.9,2.2-0.9c0.8,0,1.6,0.3,2.2,0.9c0.3,0.3,0.5,0.7,0.7,1c0.3,0.7,0.3,1.5,0,2.3
			C38.6,32.5,38.4,32.8,38.1,33.1z M51.3,33.1c-1.2,1.2-3.1,1.2-4.3,0c-0.3-0.3-0.5-0.7-0.7-1c-0.3-0.7-0.3-1.5,0-2.3
			c0.1-0.4,0.4-0.7,0.7-1c0.6-0.6,1.4-0.9,2.2-0.9c0.8,0,1.6,0.3,2.2,0.9c0.3,0.3,0.5,0.7,0.7,1c0.3,0.7,0.3,1.5,0,2.3
			C51.8,32.5,51.6,32.8,51.3,33.1z"/>
		<g>
			<path class="st1" d="M39,50.5c-0.1-0.1-0.2-0.3-0.2-0.5c0,0,0-0.1,0-0.1c0-0.1,0-0.1,0-0.2c0-0.1,0-0.2,0.1-0.3c0,0,0,0,0,0
				c0,0,0,0,0,0c-0.2,0-0.3-0.1-0.5-0.1c-0.9-0.2-1.8-0.5-2.7-0.9c0,0,0,0,0,0c0,0,0,0,0,0c-2.6,0.9-5,2.2-7,4c0,0-0.1,0.1-0.1,0.1
				c-0.3,0.3-0.6,0.6-0.9,0.9c-0.1,0.1-0.2,0.2-0.3,0.3c-0.3,0.3-0.5,0.6-0.8,0.9c-0.1,0.1-0.2,0.2-0.3,0.4
				c-0.2,0.3-0.5,0.6-0.7,0.9c-0.1,0.1-0.2,0.3-0.3,0.4c0,0,0,0,0,0.1h0c-2.6,3.5-4.1,7.8-4.1,12.5h11.2h6h0l3.4-15.4L39,50.5z"/>
		</g>
		<g>
			<path class="st1" d="M59.9,56.1L59.9,56.1C59.9,56.1,59.8,56.1,59.9,56.1c-0.1-0.2-0.2-0.3-0.3-0.4c-0.2-0.3-0.5-0.6-0.7-0.9
				c-0.1-0.1-0.2-0.2-0.3-0.4c-0.3-0.3-0.5-0.6-0.8-0.9c-0.1-0.1-0.2-0.2-0.3-0.3c-0.3-0.3-0.6-0.6-0.9-0.9c0,0-0.1-0.1-0.1-0.1
				c-2-1.7-4.4-3.1-7-4c0,0,0,0,0,0c0,0,0,0,0,0c-0.9,0.4-1.8,0.7-2.7,0.9c-0.2,0-0.3,0.1-0.5,0.1c0,0,0,0,0,0c0,0,0,0,0,0
				c0.1,0.1,0.1,0.2,0.1,0.3c0,0.1,0,0.1,0,0.2c0,0,0,0.1,0,0.1c0,0.2-0.1,0.3-0.2,0.5l-2.7,2.7l3.4,15.4h0h6h11.2
				C63.9,64,62.4,59.6,59.9,56.1z"/>
		</g>
		<g>
			<path class="st2" d="M38.3,68.7h8.4l-3.4-15.4l2.7-2.7c0.1-0.1,0.2-0.3,0.2-0.5c0,0,0-0.1,0-0.1c0-0.2,0-0.4-0.1-0.5
				c-1.2,0.3-2.4,0.4-3.7,0.4c-1.3,0-2.5-0.2-3.7-0.4c-0.1,0.2-0.1,0.3-0.1,0.5c0,0,0,0.1,0,0.1c0,0.2,0.1,0.3,0.2,0.5l2.7,2.7l0,0
				L38.3,68.7z"/>
		</g>
		<rect x="51" y="59.8" class="st2" width="5.9" height="3"/>
		<polygon class="st4" points="52.7,57.4 52.7,57.8 52.7,58.1 52.7,59.4 54.2,59.4 54.2,58.1 54.2,57.8 54.2,57.4 		"/>
		<polygon class="st4" points="54.7,57.4 54.7,57.8 54.7,58.1 54.7,59.4 56.2,59.4 56.2,58.1 56.2,57.8 56.2,57.4 		"/>
	</g>
</g>
<g id="Encendido_1_">
	<path class="st2" d="M57.8,29.8L57.8,29.8c-1-7.6-7.5-13.5-15.3-13.5c-7.9,0-14.3,5.9-15.3,13.5c-0.1,0.7-0.1,1.3-0.1,2
		c0,0.1,0,0.2,0,0.3h0c0.1,8.4,7,15.2,15.5,15.2c8.5,0,15.3-6.8,15.5-15.2h0c0-0.1,0-0.2,0-0.3C58,31.2,57.9,30.5,57.8,29.8z"/>
	<path class="st2" d="M39,50.5c-0.1-0.1-0.2-0.3-0.2-0.5c0,0,0-0.1,0-0.1c0-0.1,0-0.1,0-0.2c0-0.1,0-0.2,0.1-0.3c0,0,0,0,0,0
		c0,0,0,0,0,0c-0.2,0-0.3-0.1-0.5-0.1c-0.9-0.2-1.8-0.5-2.7-0.9c0,0,0,0,0,0c0,0,0,0,0,0c-2.6,0.9-5,2.2-7,4c0,0-0.1,0.1-0.1,0.1
		c-0.3,0.3-0.6,0.6-0.9,0.9c-0.1,0.1-0.2,0.2-0.3,0.3c-0.3,0.3-0.5,0.6-0.8,0.9c-0.1,0.1-0.2,0.2-0.3,0.4c-0.2,0.3-0.5,0.6-0.7,0.9
		c-0.1,0.1-0.2,0.3-0.3,0.4c0,0,0,0,0,0.1h0c-2.6,3.5-4.1,7.8-4.1,12.5h11.2h6h0l3.4-15.4L39,50.5z"/>
	<path class="st2" d="M59.9,56.1L59.9,56.1C59.9,56.1,59.8,56.1,59.9,56.1c-0.1-0.2-0.2-0.3-0.3-0.4c-0.2-0.3-0.5-0.6-0.7-0.9
		c-0.1-0.1-0.2-0.2-0.3-0.4c-0.3-0.3-0.5-0.6-0.8-0.9c-0.1-0.1-0.2-0.2-0.3-0.3c-0.3-0.3-0.6-0.6-0.9-0.9c0,0-0.1-0.1-0.1-0.1
		c-2-1.7-4.4-3.1-7-4c0,0,0,0,0,0c0,0,0,0,0,0c-0.9,0.4-1.8,0.7-2.7,0.9c-0.2,0-0.3,0.1-0.5,0.1c0,0,0,0,0,0c0,0,0,0,0,0
		c0.1,0.1,0.1,0.2,0.1,0.3c0,0.1,0,0.1,0,0.2c0,0,0,0.1,0,0.1c0,0.2-0.1,0.3-0.2,0.5l-2.7,2.7l3.4,15.4h0h6h11.2
		C63.9,64,62.4,59.6,59.9,56.1z"/>
	<path class="st1" d="M38.3,68.7h8.4l-3.4-15.4l2.7-2.7c0.1-0.1,0.2-0.3,0.2-0.5c0,0,0-0.1,0-0.1c0-0.2,0-0.4-0.1-0.5
		c-1.2,0.3-2.4,0.4-3.7,0.4c-1.3,0-2.5-0.2-3.7-0.4c-0.1,0.2-0.1,0.3-0.1,0.5c0,0,0,0.1,0,0.1c0,0.2,0.1,0.3,0.2,0.5l2.7,2.7l0,0
		L38.3,68.7z"/>
	<rect x="51" y="59.8" class="st1" width="5.9" height="3"/>
	<polygon class="st4" points="52.7,57.4 52.7,57.8 52.7,58.1 52.7,59.4 54.2,59.4 54.2,58.1 54.2,57.8 54.2,57.4 	"/>
	<polygon class="st4" points="54.7,57.4 54.7,57.8 54.7,58.1 54.7,59.4 56.2,59.4 56.2,58.1 56.2,57.8 56.2,57.4 	"/>
</g>
</svg>
