<?xml version="1.0" encoding="utf-8"?>
<!-- Generator: Adobe Illustrator 22.0.1, SVG Export Plug-In . SVG Version: 6.00 Build 0)  -->
<svg version="1.1" xmlns="http://www.w3.org/2000/svg" xmlns:xlink="http://www.w3.org/1999/xlink" x="0px" y="0px"
	 viewBox="0 0 85 85" style="enable-background:new 0 0 85 85;" xml:space="preserve">
<style type="text/css">
	.st0{fill:#013E5E;}
	.st1{fill:#1A588E;}
	.st2{fill:#BB9E37;}
	.st3{fill:#CDD8DF;}
	.st4{fill:#FFFFFF;}
	.st5{display:none;}
	.st6{display:inline;}
	.st7{display:inline;fill:#1A588E;}
	.st8{fill:#E6EBEF;}
	.st9{fill:#C7A404;}
	.st10{fill:#FFFFFF;stroke:#1A588E;stroke-miterlimit:10;}
	.st11{fill:none;}
	.st12{fill:#DB3147;}
	.st13{fill:#3DBD37;}
	.st14{fill:#1A588E;stroke:#1A588E;stroke-miterlimit:10;}
</style>
<g id="Capa_1">
</g>
<g id="Capa_2">
</g>
<g id="_x31_" class="st5">
</g>
<g id="_x32_" class="st5">
</g>
<g id="_x33_" class="st5">
</g>
<g id="_x34_" class="st5">
</g>
<g id="_x35_" class="st5">
</g>
<g id="_x36_" class="st5">
</g>
<g id="_x37_" class="st5">
</g>
<g id="_x38_" class="st5">
</g>
<g id="_x39_" class="st5">
</g>
<g id="_x31_0" class="st5">
</g>
<g id="_x31_1" class="st5">
</g>
<g id="Capa_14" class="st5">
</g>
<g id="Capa_19" class="st5">
</g>
<g id="Capa_15" class="st5">
</g>
<g id="Capa_16" class="st5">
</g>
<g id="Capa_17" class="st5">
</g>
<g id="Capa_18" class="st5">
</g>
<g id="AAAAAA">
</g>
<g id="Apagado">
	<g>
		<path class="st1" d="M40.1,27.3c-5.6,0.5-10.5,1.8-14.5,4.1c-4.8,2.6-8.4,7-10.5,12.1c-0.1,0.2-0.2,0.4-0.2,0.6c0,0.1,0,0.1,0,0.1
			C18.8,56,29.8,63.9,42.3,63.9c0.4,0,0.7,0,1.1,0c0.6,0,1.2-0.1,1.8-0.2c12.1-1.4,20.5-7.7,25-19.4c0,0,0-0.1,0-0.1
			c-1.8-5.3-5.5-9.8-10.3-12.6C54.2,28.3,47.2,26.7,40.1,27.3z"/>
		<circle class="st4" cx="42.5" cy="44.7" r="10.3"/>
		<rect x="40.5" y="21.1" class="st1" width="4.1" height="8.8"/>
		
			<rect x="55.4" y="24.4" transform="matrix(0.7071 0.7071 -0.7071 0.7071 37.2252 -32.1625)" class="st1" width="4.1" height="8.8"/>
		
			<rect x="25.5" y="24.4" transform="matrix(-0.7071 0.7071 -0.7071 -0.7071 67.4214 29.7801)" class="st1" width="4.1" height="8.8"/>
	</g>
</g>
<g id="Encendido_1_">
</g>
</svg>
