<?xml version="1.0" encoding="utf-8"?>
<!-- Generator: Adobe Illustrator 22.0.1, SVG Export Plug-In . SVG Version: 6.00 Build 0)  -->
<svg version="1.1" xmlns="http://www.w3.org/2000/svg" xmlns:xlink="http://www.w3.org/1999/xlink" x="0px" y="0px"
	 viewBox="0 0 85 85" style="enable-background:new 0 0 85 85;" xml:space="preserve">
<style type="text/css">
	.st0{fill:#013E5E;}
	.st1{fill:#1A588E;}
	.st2{fill:#BB9E37;}
	.st3{fill:#CDD8DF;}
	.st4{fill:#FFFFFF;}
	.st5{display:none;}
	.st6{display:inline;}
	.st7{display:inline;fill:#1A588E;}
	.st8{fill:#E6EBEF;}
	.st9{fill:#C7A404;}
	.st10{fill:#FFFFFF;stroke:#1A588E;stroke-miterlimit:10;}
	.st11{fill:none;}
	.st12{fill:#DB3147;}
	.st13{fill:#3DBD37;}
	.st14{fill:#1A588E;stroke:#1A588E;stroke-miterlimit:10;}
</style>
<g id="Capa_1">
</g>
<g id="Capa_2">
</g>
<g id="_x31_" class="st5">
</g>
<g id="_x32_" class="st5">
</g>
<g id="_x33_" class="st5">
</g>
<g id="_x34_" class="st5">
</g>
<g id="_x35_" class="st5">
</g>
<g id="_x36_" class="st5">
</g>
<g id="_x37_" class="st5">
</g>
<g id="_x38_" class="st5">
</g>
<g id="_x39_" class="st5">
</g>
<g id="_x31_0" class="st5">
</g>
<g id="_x31_1" class="st5">
</g>
<g id="Capa_14" class="st5">
</g>
<g id="Capa_19" class="st5">
</g>
<g id="Capa_15" class="st5">
</g>
<g id="Capa_16" class="st5">
</g>
<g id="Capa_17" class="st5">
</g>
<g id="Capa_18" class="st5">
</g>
<g id="AAAAAA">
</g>
<g id="Apagado">
	<path class="st10" d="M58,31.8c0-0.2,0-0.4,0-0.6c-0.1-1.9-0.5-3.7-1.2-5.4c0,0,0-0.1,0-0.1c-0.2-0.4-0.3-0.7-0.5-1.1
		c0-0.1-0.1-0.2-0.1-0.2c-0.2-0.3-0.3-0.6-0.5-0.9c-0.1-0.1-0.1-0.2-0.2-0.3c-0.2-0.2-0.3-0.5-0.5-0.7c-0.1-0.1-0.2-0.3-0.3-0.4
		c-0.1-0.2-0.3-0.4-0.5-0.5c-0.2-0.2-0.3-0.4-0.5-0.5c-0.1-0.1-0.3-0.3-0.4-0.4c-0.2-0.2-0.4-0.4-0.6-0.6c-0.1-0.1-0.2-0.2-0.3-0.3
		c-0.3-0.2-0.5-0.4-0.8-0.6c-0.1,0-0.1-0.1-0.2-0.1c-0.3-0.2-0.6-0.4-1-0.6c0,0-0.1,0-0.1,0c-1.6-0.9-3.4-1.6-5.3-1.9
		c-0.2,0-0.4-0.1-0.6-0.1c-0.1,0-0.1,0-0.2,0c-0.6-0.1-1.1-0.1-1.7-0.1c-2.1,0-4,0.4-5.8,1.1c0,0-0.1,0-0.1,0.1
		c-0.4,0.2-0.8,0.3-1.2,0.5c-0.1,0.1-0.2,0.1-0.3,0.2c-0.3,0.2-0.6,0.3-0.9,0.5c-0.1,0.1-0.3,0.2-0.4,0.3c-0.2,0.2-0.5,0.3-0.7,0.5
		c-0.2,0.1-0.3,0.3-0.5,0.4c-0.2,0.1-0.3,0.3-0.5,0.4c-0.2,0.2-0.4,0.4-0.6,0.6c-0.1,0.1-0.2,0.2-0.3,0.4c-0.2,0.2-0.4,0.5-0.6,0.7
		c-0.1,0.1-0.1,0.2-0.2,0.3c-0.2,0.3-0.4,0.6-0.6,0.9c0,0.1-0.1,0.1-0.1,0.2c-1.2,1.9-2.1,4.1-2.4,6.5c0,0.2,0,0.3,0,0.5
		c0,0.2,0,0.5-0.1,0.7c0,0.2,0,0.3,0,0.5c0,0.1,0,0.1,0,0.2c0,0.1,0,0.2,0,0.3h0v0h0c0,0,0,0.1,0,0.1c0,0.5,0,0.9,0.1,1.3
		c0,0.1,0,0.1,0,0.2c0.1,0.4,0.1,0.9,0.2,1.3c0,0.1,0,0.2,0.1,0.3c0.1,0.4,0.2,0.8,0.3,1.1c0,0.1,0.1,0.2,0.1,0.4
		c0.1,0.3,0.2,0.7,0.4,1c0.1,0.2,0.1,0.3,0.2,0.4c0.1,0.3,0.3,0.6,0.4,0.9c0.1,0.2,0.2,0.3,0.3,0.5c0.1,0.2,0.3,0.5,0.5,0.7
		c0.1,0.2,0.2,0.4,0.4,0.5c0.2,0.2,0.3,0.4,0.5,0.6c0.2,0.2,0.3,0.4,0.5,0.5c0.2,0.2,0.3,0.4,0.5,0.5c0.2,0.2,0.4,0.4,0.6,0.5
		c0.2,0.1,0.3,0.3,0.5,0.4c0.2,0.2,0.4,0.4,0.7,0.5c0.2,0.1,0.3,0.2,0.5,0.3c0.3,0.2,0.5,0.4,0.8,0.5c0.1,0.1,0.3,0.2,0.4,0.3
		c0.3,0.2,0.6,0.3,0.9,0.5c0.1,0.1,0.2,0.1,0.3,0.2c0.4,0.2,0.7,0.3,1.1,0.4c0.1,0,0.2,0.1,0.3,0.1c0.4,0.1,0.8,0.3,1.2,0.4
		c0.1,0,0.1,0,0.2,0.1c0.4,0.1,0.9,0.2,1.3,0.3c0,0,0.1,0,0.1,0l0,0c0,0,0,0,0,0l0,0c0.1,0,0.2,0,0.3,0c0.1,0,0.1,0,0.2,0
		c0.2,0,0.3,0,0.5,0c0.2,0,0.5,0,0.7,0c0.2,0,0.3,0,0.5,0c2.4,0,4.7-0.6,6.8-1.6c0.1,0,0.1-0.1,0.2-0.1c0.3-0.2,0.7-0.3,1-0.5
		c0.1-0.1,0.2-0.1,0.3-0.2c0.3-0.2,0.5-0.4,0.8-0.5c0.1-0.1,0.3-0.2,0.4-0.3c0.2-0.2,0.4-0.3,0.6-0.5c0.2-0.1,0.3-0.3,0.5-0.5
		c0.2-0.2,0.3-0.3,0.5-0.5c0.2-0.2,0.4-0.4,0.6-0.6c0.1-0.1,0.2-0.3,0.3-0.4c0.2-0.3,0.4-0.6,0.6-0.8c0.1-0.1,0.1-0.2,0.2-0.3
		c0.2-0.3,0.5-0.7,0.7-1.1c0,0,0.1-0.1,0.1-0.1c0.9-1.7,1.6-3.6,1.8-5.6c0.1-0.6,0.1-1.1,0.1-1.7C58,32,58,31.9,58,31.8z"/>
	<g>
		<path class="st10" d="M39,50.5c-0.1-0.1-0.2-0.3-0.2-0.5c0,0,0-0.1,0-0.1c0-0.1,0-0.1,0-0.2c0-0.1,0-0.2,0.1-0.3c0,0,0,0,0,0
			c0,0,0,0,0,0c-0.2,0-0.3-0.1-0.5-0.1c-0.9-0.2-1.8-0.5-2.7-0.9c0,0,0,0,0,0c0,0,0,0,0,0c-2.6,0.9-5,2.2-7,4c0,0-0.1,0.1-0.1,0.1
			c-0.3,0.3-0.6,0.6-0.9,0.9c-0.1,0.1-0.2,0.2-0.3,0.3c-0.3,0.3-0.5,0.6-0.8,0.9c-0.1,0.1-0.2,0.2-0.3,0.4c-0.2,0.3-0.5,0.6-0.7,0.9
			c-0.1,0.1-0.2,0.3-0.3,0.4c0,0,0,0,0,0.1h0c-2.6,3.5-4.1,7.8-4.1,12.5h11.2h6h0l3.4-15.4L39,50.5z"/>
	</g>
	<g>
		<path class="st10" d="M59.9,56.1L59.9,56.1C59.9,56.1,59.8,56.1,59.9,56.1c-0.1-0.2-0.2-0.3-0.3-0.4c-0.2-0.3-0.5-0.6-0.7-0.9
			c-0.1-0.1-0.2-0.2-0.3-0.4c-0.3-0.3-0.5-0.6-0.8-0.9c-0.1-0.1-0.2-0.2-0.3-0.3c-0.3-0.3-0.6-0.6-0.9-0.9c0,0-0.1-0.1-0.1-0.1
			c-2-1.7-4.4-3.1-7-4c0,0,0,0,0,0c0,0,0,0,0,0c-0.9,0.4-1.8,0.7-2.7,0.9c-0.2,0-0.3,0.1-0.5,0.1c0,0,0,0,0,0c0,0,0,0,0,0
			c0.1,0.1,0.1,0.2,0.1,0.3c0,0.1,0,0.1,0,0.2c0,0,0,0.1,0,0.1c0,0.2-0.1,0.3-0.2,0.5l-2.7,2.7l3.4,15.4h0h6h11.2
			C63.9,64,62.4,59.6,59.9,56.1z"/>
	</g>
	<g>
		<path class="st14" d="M38.3,68.7h8.4l-3.4-15.4l2.7-2.7c0.1-0.1,0.2-0.3,0.2-0.5c0,0,0-0.1,0-0.1c0-0.2,0-0.4-0.1-0.5
			c-1.2,0.3-2.4,0.4-3.7,0.4c-1.3,0-2.5-0.2-3.7-0.4c-0.1,0.2-0.1,0.3-0.1,0.5c0,0,0,0.1,0,0.1c0,0.2,0.1,0.3,0.2,0.5l2.7,2.7l0,0
			L38.3,68.7z"/>
	</g>
	<rect x="51" y="59.8" class="st1" width="5.9" height="3"/>
	<polygon class="st1" points="52.7,57.4 52.7,57.8 52.7,58.1 52.7,59.4 54.2,59.4 54.2,58.1 54.2,57.8 54.2,57.4 	"/>
	<polygon class="st1" points="54.7,57.4 54.7,57.8 54.7,58.1 54.7,59.4 56.2,59.4 56.2,58.1 56.2,57.8 56.2,57.4 	"/>
</g>
<g id="Encendido_1_">
</g>
</svg>
