<?xml version="1.0" encoding="utf-8"?>
<!-- Generator: Adobe Illustrator 22.0.1, SVG Export Plug-In . SVG Version: 6.00 Build 0)  -->
<svg version="1.1" xmlns="http://www.w3.org/2000/svg" xmlns:xlink="http://www.w3.org/1999/xlink" x="0px" y="0px"
	 viewBox="0 0 426.9 170" style="enable-background:new 0 0 426.9 170;" xml:space="preserve">
<style type="text/css">
	.st0{fill:#013E5E;}
	.st1{fill:#1A588E;}
	.st2{fill:#BB9E37;}
	.st3{fill:#CDD8DF;}
	.st4{fill:#FFFFFF;}
	.st5{display:none;}
	.st6{display:inline;}
	.st7{display:inline;fill:#1A588E;}
	.st8{fill:#E6EBEF;}
	.st9{fill:#C7A404;}
	.st10{fill:#FFFFFF;stroke:#1A588E;stroke-miterlimit:10;}
	.st11{fill:none;}
	.st12{fill:#DB3147;}
	.st13{fill:#3DBD37;}
	.st14{fill:#1A588E;stroke:#1A588E;stroke-miterlimit:10;}
</style>
<g id="Capa_1">
</g>
<g id="Capa_2">
	<g>
		<g>
			<path class="st3" d="M227.7,80.8v32.6c0,9.7,5.6,14.6,16.7,14.6h17c11.2,0,16.9-4.9,16.9-14.6V98.8h-19.1v12.9
				c0,1.2-0.3,2.1-0.8,2.6c-0.5,0.5-1.4,0.7-2.7,0.7h-5.4c-1.3,0-2.3-0.2-2.8-0.7c-0.5-0.5-0.8-1.3-0.8-2.6V86.3
				c-6.5-2.3-12.9-5-19-8.2V80.8z"/>
		</g>
		<g>
			<path class="st4" d="M246.7,59.9c0-2.2,1.2-3.3,3.6-3.3h5.4c2.3,0,3.5,1.1,3.5,3.3v13.3h19.1v-15c0-9.7-5.6-14.6-16.9-14.6h-17
				c-11.1,0-16.7,4.9-16.7,14.6v20c6.1,3.1,12.4,5.9,19,8.2v-0.2V59.9z"/>
		</g>
		<g>
			<path class="st4" d="M291.4,95.1v0.7V128h46v-13.9h-27.1V97.8v-2.9c-3.9,0.3-7.8,0.4-11.7,0.4C296.2,95.2,293.8,95.2,291.4,95.1z
				"/>
		</g>
		<g>
			<path class="st0" d="M332.5,92v-0.5c-0.8,0.2-1.5,0.3-2.3,0.5H332.5z"/>
		</g>
		<g>
			<path class="st3" d="M310.4,78.1V57.5h26V43.6h-45v51.5c2.4,0.1,4.8,0.2,7.3,0.2c3.9,0,7.8-0.1,11.7-0.4V92h19.9
				c0.8-0.2,1.5-0.3,2.3-0.5V78.1H310.4z"/>
		</g>
		<g>
			<path class="st4" d="M381.5,78.7v2.6c0,2.2-1.2,3.3-3.5,3.3h-4.9h-5.3v-5.5c-6.1,3-12.4,5.7-18.8,7.9v7.8V128h18.8V98.5h15.9
				c11.1,0,16.7-4.9,16.7-14.7V58.2c0-0.3,0-0.5-0.1-0.8c-5.9,5.1-12.3,9.8-18.9,14V78.7z"/>
		</g>
		<g>
			<path class="st3" d="M383.8,43.6H349v43.3c6.5-2.2,12.8-4.9,18.8-7.9V57.5H378c2.3,0,3.5,1.1,3.5,3.3v10.5
				c6.7-4.2,13-8.9,18.9-14c0-0.1,0-0.1,0-0.2C400,48.2,394.5,43.6,383.8,43.6z"/>
		</g>
		<g>
			<path class="st4" d="M70.1,65.8h-1.8c-10,0-18,8.1-18,18v1.8c0,10,8.1,18,18,18h1.8c10,0,18-8.1,18-18v-1.8
				C88.1,73.8,80,65.8,70.1,65.8z"/>
		</g>
		<g>
			<path class="st2" d="M207.1,64.6c0.8,0.5,1.6,1,2.4,1.4c0.3,0.2,0.6,0.3,0.9,0.5c0.6,0.4,1.2,0.8,1.8,1.1
				c0.2,0.1,0.4,0.2,0.5,0.3V43.6h-18.9v14.3c4.4,2,8.8,4.2,13,6.7C206.9,64.6,207,64.6,207.1,64.6z"/>
		</g>
		<g>
			<path class="st4" d="M212.7,128V76.3c-4.8-3.2-9.8-6.2-14.9-8.9l0,0c-1.3-0.7-2.7-1.3-4-2V128H212.7z"/>
		</g>
		<g>
			<path class="st3" d="M178.5,51.8c-2.1-5.5-7.3-8.2-15.7-8.2h-16.2c-2.4,0-4.5,0.2-6.4,0.7c-4.3,1-7.3,3.2-8.9,6.6
				c9.3,0.1,18.5,1.1,27.5,2.9l0,0.1c0.6,0.1,1.3,0.2,1.9,0.4l0,0c0.3,0.1,0.6,0.1,0.9,0.2c0.1,0,0.2,0,0.3,0.1
				c1.7,0.4,3.3,0.8,5,1.2c0.1,0,0.1,0,0.2,0c3.6,0.9,7.2,2.1,10.7,3.3l0,0c0.4,0.1,0.8,0.3,1.2,0.4c0.1,0,0.3,0.1,0.4,0.2v-1.3
				C179.5,55.8,179.2,53.6,178.5,51.8z"/>
		</g>
		<g>
			<path class="st4" d="M129.9,75L129.9,75l0,2.4c0,9.9,5.2,14.9,15.7,14.9h11.7c1.3,0,2.3,0.2,2.8,0.7c0.5,0.5,0.8,1.3,0.8,2.5
				v15.3c0,2.2-1.2,3.3-3.6,3.3h-4.5c-2.4,0-3.6-1.1-3.6-3.3v-8.4h-19v10.9c0,9.8,5.6,14.7,16.9,14.7h16.1
				c11.1,0,16.7-4.9,16.7-14.7V93.4c0-4.8-1.2-8.4-3.7-10.8c-2.5-2.4-6.5-3.6-12.2-3.6h-11.4c-1.3,0-2.3-0.2-2.8-0.7
				c-0.5-0.5-0.8-1.3-0.8-2.5v-6.4v-8.4c0-2.2,1.2-3.3,3.6-3.3h4.5c2.4,0,3.6,1.1,3.6,3.3v7.5v0.9h18.4h0.6v-9.7
				c-0.1-0.1-0.3-0.1-0.4-0.2c-0.4-0.1-0.8-0.3-1.2-0.4l0,0c-3.5-1.2-7.1-2.3-10.7-3.3c-0.1,0-0.1,0-0.2,0c-1.7-0.4-3.3-0.8-5-1.2
				c-0.1,0-0.2,0-0.3-0.1c-0.3-0.1-0.6-0.2-0.9-0.2l0,0c-0.6-0.1-1.3-0.2-1.9-0.4l0-0.1c-8.9-1.8-18.1-2.8-27.5-2.9
				c-1,2-1.5,4.5-1.5,7.3V75z"/>
		</g>
		<g>
			<path class="st2" d="M107.9,49.9h-0.6c-2.1,0-3.9-1.7-4-3.8c0-0.1,0-0.1,0-0.2c0-2.2-1.8-4-4-4H39c-2.2,0-4,1.8-4,4v4.6v4.6
				c0,2.2,1.8,4,4,4h4.6h18.9h28.3c2.2,0,4,1.8,4,4v47.3h4.6c2.2,0,4,1.8,4,4v1.2v2.8h4.6c2.2,0,4-1.8,4-4v-1.5V53.9
				C111.8,51.7,110.1,49.9,107.9,49.9z"/>
		</g>
		<g>
			<path class="st3" d="M39,59.1c-2.2,0-4-1.8-4-4v-4.6h-4.6c-2.2,0-4,1.8-4,4v28.4v9.5c0.3-0.3,0.6-0.6,0.9-0.9
				c0.5-0.5,1-0.9,1.5-1.4c1.5-1.4,3.1-2.7,4.6-4.1c0.6-0.5,1.2-1,1.8-1.5l0,0c0.2-0.2,0.5-0.4,0.8-0.6c0.1-0.1,0.2-0.1,0.3-0.2
				c0,0,0.1,0,0.1-0.1c0,0,0,0,0,0c1.3-1,2.6-2.1,3.9-3.1c0,0,0.1-0.1,0.1-0.1c0.2-0.2,0.4-0.3,0.7-0.5c0.6-0.4,1.2-0.8,1.7-1.2
				c0.2-0.2,0.4-0.3,0.7-0.5v-8.4V59.1v0H39z"/>
		</g>
		<g>
			<path class="st4" d="M99.3,110.3h-4.6H47.5c-2.2,0-4-1.8-4-4V78.2c-0.2,0.2-0.4,0.3-0.7,0.5c-0.6,0.4-1.2,0.8-1.7,1.2
				c-0.2,0.2-0.4,0.3-0.7,0.5c0,0-0.1,0.1-0.1,0.1c-1.3,1-2.6,2-3.9,3.1c0,0,0,0,0,0c0,0-0.1,0-0.1,0.1c-0.1,0.1-0.2,0.1-0.3,0.2
				c-0.2,0.2-0.5,0.4-0.8,0.6l0,0c-0.6,0.5-1.2,1-1.8,1.5c-1.6,1.3-3.1,2.7-4.6,4.1c-0.5,0.5-1,0.9-1.5,1.4
				c-0.3,0.3-0.6,0.6-0.9,0.9v17.2v5.3c0,2.2,1.8,4,4,4H31c2.2,0,4,1.8,4,4v0.6c0,2.2,1.8,4,4,4h60.4c2.2,0,4-1.8,4-4v-5.2v-2.8
				v-1.2C103.3,112.1,101.5,110.3,99.3,110.3z"/>
		</g>
	</g>
</g>
<g id="_x31_" class="st5">
</g>
<g id="_x32_" class="st5">
</g>
<g id="_x33_" class="st5">
</g>
<g id="_x34_" class="st5">
</g>
<g id="_x35_" class="st5">
</g>
<g id="_x36_" class="st5">
</g>
<g id="_x37_" class="st5">
</g>
<g id="_x38_" class="st5">
</g>
<g id="_x39_" class="st5">
</g>
<g id="_x31_0" class="st5">
</g>
<g id="_x31_1" class="st5">
</g>
<g id="Capa_14" class="st5">
</g>
<g id="Capa_19" class="st5">
</g>
<g id="Capa_15" class="st5">
</g>
<g id="Capa_16" class="st5">
</g>
<g id="Capa_17" class="st5">
</g>
<g id="Capa_18" class="st5">
</g>
<g id="AAAAAA">
</g>
<g id="Apagado">
</g>
<g id="Encendido_1_">
</g>
</svg>
