<?xml version="1.0" encoding="utf-8"?>
<!-- Generator: Adobe Illustrator 22.0.1, SVG Export Plug-In . SVG Version: 6.00 Build 0)  -->
<svg version="1.1" xmlns="http://www.w3.org/2000/svg" xmlns:xlink="http://www.w3.org/1999/xlink" x="0px" y="0px"
	 viewBox="0 0 85 85" style="enable-background:new 0 0 85 85;" xml:space="preserve">
<style type="text/css">
	.st0{fill:#FFFFFF;stroke:#1A588E;stroke-miterlimit:10;}
	.st1{fill:#1A588E;stroke:#1A588E;stroke-miterlimit:10;}
	.st2{fill:#1A588E;}
	.st3{fill:#BB9E37;}
	.st4{fill:#FFFFFF;}
	.st5{fill:none;}
	.st6{fill:#3DBD37;stroke:#FFFFFF;stroke-width:3;stroke-miterlimit:10;}
	.st7{fill:#3DBD37;}
	.st8{fill:#CDD8DF;}
	.st9{fill:#DB3147;}
</style>
<g id="AAAAAA">
</g>
<g id="Apagado">
	<path class="st0" d="M27.1,31.8c0-0.2,0-0.4,0-0.6c0.1-1.9,0.5-3.7,1.2-5.4c0,0,0-0.1,0-0.1c0.2-0.4,0.3-0.7,0.5-1.1
		c0-0.1,0.1-0.2,0.1-0.2c0.2-0.3,0.3-0.6,0.5-0.9c0.1-0.1,0.1-0.2,0.2-0.3c0.2-0.2,0.3-0.5,0.5-0.7c0.1-0.1,0.2-0.3,0.3-0.4
		c0.1-0.2,0.3-0.4,0.5-0.5c0.2-0.2,0.3-0.4,0.5-0.5c0.1-0.1,0.3-0.3,0.4-0.4c0.2-0.2,0.4-0.4,0.6-0.6c0.1-0.1,0.2-0.2,0.3-0.3
		c0.3-0.2,0.5-0.4,0.8-0.6c0.1,0,0.1-0.1,0.2-0.1c0.3-0.2,0.6-0.4,1-0.6c0,0,0.1,0,0.1,0c1.6-0.9,3.4-1.6,5.3-1.9
		c0.2,0,0.4-0.1,0.6-0.1c0.1,0,0.1,0,0.2,0c0.6-0.1,1.1-0.1,1.7-0.1c2.1,0,4,0.4,5.8,1.1c0,0,0.1,0,0.1,0.1c0.4,0.2,0.8,0.3,1.2,0.5
		c0.1,0.1,0.2,0.1,0.3,0.2c0.3,0.2,0.6,0.3,0.9,0.5c0.1,0.1,0.3,0.2,0.4,0.3c0.2,0.2,0.5,0.3,0.7,0.5c0.2,0.1,0.3,0.3,0.5,0.4
		c0.2,0.1,0.3,0.3,0.5,0.4c0.2,0.2,0.4,0.4,0.6,0.6c0.1,0.1,0.2,0.2,0.3,0.4c0.2,0.2,0.4,0.5,0.6,0.7c0.1,0.1,0.1,0.2,0.2,0.3
		c0.2,0.3,0.4,0.6,0.6,0.9c0,0.1,0.1,0.1,0.1,0.2c1.2,1.9,2.1,4.1,2.4,6.5c0,0.2,0,0.3,0,0.5c0,0.2,0,0.5,0.1,0.7c0,0.2,0,0.3,0,0.5
		c0,0.1,0,0.1,0,0.2c0,0.1,0,0.2,0,0.3h0v0h0c0,0,0,0.1,0,0.1c0,0.5,0,0.9-0.1,1.3c0,0.1,0,0.1,0,0.2c-0.1,0.4-0.1,0.9-0.2,1.3
		c0,0.1,0,0.2-0.1,0.3c-0.1,0.4-0.2,0.8-0.3,1.1c0,0.1-0.1,0.2-0.1,0.4c-0.1,0.3-0.2,0.7-0.4,1c-0.1,0.2-0.1,0.3-0.2,0.4
		c-0.1,0.3-0.3,0.6-0.4,0.9c-0.1,0.2-0.2,0.3-0.3,0.5c-0.1,0.2-0.3,0.5-0.5,0.7c-0.1,0.2-0.2,0.4-0.4,0.5c-0.2,0.2-0.3,0.4-0.5,0.6
		c-0.2,0.2-0.3,0.4-0.5,0.5c-0.2,0.2-0.3,0.4-0.5,0.5c-0.2,0.2-0.4,0.4-0.6,0.5c-0.2,0.1-0.3,0.3-0.5,0.4c-0.2,0.2-0.4,0.4-0.7,0.5
		c-0.2,0.1-0.3,0.2-0.5,0.3c-0.3,0.2-0.5,0.4-0.8,0.5c-0.1,0.1-0.3,0.2-0.4,0.3c-0.3,0.2-0.6,0.3-0.9,0.5c-0.1,0.1-0.2,0.1-0.3,0.2
		c-0.4,0.2-0.7,0.3-1.1,0.4c-0.1,0-0.2,0.1-0.3,0.1c-0.4,0.1-0.8,0.3-1.2,0.4c-0.1,0-0.1,0-0.2,0.1c-0.4,0.1-0.9,0.2-1.3,0.3
		c0,0-0.1,0-0.1,0l0,0c0,0,0,0,0,0l0,0c-0.1,0-0.2,0-0.3,0c-0.1,0-0.1,0-0.2,0c-0.2,0-0.3,0-0.5,0c-0.2,0-0.5,0-0.7,0
		c-0.2,0-0.3,0-0.5,0c-2.4,0-4.7-0.6-6.8-1.6c-0.1,0-0.1-0.1-0.2-0.1c-0.3-0.2-0.7-0.3-1-0.5c-0.1-0.1-0.2-0.1-0.3-0.2
		c-0.3-0.2-0.5-0.4-0.8-0.5c-0.1-0.1-0.3-0.2-0.4-0.3c-0.2-0.2-0.4-0.3-0.6-0.5c-0.2-0.1-0.3-0.3-0.5-0.5c-0.2-0.2-0.3-0.3-0.5-0.5
		c-0.2-0.2-0.4-0.4-0.6-0.6c-0.1-0.1-0.2-0.3-0.3-0.4c-0.2-0.3-0.4-0.6-0.6-0.8c-0.1-0.1-0.1-0.2-0.2-0.3c-0.2-0.3-0.5-0.7-0.7-1.1
		c0,0-0.1-0.1-0.1-0.1c-0.9-1.7-1.6-3.6-1.8-5.6c-0.1-0.6-0.1-1.1-0.1-1.7C27.1,32,27.1,31.9,27.1,31.8z"/>
	<g>
		<path class="st0" d="M25.2,56.1L25.2,56.1C25.2,56.1,25.2,56.1,25.2,56.1c0.1-0.2,0.2-0.3,0.3-0.4c0.2-0.3,0.5-0.6,0.7-0.9
			c0.1-0.1,0.2-0.2,0.3-0.4c0.3-0.3,0.5-0.6,0.8-0.9c0.1-0.1,0.2-0.2,0.3-0.3c0.3-0.3,0.6-0.6,0.9-0.9c0,0,0.1-0.1,0.1-0.1
			c2-1.7,4.4-3.1,7-4c0,0,0,0,0,0c0,0,0,0,0,0c0.9,0.4,1.8,0.7,2.7,0.9c0.2,0,0.3,0.1,0.5,0.1c0,0,0,0,0,0c0,0,0,0,0,0
			c-0.1,0.1-0.1,0.2-0.1,0.3c0,0.1,0,0.1,0,0.2c0,0,0,0.1,0,0.1c0,0.2,0.1,0.3,0.2,0.5l2.7,2.7l-3.4,15.4h0h-6H21.1
			C21.1,64,22.6,59.6,25.2,56.1z"/>
	</g>
	<g>
		<path class="st1" d="M46.7,68.7h-8.4l3.4-15.4L39,50.5c-0.1-0.1-0.2-0.3-0.2-0.5c0,0,0-0.1,0-0.1c0-0.2,0-0.4,0.1-0.5
			c1.2,0.3,2.4,0.4,3.7,0.4c1.3,0,2.5-0.2,3.7-0.4c0.1,0.2,0.1,0.3,0.1,0.5c0,0,0,0.1,0,0.1c0,0.2-0.1,0.3-0.2,0.5l-2.7,2.7l0,0
			L46.7,68.7z"/>
	</g>
	
		<rect x="28.1" y="59.8" transform="matrix(-1 -4.489754e-11 4.489754e-11 -1 62.1072 122.5257)" class="st2" width="5.9" height="3"/>
	<polygon class="st2" points="32.4,57.4 32.4,57.8 32.4,58.1 32.4,59.4 30.9,59.4 30.9,58.1 30.9,57.8 30.9,57.4 	"/>
	<polygon class="st2" points="30.3,57.4 30.3,57.8 30.3,58.1 30.3,59.4 28.8,59.4 28.8,58.1 28.8,57.8 28.8,57.4 	"/>
	<path class="st0" d="M56.9,63.5c0-0.1,0-0.2,0-0.3c0.1-2.5,1.7-4.7,3.9-5.6c-0.3-0.5-0.6-1-1-1.5h0c0,0,0,0,0-0.1
		c-0.1-0.1-0.2-0.3-0.3-0.4c-0.2-0.3-0.5-0.6-0.7-0.9c-0.1-0.1-0.2-0.2-0.3-0.4c-0.3-0.3-0.5-0.6-0.8-0.9c-0.1-0.1-0.2-0.2-0.3-0.3
		c-0.3-0.3-0.6-0.6-0.9-0.9c0,0-0.1-0.1-0.1-0.1c-2-1.7-4.4-3.1-7-4c0,0,0,0,0,0c0,0,0,0,0,0c-0.9,0.4-1.8,0.7-2.7,0.9
		c-0.2,0-0.3,0.1-0.5,0.1c0,0,0,0,0,0c0,0,0,0,0,0c0.1,0.1,0.1,0.2,0.1,0.3c0,0.1,0,0.1,0,0.2c0,0,0,0.1,0,0.1
		c0,0.2-0.1,0.3-0.2,0.5l-2.7,2.7l3.4,15.4h0h6h6.7C57.9,67.5,56.9,65.6,56.9,63.5z"/>
</g>
<g id="Encendido_1_">
	<path class="st9" d="M67.9,61.4c-0.8-1.7-2.5-2.8-4.5-2.8c-2.7,0-4.9,2.1-5,4.8c0,0.1,0,0.1,0,0.2c0,2.8,2.2,5,5,5c2.8,0,5-2.2,5-5
		C68.4,62.8,68.2,62,67.9,61.4z"/>
</g>
<g id="Capa_4">
</g>
</svg>
