<?xml version="1.0" encoding="utf-8"?>
<!-- Generator: Adobe Illustrator 22.0.1, SVG Export Plug-In . SVG Version: 6.00 Build 0)  -->
<svg version="1.1" xmlns="http://www.w3.org/2000/svg" xmlns:xlink="http://www.w3.org/1999/xlink" x="0px" y="0px"
	 viewBox="0 0 85 85" style="enable-background:new 0 0 85 85;" xml:space="preserve">
<style type="text/css">
	.st0{fill:#013E5E;}
	.st1{fill:#1A588E;}
	.st2{fill:#BB9E37;}
	.st3{fill:#CDD8DF;}
	.st4{fill:#FFFFFF;}
	.st5{display:none;}
	.st6{display:inline;}
	.st7{display:inline;fill:#1A588E;}
	.st8{fill:#E6EBEF;}
	.st9{fill:#C7A404;}
	.st10{fill:#FFFFFF;stroke:#1A588E;stroke-miterlimit:10;}
	.st11{fill:none;}
	.st12{fill:#DB3147;}
	.st13{fill:#3DBD37;}
	.st14{fill:#1A588E;stroke:#1A588E;stroke-miterlimit:10;}
</style>
<g id="Capa_1">
</g>
<g id="Capa_2">
</g>
<g id="_x31_" class="st5">
</g>
<g id="_x32_" class="st5">
</g>
<g id="_x33_" class="st5">
</g>
<g id="_x34_" class="st5">
</g>
<g id="_x35_" class="st5">
</g>
<g id="_x36_" class="st5">
</g>
<g id="_x37_" class="st5">
</g>
<g id="_x38_" class="st5">
</g>
<g id="_x39_" class="st5">
</g>
<g id="_x31_0" class="st5">
</g>
<g id="_x31_1" class="st5">
</g>
<g id="Capa_14" class="st5">
</g>
<g id="Capa_19" class="st5">
</g>
<g id="Capa_15" class="st5">
</g>
<g id="Capa_16" class="st5">
</g>
<g id="Capa_17" class="st5">
</g>
<g id="Capa_18" class="st5">
</g>
<g id="AAAAAA">
</g>
<g id="Apagado">
	<path class="st1" d="M29.2,49.3c-0.3-0.1-0.6-0.3-1-0.4c-1.2,0.5-2.5,0.8-3.8,0.8c-1.4,0-2.6-0.3-3.8-0.8
		c-4.7,1.6-8.2,6.1-8.2,11.3h10.8C23.9,56,26,52.1,29.2,49.3z"/>
	<path class="st1" d="M24.3,48.3c3.6,0,6.6-2.1,7.9-5.2c-2.7-2.6-4.4-6.3-4.4-10.4c0-0.3,0-0.6,0-0.9c-1.1-0.5-2.3-0.8-3.6-0.8
		c-4.8,0-8.6,3.9-8.6,8.6C15.7,44.4,19.6,48.3,24.3,48.3z"/>
	<path class="st1" d="M67.7,53.8c1.2,0,2.3,0.3,3.3,0.9c-1.4-2.7-3.8-4.8-6.8-5.8c-1.2,0.5-2.5,0.8-3.8,0.8c-1.4,0-2.6-0.3-3.8-0.8
		c-0.3,0.1-0.7,0.3-1,0.4c2.8,2.5,4.7,5.9,5.7,9.5C61.9,55.9,64.5,53.8,67.7,53.8z"/>
	<path class="st1" d="M52.4,43.1c1.3,3.1,4.4,5.2,7.9,5.2c4.8,0,8.6-3.9,8.6-8.6c0-4.8-3.9-8.6-8.6-8.6c-1.3,0-2.5,0.3-3.6,0.8
		c0,0.3,0,0.6,0,0.9C56.9,36.7,55.2,40.4,52.4,43.1z"/>
	<path class="st10" d="M48.1,46.6c-1.8,0.8-3.7,1.2-5.7,1.2c-2,0-4-0.4-5.7-1.2c-7.1,2.4-12.3,9.1-12.3,17.1h36
		C60.4,55.7,55.2,49,48.1,46.6z"/>
	<circle class="st10" cx="42.4" cy="32.7" r="13"/>
	<path class="st13" d="M72.1,58.2c-0.8-1.7-2.5-2.8-4.5-2.8c-2.7,0-4.9,2.1-5,4.8c0,0.1,0,0.1,0,0.2c0,2.8,2.2,5,5,5
		c2.8,0,5-2.2,5-5C72.7,59.6,72.5,58.9,72.1,58.2z"/>
</g>
<g id="Encendido_1_">
</g>
</svg>
