<?xml version="1.0" encoding="utf-8"?>
<!-- Generator: Adobe Illustrator 22.0.1, SVG Export Plug-In . SVG Version: 6.00 Build 0)  -->
<svg version="1.1" xmlns="http://www.w3.org/2000/svg" xmlns:xlink="http://www.w3.org/1999/xlink" x="0px" y="0px"
	 viewBox="0 0 85 85" style="enable-background:new 0 0 85 85;" xml:space="preserve">
<style type="text/css">
	.st0{fill:#FFFFFF;stroke:#1A588E;stroke-miterlimit:10;}
	.st1{fill:#1A588E;stroke:#1A588E;stroke-miterlimit:10;}
	.st2{fill:#1A588E;}
	.st3{fill:#BB9E37;}
	.st4{fill:#FFFFFF;}
	.st5{fill:none;}
	.st6{fill:#3DBD37;stroke:#FFFFFF;stroke-width:3;stroke-miterlimit:10;}
	.st7{fill:#3DBD37;}
	.st8{fill:#CDD8DF;}
	.st9{fill:#DB3147;}
</style>
<g id="AAAAAA">
</g>
<g id="Apagado">
</g>
<g id="Encendido_1_">
	<g>
		<path class="st8" d="M27.2,29.8L27.2,29.8c1-7.6,7.5-13.5,15.3-13.5s14.3,5.9,15.3,13.5c0.1,0.7,0.1,1.3,0.1,2c0,0.1,0,0.2,0,0.3
			h0c-0.1,8.4-7,15.2-15.5,15.2s-15.3-6.8-15.5-15.2h0c0-0.1,0-0.2,0-0.3C27.1,31.2,27.1,30.5,27.2,29.8z"/>
		<g>
			<path class="st8" d="M46,50.5c0.1-0.1,0.2-0.3,0.2-0.5c0,0,0-0.1,0-0.1c0-0.1,0-0.1,0-0.2c0-0.1,0-0.2-0.1-0.3c0,0,0,0,0,0
				c0,0,0,0,0,0c0.2,0,0.3-0.1,0.5-0.1c0.9-0.2,1.8-0.5,2.7-0.9c0,0,0,0,0,0c0,0,0,0,0,0c2.6,0.9,5,2.2,7,4c0,0,0.1,0.1,0.1,0.1
				c0.3,0.3,0.6,0.6,0.9,0.9c0.1,0.1,0.2,0.2,0.3,0.3c0.3,0.3,0.5,0.6,0.8,0.9c0.1,0.1,0.2,0.2,0.3,0.4c0.2,0.3,0.5,0.6,0.7,0.9
				c0.1,0.1,0.2,0.3,0.3,0.4c0,0,0,0,0,0.1h0c2.6,3.5,4.1,7.8,4.1,12.5H52.7h-6h0l-3.4-15.4L46,50.5z"/>
		</g>
		<g>
			<path class="st8" d="M25.2,56.1L25.2,56.1C25.2,56.1,25.2,56.1,25.2,56.1c0.1-0.2,0.2-0.3,0.3-0.4c0.2-0.3,0.5-0.6,0.7-0.9
				c0.1-0.1,0.2-0.2,0.3-0.4c0.3-0.3,0.5-0.6,0.8-0.9c0.1-0.1,0.2-0.2,0.3-0.3c0.3-0.3,0.6-0.6,0.9-0.9c0,0,0.1-0.1,0.1-0.1
				c2-1.7,4.4-3.1,7-4c0,0,0,0,0,0c0,0,0,0,0,0c0.9,0.4,1.8,0.7,2.7,0.9c0.2,0,0.3,0.1,0.5,0.1c0,0,0,0,0,0c0,0,0,0,0,0
				c-0.1,0.1-0.1,0.2-0.1,0.3c0,0.1,0,0.1,0,0.2c0,0,0,0.1,0,0.1c0,0.2,0.1,0.3,0.2,0.5l2.7,2.7l-3.4,15.4h0h-6H21.1
				C21.1,64,22.6,59.6,25.2,56.1z"/>
		</g>
		<g>
			<path class="st2" d="M46.7,68.7h-8.4l3.4-15.4L39,50.5c-0.1-0.1-0.2-0.3-0.2-0.5c0,0,0-0.1,0-0.1c0-0.2,0-0.4,0.1-0.5
				c1.2,0.3,2.4,0.4,3.7,0.4c1.3,0,2.5-0.2,3.7-0.4c0.1,0.2,0.1,0.3,0.1,0.5c0,0,0,0.1,0,0.1c0,0.2-0.1,0.3-0.2,0.5l-2.7,2.7l0,0
				L46.7,68.7z"/>
		</g>
		
			<rect x="28.1" y="59.8" transform="matrix(-1 -4.489754e-11 4.489754e-11 -1 62.1072 122.5257)" class="st2" width="5.9" height="3"/>
		<polygon class="st4" points="32.4,57.4 32.4,57.8 32.4,58.1 32.4,59.4 30.9,59.4 30.9,58.1 30.9,57.8 30.9,57.4 		"/>
		<polygon class="st4" points="30.3,57.4 30.3,57.8 30.3,58.1 30.3,59.4 28.8,59.4 28.8,58.1 28.8,57.8 28.8,57.4 		"/>
	</g>
	<g>
		<path class="st6" d="M67.5,61.5c-0.8-1.7-2.5-2.8-4.5-2.8c-2.7,0-4.9,2.1-5,4.8c0,0.1,0,0.1,0,0.2c0,2.8,2.2,5,5,5s5-2.2,5-5
			C68,62.9,67.8,62.2,67.5,61.5z"/>
		<path class="st9" d="M67.5,61.5c-0.8-1.7-2.5-2.8-4.5-2.8c-2.7,0-4.9,2.1-5,4.8c0,0.1,0,0.1,0,0.2c0,2.8,2.2,5,5,5s5-2.2,5-5
			C68,62.9,67.8,62.2,67.5,61.5z"/>
	</g>
</g>
<g id="Capa_4">
</g>
</svg>
