<?xml version="1.0" encoding="utf-8"?>
<!-- Generator: Adobe Illustrator 22.0.1, SVG Export Plug-In . SVG Version: 6.00 Build 0)  -->
<svg version="1.1" xmlns="http://www.w3.org/2000/svg" xmlns:xlink="http://www.w3.org/1999/xlink" x="0px" y="0px"
	 viewBox="0 0 85 85" style="enable-background:new 0 0 85 85;" xml:space="preserve">
<style type="text/css">
	.st0{fill:#013E5E;}
	.st1{fill:#1A588E;}
	.st2{fill:#BB9E37;}
	.st3{fill:#CDD8DF;}
	.st4{fill:#FFFFFF;}
	.st5{display:none;}
	.st6{display:inline;}
	.st7{display:inline;fill:#1A588E;}
	.st8{fill:#E6EBEF;}
	.st9{fill:#C7A404;}
	.st10{fill:#FFFFFF;stroke:#1A588E;stroke-miterlimit:10;}
	.st11{fill:none;}
	.st12{fill:#DB3147;}
	.st13{fill:#3DBD37;}
	.st14{fill:#1A588E;stroke:#1A588E;stroke-miterlimit:10;}
</style>
<g id="Capa_1">
</g>
<g id="Capa_2">
</g>
<g id="_x31_" class="st5">
</g>
<g id="_x32_" class="st5">
</g>
<g id="_x33_" class="st5">
</g>
<g id="_x34_" class="st5">
</g>
<g id="_x35_" class="st5">
</g>
<g id="_x36_" class="st5">
</g>
<g id="_x37_" class="st5">
</g>
<g id="_x38_" class="st5">
</g>
<g id="_x39_" class="st5">
</g>
<g id="_x31_0" class="st5">
</g>
<g id="_x31_1" class="st5">
</g>
<g id="Capa_14" class="st5">
</g>
<g id="Capa_19" class="st5">
</g>
<g id="Capa_15" class="st5">
</g>
<g id="Capa_16" class="st5">
</g>
<g id="Capa_17" class="st5">
</g>
<g id="Capa_18" class="st5">
</g>
<g id="AAAAAA">
</g>
<g id="Apagado">
	<g>
		<polygon class="st10" points="58.3,34.7 58.3,23.4 53,23.4 53,34.7 32.1,34.7 32.1,23.4 26.7,23.4 26.7,34.7 16.4,34.7 16.4,63.4 
			68.7,63.4 68.7,34.7 		"/>
	</g>
	<g>
		<g>
			<rect x="26.8" y="52.1" class="st10" width="31.4" height="4.8"/>
		</g>
	</g>
	<g>
		<path class="st1" d="M32.1,52.1v16.7H53V52.1H32.1z M50,66.4H35V64h15V66.4z M50,61.6H35v-2.4h15V61.6z M50,56.8H35v-2.4h15V56.8z
			"/>
	</g>
	<g>
		<g>
			<rect x="35" y="64" class="st4" width="15" height="2.4"/>
		</g>
	</g>
	<g>
		<g>
			<rect x="35" y="59.2" class="st4" width="15" height="2.4"/>
		</g>
	</g>
	<g>
		<g>
			<rect x="35" y="54.5" class="st4" width="15" height="2.4"/>
		</g>
	</g>
	<g>
		<g>
			<rect x="32.1" y="16.3" class="st1" width="20.9" height="18.5"/>
		</g>
	</g>
	<g>
		<g>
			<rect x="27.1" y="40.1" class="st10" width="4" height="3"/>
		</g>
	</g>
	<g>
		<g>
			<rect x="21.6" y="40.1" class="st10" width="4" height="3"/>
		</g>
	</g>
</g>
<g id="Encendido_1_">
</g>
</svg>
