<?xml version="1.0" encoding="utf-8"?>
<!-- Generator: Adobe Illustrator 22.0.1, SVG Export Plug-In . SVG Version: 6.00 Build 0)  -->
<svg version="1.1" xmlns="http://www.w3.org/2000/svg" xmlns:xlink="http://www.w3.org/1999/xlink" x="0px" y="0px"
	 viewBox="0 0 85 85" style="enable-background:new 0 0 85 85;" xml:space="preserve">
<style type="text/css">
	.st0{fill:#FFFFFF;stroke:#1A588E;stroke-miterlimit:10;}
	.st1{fill:#1A588E;stroke:#1A588E;stroke-miterlimit:10;}
	.st2{fill:#1A588E;}
	.st3{fill:#BB9E37;}
	.st4{fill:#FFFFFF;}
	.st5{fill:none;}
	.st6{fill:#3DBD37;stroke:#FFFFFF;stroke-width:3;stroke-miterlimit:10;}
	.st7{fill:#3DBD37;}
	.st8{fill:#CDD8DF;}
	.st9{fill:#DB3147;}
</style>
<g id="AAAAAA">
</g>
<g id="Apagado">
</g>
<g id="Encendido_1_">
	<g>
		<g>
			<g>
				<circle class="st2" cx="44" cy="32.3" r="15.5"/>
			</g>
		</g>
		<path class="st5" d="M25.8,71.5C25.8,71.5,25.8,71.5,25.8,71.5L25.8,71.5C25.8,71.5,25.8,71.5,25.8,71.5z"/>
		<path class="st5" d="M43.4,53.7L43.4,53.7L40.7,51c-0.1-0.1-0.2-0.3-0.2-0.5c0,0.2,0.1,0.3,0.2,0.5L43.4,53.7z"/>
		<path class="st3" d="M48,50.2c0,0.1,0,0.1,0,0.2c0-0.2,0-0.4-0.1-0.5c0,0,0,0,0,0C47.9,50,48,50.1,48,50.2z"/>
		<path class="st2" d="M47.9,51c0.1-0.1,0.2-0.3,0.2-0.5c0,0,0-0.1,0-0.1c0-0.1,0-0.1,0-0.2c0-0.1,0-0.2-0.1-0.3c0,0,0,0,0,0
			c0,0,0,0,0,0c0.2,0,0.3-0.1,0.5-0.1c0.9-0.2,1.8-0.5,2.6-0.9c0,0,0,0,0,0c0,0,0,0,0,0c2.6,0.9,4.9,2.2,6.9,3.9
			c0,0,0.1,0.1,0.1,0.1c0.3,0.3,0.6,0.6,0.9,0.9c0.1,0.1,0.2,0.2,0.3,0.3c0.3,0.3,0.5,0.6,0.8,0.9c0.1,0.1,0.2,0.2,0.3,0.3
			c0.2,0.3,0.5,0.6,0.7,0.9c0.1,0.1,0.2,0.3,0.3,0.4c0,0,0,0,0,0.1h0c2.5,3.5,4,7.8,4,12.4H54.5h-6h0l-3.4-15.3L47.9,51z"/>
		<path class="st2" d="M27.2,56.5L27.2,56.5C27.2,56.5,27.3,56.5,27.2,56.5c0.1-0.2,0.2-0.3,0.3-0.4c0.2-0.3,0.5-0.6,0.7-0.9
			c0.1-0.1,0.2-0.2,0.3-0.3c0.3-0.3,0.5-0.6,0.8-0.9c0.1-0.1,0.2-0.2,0.3-0.3c0.3-0.3,0.6-0.6,0.9-0.9c0,0,0.1-0.1,0.1-0.1
			c2-1.7,4.4-3.1,6.9-3.9c0,0,0,0,0,0c0,0,0,0,0,0c0.8,0.4,1.7,0.7,2.6,0.9c0.2,0,0.3,0.1,0.5,0.1c0,0,0,0,0,0c0,0,0,0,0,0
			c-0.1,0.1-0.1,0.2-0.1,0.3c0,0.1,0,0.1,0,0.2c0,0,0,0.1,0,0.1c0,0.2,0.1,0.3,0.2,0.5l2.7,2.7L40.3,69h0h-6H23.2
			C23.2,64.3,24.7,60,27.2,56.5z"/>
		<path class="st3" d="M48.6,69h-8.3l3.4-15.3L41,51c-0.1-0.1-0.2-0.3-0.2-0.5c0,0,0-0.1,0-0.1c0-0.2,0-0.3,0.1-0.5
			c1.2,0.3,2.4,0.4,3.6,0.4c1.3,0,2.5-0.2,3.6-0.4c0.1,0.2,0.1,0.3,0.1,0.5c0,0,0,0.1,0,0.1c0,0.2-0.1,0.3-0.2,0.5l-2.7,2.7l0,0
			L48.6,69z"/>
		<g>
			<g>
				<path class="st3" d="M19.4,64.3V68h2c0.1,0.2,0.1,0.4,0.2,0.5L20.2,70l2.6,2.6l1.5-1.5c0.2,0.1,0.3,0.2,0.5,0.2v2.1h3.7v-2.1
					c0.2-0.1,0.4-0.1,0.5-0.2l1.5,1.5l2.6-2.6l-1.4-1.4c0.1-0.2,0.2-0.4,0.2-0.5h2v-3.7h-2c-0.1-0.2-0.1-0.4-0.2-0.6l1.4-1.4
					l-2.6-2.6l-1.4,1.4c-0.2-0.1-0.4-0.2-0.6-0.2v-2h-3.7v2c-0.2,0.1-0.4,0.1-0.6,0.2l-1.4-1.4l-2.6,2.6l1.4,1.4
					c-0.1,0.2-0.2,0.4-0.2,0.6H19.4z M23.9,66.1c0-1.9,2-3.4,4-2.5c0.6,0.3,1.1,0.7,1.3,1.3c0.5,1.1,0.2,2.2-0.4,3
					c-0.5,0.6-1.3,1-2.1,1c-0.9,0-1.6-0.4-2.1-1C24.2,67.4,23.9,66.8,23.9,66.1z"/>
			</g>
		</g>
	</g>
</g>
<g id="Capa_4">
</g>
</svg>
