<?xml version="1.0" encoding="utf-8"?>
<!-- Generator: Adobe Illustrator 22.0.1, SVG Export Plug-In . SVG Version: 6.00 Build 0)  -->
<svg version="1.1" xmlns="http://www.w3.org/2000/svg" xmlns:xlink="http://www.w3.org/1999/xlink" x="0px" y="0px"
	 viewBox="0 0 85 85" style="enable-background:new 0 0 85 85;" xml:space="preserve">
<style type="text/css">
	.st0{fill:#FFFFFF;stroke:#1A588E;stroke-miterlimit:10;}
	.st1{fill:#1A588E;stroke:#1A588E;stroke-miterlimit:10;}
	.st2{fill:#1A588E;}
	.st3{fill:#BB9E37;}
	.st4{fill:#FFFFFF;}
	.st5{fill:none;}
	.st6{fill:#3DBD37;stroke:#FFFFFF;stroke-width:3;stroke-miterlimit:10;}
	.st7{fill:#3DBD37;}
	.st8{fill:#CDD8DF;}
	.st9{fill:#DB3147;}
</style>
<g id="AAAAAA">
</g>
<g id="Apagado">
	<g>
		<g>
			<g>
				<g>
					<circle class="st0" cx="42.5" cy="31.9" r="15.4"/>
				</g>
			</g>
		</g>
	</g>
	<path class="st0" d="M57,63.5c0-0.1,0-0.2,0-0.3c0.1-2.5,1.6-4.6,3.8-5.6c-2.6-4.3-6.7-7.6-11.5-9.3c-2.1,0.9-4.4,1.4-6.8,1.4
		c-2.4,0-4.7-0.5-6.8-1.4c-8.5,2.8-14.6,10.8-14.6,20.2h38.3C58,67.4,57,65.6,57,63.5z"/>
</g>
<g id="Encendido_1_">
	<path class="st9" d="M68,61.4c-0.8-1.7-2.5-2.8-4.5-2.8c-2.7,0-4.9,2.1-5,4.8c0,0.1,0,0.1,0,0.2c0,2.8,2.2,5,5,5c2.8,0,5-2.2,5-5
		C68.5,62.8,68.3,62,68,61.4z"/>
</g>
<g id="Capa_4">
</g>
</svg>
