<?xml version="1.0" encoding="utf-8"?>
<!-- Generator: Adobe Illustrator 22.0.1, SVG Export Plug-In . SVG Version: 6.00 Build 0)  -->
<svg version="1.1" xmlns="http://www.w3.org/2000/svg" xmlns:xlink="http://www.w3.org/1999/xlink" x="0px" y="0px"
	 viewBox="0 0 85 85" style="enable-background:new 0 0 85 85;" xml:space="preserve">
<style type="text/css">
	.st0{fill:#013E5E;}
	.st1{fill:#1A588E;}
	.st2{fill:#BB9E37;}
	.st3{fill:#CDD8DF;}
	.st4{fill:#FFFFFF;}
	.st5{fill:#FFFFFF;stroke:#1A588E;stroke-miterlimit:10;}
	.st6{fill:none;}
	.st7{fill:#DB3147;}
	.st8{fill:#3DBD37;}
	.st9{fill:#1A588E;stroke:#1A588E;stroke-miterlimit:10;}
	.st10{fill:#3DBD37;stroke:#FFFFFF;stroke-width:3;stroke-miterlimit:10;}
	.st11{fill:#C5A303;}
	.st12{fill:#E6EBEF;}
</style>
<g id="Capa_1">
</g>
<g id="Capa_2">
</g>
<g id="AAAAAA">
</g>
<g id="Apagado">
</g>
<g id="Encendido_1_">
</g>
<g id="Grises">
	<g>
		<path class="st3" d="M55.6,37.3c0.6,1.6,1,3.4,1,5.2c0,3.5-1.3,6.6-3.3,9.1c-2.6,3-6.4,5-10.7,5c-4.3,0-8.2-1.9-10.7-5
			c-2.1-2.5-3.3-5.6-3.3-9.1c0-7.8,6.3-14.1,14.1-14.1c2,0,3.9,0.4,5.7,1.2l4.3-6.7c-3-1.5-6.4-2.4-10-2.4c-12.1,0-22,9.8-22,22
			c0,5.4,2,10.4,5.2,14.2c4,4.8,10,7.8,16.8,7.8c6.7,0,12.7-3,16.8-7.8c3.2-3.8,5.2-8.8,5.2-14.2c0-3.4-0.8-6.6-2.2-9.5L55.6,37.3z"
			/>
		<path class="st12" d="M55.6,37.3l6.7-4.3c-2.1-4.4-5.6-7.9-9.8-10.1l-4.3,6.7C51.6,31.1,54.2,33.9,55.6,37.3z"/>
	</g>
	<path class="st12" d="M55.6,37.3c0.6,1.6,1,3.4,1,5.2c0,3.5-1.3,6.6-3.3,9.1c-2.6,3-6.4,5-10.7,5c-4.3,0-8.2-1.9-10.7-5
		c-2.1-2.5-3.3-5.6-3.3-9.1c0-7.8,6.3-14.1,14.1-14.1c2,0,3.9,0.4,5.7,1.2l4.3-6.7c-3-1.5-6.4-2.4-10-2.4c-12.1,0-22,9.8-22,22
		c0,5.4,2,10.4,5.2,14.2c4,4.8,10,7.8,16.8,7.8c6.7,0,12.7-3,16.8-7.8c3.2-3.8,5.2-8.8,5.2-14.2c0-3.4-0.8-6.6-2.2-9.5L55.6,37.3z"
		/>
	<path class="st3" d="M55.6,37.3l6.7-4.3c-2.1-4.4-5.6-7.9-9.8-10.1l-4.3,6.7C51.6,31.1,54.2,33.9,55.6,37.3z"/>
</g>
</svg>
