<?xml version="1.0" encoding="utf-8"?>
<!-- Generator: Adobe Illustrator 22.0.1, SVG Export Plug-In . SVG Version: 6.00 Build 0)  -->
<svg version="1.1" xmlns="http://www.w3.org/2000/svg" xmlns:xlink="http://www.w3.org/1999/xlink" x="0px" y="0px"
	 viewBox="0 0 85 85" style="enable-background:new 0 0 85 85;" xml:space="preserve">
<style type="text/css">
	.st0{fill:#013E5E;}
	.st1{fill:#1A588E;}
	.st2{fill:#BB9E37;}
	.st3{fill:#CDD8DF;}
	.st4{fill:#FFFFFF;}
	.st5{fill:#FFFFFF;stroke:#1A588E;stroke-miterlimit:10;}
	.st6{fill:none;}
	.st7{fill:#DB3147;}
	.st8{fill:#3DBD37;}
	.st9{fill:#1A588E;stroke:#1A588E;stroke-miterlimit:10;}
	.st10{fill:#3DBD37;stroke:#FFFFFF;stroke-width:3;stroke-miterlimit:10;}
	.st11{fill:#C5A303;}
	.st12{fill:#E6EBEF;}
</style>
<g id="Capa_1">
</g>
<g id="Capa_2">
</g>
<g id="AAAAAA">
</g>
<g id="Apagado">
</g>
<g id="Encendido_1_">
	<path class="st1" d="M53.8,40.8c-1.3-1.3-3.4-1.9-6.3-1.9c-0.1,0-0.1,0-0.2,0h-6.1c-0.7,0-1.2-0.1-1.5-0.4
		c-0.3-0.3-0.4-0.7-0.4-1.3v-7.9c0-1.2,0.6-1.8,1.9-1.8h2.4c1.3,0,1.9,0.6,1.9,1.8v4.5h2h8.1v-5.9c0-4.9-2.7-7.5-8.1-7.7V14h-10v6.1
		c-5.5,0.2-8.3,2.8-8.3,7.7v10.2c0,5.3,2.8,7.9,8.3,7.9c0,0,0,0,0.1,0h6.2c0.7,0,1.2,0.1,1.5,0.4c0.3,0.3,0.4,0.7,0.4,1.3v8.1
		c0,1.2-0.6,1.8-1.9,1.8h-2.4c-1.3,0-1.9-0.6-1.9-1.8v-4.5h-2h-8.1v5.8c0,5,2.7,7.5,8.1,7.8v6.1h10V65c5.5-0.2,8.3-2.8,8.3-7.8V46.5
		C55.8,44,55.1,42.1,53.8,40.8z"/>
</g>
<g id="Grises">
</g>
</svg>
