<?xml version="1.0" encoding="utf-8"?>
<!-- Generator: Adobe Illustrator 22.0.1, SVG Export Plug-In . SVG Version: 6.00 Build 0)  -->
<svg version="1.1" xmlns="http://www.w3.org/2000/svg" xmlns:xlink="http://www.w3.org/1999/xlink" x="0px" y="0px"
	 viewBox="0 0 85 85" style="enable-background:new 0 0 85 85;" xml:space="preserve">
<style type="text/css">
	.st0{fill:#013E5E;}
	.st1{fill:#1A588E;}
	.st2{fill:#BB9E37;}
	.st3{fill:#CDD8DF;}
	.st4{fill:#FFFFFF;}
	.st5{display:none;}
	.st6{display:inline;}
	.st7{display:inline;fill:#1A588E;}
	.st8{fill:#E6EBEF;}
	.st9{fill:#C7A404;}
	.st10{fill:#FFFFFF;stroke:#1A588E;stroke-miterlimit:10;}
	.st11{fill:none;}
	.st12{fill:#DB3147;}
	.st13{fill:#3DBD37;}
	.st14{fill:#1A588E;stroke:#1A588E;stroke-miterlimit:10;}
</style>
<g id="Capa_1">
</g>
<g id="Capa_2">
</g>
<g id="_x31_" class="st5">
</g>
<g id="_x32_" class="st5">
</g>
<g id="_x33_" class="st5">
</g>
<g id="_x34_" class="st5">
</g>
<g id="_x35_" class="st5">
</g>
<g id="_x36_" class="st5">
</g>
<g id="_x37_" class="st5">
</g>
<g id="_x38_" class="st5">
</g>
<g id="_x39_" class="st5">
</g>
<g id="_x31_0" class="st5">
</g>
<g id="_x31_1" class="st5">
</g>
<g id="Capa_14" class="st5">
</g>
<g id="Capa_19" class="st5">
</g>
<g id="Capa_15" class="st5">
</g>
<g id="Capa_16" class="st5">
</g>
<g id="Capa_17" class="st5">
</g>
<g id="Capa_18" class="st5">
</g>
<g id="AAAAAA">
</g>
<g id="Apagado">
	<g>
		<g>
			<polygon class="st1" points="63.9,53.1 63.9,59 21.1,59 12.3,67.6 12.3,59 12.3,32.2 12.3,26.3 18.2,26.3 18.2,53.1 			"/>
		</g>
		<g>
			<polygon class="st1" points="63.9,50.2 21.1,50.2 21.1,26.3 21.1,17.5 72.7,17.5 72.7,50.2 			"/>
		</g>
		<rect x="31.7" y="39" class="st4" width="30.5" height="4"/>
		<rect x="31.7" y="31.8" class="st4" width="30.5" height="4"/>
		<rect x="31.7" y="24.7" class="st4" width="30.5" height="4"/>
	</g>
</g>
<g id="Encendido_1_">
	<polygon class="st2" points="63.9,53.1 63.9,59 21.1,59 12.3,67.6 12.3,59 12.3,32.2 12.3,26.3 18.2,26.3 18.2,53.1 	"/>
	<polygon class="st2" points="63.9,50.2 21.1,50.2 21.1,26.3 21.1,17.5 72.7,17.5 72.7,50.2 	"/>
	<rect x="31.7" y="39" class="st1" width="30.5" height="4"/>
	<rect x="31.7" y="31.8" class="st1" width="30.5" height="4"/>
	<rect x="31.7" y="24.7" class="st1" width="30.5" height="4"/>
</g>
</svg>
