<?xml version="1.0" encoding="utf-8"?>
<!-- Generator: Adobe Illustrator 22.0.1, SVG Export Plug-In . SVG Version: 6.00 Build 0)  -->
<svg version="1.1" xmlns="http://www.w3.org/2000/svg" xmlns:xlink="http://www.w3.org/1999/xlink" x="0px" y="0px"
	 viewBox="0 0 85 85" style="enable-background:new 0 0 85 85;" xml:space="preserve">
<style type="text/css">
	.st0{fill:#013E5E;}
	.st1{fill:#1A588E;}
	.st2{fill:#BB9E37;}
	.st3{fill:#CDD8DF;}
	.st4{fill:#FFFFFF;}
	.st5{display:none;}
	.st6{display:inline;}
	.st7{display:inline;fill:#1A588E;}
	.st8{fill:#E6EBEF;}
	.st9{fill:#C7A404;}
	.st10{fill:#FFFFFF;stroke:#1A588E;stroke-miterlimit:10;}
	.st11{fill:none;}
	.st12{fill:#DB3147;}
	.st13{fill:#3DBD37;}
	.st14{fill:#1A588E;stroke:#1A588E;stroke-miterlimit:10;}
</style>
<g id="Capa_1">
</g>
<g id="Capa_2">
</g>
<g id="_x31_" class="st5">
	<g class="st6">
		<g>
			<g>
				<path class="st1" d="M21.6-32.5H8.1c-0.5-1.5-1.1-2.9-1.7-4.3l9.5-9.5c0.7-0.7,0.7-2,0-2.7L-1.7-66.5c-0.7-0.7-2-0.7-2.7,0
					l-9.4,9.4c-1.4-0.7-2.9-1.3-4.3-1.8v-13.4c0-1.1-0.9-1.9-1.9-1.9h-24.8c-1.1,0-1.9,0.9-1.9,1.9v13.4c-1.5,0.5-2.9,1.1-4.3,1.8
					l-9.4-9.4c-0.7-0.7-2-0.7-2.7,0L-80.9-49c-0.7,0.7-0.7,2,0,2.7l9.5,9.5c-0.7,1.4-1.2,2.8-1.7,4.3h-13.5c-1.1,0-1.9,0.9-1.9,1.9
					v24.8c0,1.1,0.9,1.9,1.9,1.9h13.7c0.5,1.4,1.1,2.8,1.7,4.1l-9.7,9.7c-0.7,0.7-0.7,2,0,2.7l17.5,17.5c0.7,0.7,2,0.7,2.7,0
					l9.7-9.7c1.3,0.6,2.7,1.2,4,1.7v13.8c0,1.1,0.9,1.9,1.9,1.9h24.8c1.1,0,1.9-0.9,1.9-1.9V22.1c1.4-0.5,2.7-1,4-1.7l9.7,9.7
					c0.7,0.7,2,0.7,2.7,0l17.5-17.5c0.7-0.7,0.7-2,0-2.7L6.2,0.3c0.6-1.3,1.2-2.7,1.7-4.1h13.7c1.1,0,1.9-0.9,1.9-1.9v-24.8
					C23.5-31.6,22.7-32.5,21.6-32.5z M-16.2-4.6C-20.1,0.1-25.9,3-32.5,3s-12.4-2.9-16.3-7.6c-3.2-3.7-5.1-8.6-5.1-13.8
					c0-11.8,9.6-21.4,21.4-21.4s21.4,9.6,21.4,21.4C-11.1-13.1-13-8.3-16.2-4.6z"/>
			</g>
		</g>
	</g>
</g>
<g id="_x32_" class="st5">
	<g class="st6">
		<g>
			<path class="st1" d="M23.5-36.8l-46.6-37.3v18.6c0,0-69,0.3-65.2,93.2c0,0,9.1-61.5,65.2-55.9V0.5L23.5-36.8z"/>
		</g>
	</g>
</g>
<g id="_x33_" class="st5">
	<g class="st6">
		<g>
			<g>
				<polygon class="st2" points="-13.8,-26.7 -13.8,-74.1 -51.1,-74.1 -51.1,-26.7 -70,-26.7 -32.5,10.9 5,-26.7 				"/>
			</g>
		</g>
		<g>
			<g>
				<polygon class="st1" points="-88.4,0.5 -69.8,0.5 -69.8,19.1 4.8,19.1 4.8,0.5 23.4,0.5 23.4,37.8 -88.4,37.8 				"/>
			</g>
		</g>
	</g>
</g>
<g id="_x34_" class="st5">
	<g class="st6">
		<path class="st1" d="M23.4-17.9v-0.3l-37.3-55.9h-18.6h-18.6l-37.3,55.9v55.9h37.3V0.5c0-10.3,8.3-18.6,18.6-18.6
			s18.6,8.3,18.6,18.6v37.3h37.3v-42V-17.9L23.4-17.9z"/>
	</g>
</g>
<g id="_x35_" class="st5">
	<polygon class="st7" points="23.4,-27.5 -23.2,-27.5 -23.2,-74.1 -41.8,-74.1 -41.8,-27.5 -88.4,-27.5 -88.4,-8.8 -41.8,-8.8 
		-41.8,37.8 -23.2,37.8 -23.2,-8.8 23.4,-8.8 	"/>
</g>
<g id="_x36_" class="st5">
	<g class="st6">
		<path class="st2" d="M-19.3-7.8C-23.3-6-27.8-5-32.5-5s-9.2-1-13.2-2.8C-62.1-2.2-74,13.2-74,31.5H9C9,13.2-2.9-2.2-19.3-7.8z"/>
	</g>
</g>
<g id="_x37_" class="st5">
	<g class="st6">
		<g>
			<g>
				<g>
					<path class="st2" d="M-38.6-6h12.3C-10-6,4,3.9,10.2,18c8.3-9.7,13.2-22.3,13.2-36.1c0-30.9-25-55.9-55.9-55.9
						s-55.9,25-55.9,55.9c0,13.8,5,26.4,13.2,36.1C-69,3.9-55-6-38.6-6z"/>
				</g>
			</g>
			<g>
				<g>
					<path class="st1" d="M-32.5,37.8c17.1,0,32.4-7.7,42.7-19.8C4,3.9-10-6-26.4-6h-12.3C-55-6-69,3.9-75.2,18
						C-64.9,30.1-49.6,37.8-32.5,37.8z"/>
				</g>
			</g>
		</g>
	</g>
</g>
<g id="_x38_" class="st5">
	<g class="st6">
		<g>
			<polygon class="st1" points="-4.3,-36.8 -4.3,-55.4 -13.8,-55.4 -13.8,-36.8 -51.1,-36.8 -51.1,-55.4 -60.7,-55.4 -60.7,-36.8 
				-79.1,-36.8 -79.1,19.1 14.1,19.1 14.1,-36.8 			"/>
		</g>
	</g>
</g>
<g id="_x39_" class="st5">
	<g class="st6">
		<path class="st1" d="M23.4,31.2L-5.7,2C0.8-6,4.8-16.3,4.8-27.5c0-25.7-20.9-46.6-46.6-46.6s-46.6,20.9-46.6,46.6
			s20.9,46.6,46.6,46.6c11.2,0,21.5-4,29.5-10.5l29.2,29.2L23.4,31.2z M-79.3-27.5c0-20.7,16.8-37.5,37.5-37.5
			c20.7,0,37.5,16.8,37.5,37.5C-4.3-6.8-21.1,10-41.8,10C-62.5,10-79.3-6.8-79.3-27.5z"/>
	</g>
</g>
<g id="_x31_0" class="st5">
	<g class="st6">
		<g>
			<polygon class="st2" points="-88.4,-36.8 -41.8,-8.8 -13.8,37.8 23.4,-74.1 			"/>
		</g>
	</g>
	<g class="st6">
		<g>
			<polyline class="st1" points="-41.8,-8.8 -13.8,37.8 23.4,-74.1 			"/>
		</g>
	</g>
</g>
<g id="_x31_1" class="st5">
	<g class="st6">
		<g>
			<polygon class="st2" points="-32.5,-71.3 -13.6,-38.5 23.4,-30.7 -2,-2.6 2.1,35 -32.5,19.5 -67.1,35 -63,-2.6 -88.4,-30.7 
				-51.3,-38.5 			"/>
		</g>
	</g>
</g>
<g id="Capa_14" class="st5">
	<g class="st6">
		<path class="st9" d="M9.6-17.7h-27.5v-5c0-2-1.6-3.6-3.6-3.6c-1.4,0-2.6-1.1-2.6-2.6v-0.5c0-2-1.6-3.6-3.6-3.6h-5.1v-27.5
			c0-2-1.6-3.6-3.6-3.6h-7.1c-2,0-3.6,1.6-3.6,3.6V-33h-27.5c-2,0-3.6,1.6-3.6,3.6v7.1c0,2,1.6,3.6,3.6,3.6h27.5v5
			c0,2,1.6,3.6,3.6,3.6c1.4,0,2.6,1.1,2.6,2.6v0.5c0,2,1.6,3.6,3.6,3.6h5.1v27.5c0,2,1.6,3.6,3.6,3.6h7.1c2,0,3.6-1.6,3.6-3.6V-3.3
			H9.6c2,0,3.6-1.6,3.6-3.6v-7.1C13.2-16.1,11.6-17.7,9.6-17.7z M-27.7-31.9c1.4,0,2.6,1.1,2.6,2.6v0.5c0,2,1.6,3.6,3.6,3.6
			c1.4,0,2.6,1.1,2.6,2.6v5h-11.3c-0.7,0-1.3-0.3-1.7-0.7c-0.1-0.1-0.1-0.2-0.2-0.2c-0.4-0.4-0.6-1-0.6-1.6v-11.7H-27.7z
			 M-18.9-16.6v12.2h-12.2v-11.7c0-0.2,0-0.4-0.1-0.7c0.3,0.1,0.6,0.1,1,0.1H-18.9z M-33.8-19.6c-0.3-0.1-0.6-0.1-1-0.1h-11.3v-12.2
			h12.2v11.7C-33.9-20-33.8-19.8-33.8-19.6z M-46.1-60.5c0-1.4,1.1-2.6,2.6-2.6h7.1c1.4,0,2.6,1.1,2.6,2.6V-33h-12.2V-60.5z
			 M-74.6-19.7c-1.4,0-2.6-1.1-2.6-2.6v-7.1c0-1.4,1.1-2.6,2.6-2.6h27.5v12.2H-74.6z M-37.3-4.4c-1.4,0-2.6-1.1-2.6-2.6v-0.5
			c0-2-1.6-3.6-3.6-3.6c-1.4,0-2.6-1.1-2.6-2.6v-5h11.3c0.7,0,1.3,0.3,1.7,0.7c0.1,0.1,0.1,0.2,0.2,0.2c0.4,0.4,0.6,1,0.6,1.6v11.7
			H-37.3z M-18.9,24.2c0,1.4-1.1,2.6-2.6,2.6h-7.1c-1.4,0-2.6-1.1-2.6-2.6V-3.3h12.2V24.2z M12.2-6.9c0,1.4-1.1,2.6-2.6,2.6h-27.5
			v-12.2H9.6c1.4,0,2.6,1.1,2.6,2.5V-6.9z"/>
	</g>
</g>
<g id="Capa_19" class="st5">
	<g class="st6">
		<g>
			<path class="st0" d="M-73.4,17.6L-73.4,17.6c2.6,0,4.8,2.1,4.8,4.8v0.7c0,2.6,2.1,4.8,4.8,4.8H8.4c2.6,0,4.8-2.1,4.8-4.8v-5.5
				v-5.5c0-2.6-2.1-4.8-4.8-4.8H3.6h-56.6c-2.6,0-4.8-2.1-4.8-4.8v-62c0-2.6-2.1-4.8-4.8-4.8h-10.9c-2.6,0-4.8,2.1-4.8,4.8v72.3
				C-78.1,15.5-76,17.6-73.4,17.6z"/>
		</g>
	</g>
</g>
<g id="Capa_15" class="st5">
	<g class="st6">
	</g>
</g>
<g id="Capa_16" class="st5">
	<g class="st6">
		<g>
			<path class="st9" d="M-43.6-30l33.4-33.4c1.4-1.4,3.6-1.4,5,0l2.8,2.8l2.8,2.8c1.4,1.4,1.4,3.6,0,5L-2-50.3l-29.5,29.5
				c-1.4,1.4-1.4,3.6,0,5L0.8,16.4c1.4,1.4,1.4,3.6,0,5l-5.7,5.7c-1.4,1.4-3.6,1.4-5,0l-33-33"/>
		</g>
	</g>
</g>
<g id="Capa_17" class="st5">
	<g class="st6">
		<g>
			<path class="st9" d="M-65.2,15.3c-1.6,1.6-1.6,4.1,0,5.7l5.6,5.6c0.8,0.8,1.8,1.2,2.9,1.2c1,0,2.1-0.4,2.9-1.2L-32.3,5l21.7,21.7
				c0.8,0.8,1.8,1.2,2.9,1.2c1.1,0,2.1-0.4,2.9-1.2l5.6-5.6c0.8-0.8,1.2-1.8,1.2-2.9c0-1.1-0.4-2.1-1.2-2.9L-21.1-6.3l4-4
				c1.6-1.6,1.6-4.1,0-5.7l-0.4-0.4c-0.5-0.5-0.8-1.2-0.8-2c0-0.8,0.3-1.5,0.8-2c0.8-0.8,1.2-1.8,1.2-2.9c0-1.1-0.4-2.1-1.2-2.9
				l-4-4L0.2-51.7c1.6-1.6,1.6-4.1,0-5.7L-5.3-63c-1.6-1.6-4.1-1.6-5.7,0l-21.6,21.6L-54.3-63c-1.5-1.5-4.2-1.5-5.7,0l-5.6,5.6
				c-0.8,0.8-1.2,1.8-1.2,2.9c0,1.1,0.4,2.1,1.2,2.9l21.7,21.7l-4,4c-1.6,1.6-1.6,4.1,0,5.7l0.4,0.4c1.1,1.1,1.1,2.9,0,4
				c-0.8,0.8-1.2,1.8-1.2,2.9c0,1.1,0.4,2.1,1.2,2.9l4,4L-65.2,15.3z M-43.1-29.2l9.2,9.2c0.5,0.5,0.7,1.1,0.8,1.8
				c0,0.1,0,0.2,0,0.3c0,0.7-0.3,1.4-0.8,1.9l-8.9,8.9l-4-4c-0.5-0.5-0.8-1.2-0.8-2c0-0.8,0.3-1.5,0.8-2c1.6-1.6,1.6-4.1,0-5.7
				l-0.4-0.4c-1.1-1.1-1.1-2.9,0-4L-43.1-29.2z M-32.6-20.3c-0.1-0.2-0.3-0.4-0.5-0.6l-9.2-9.2l9.6-9.6l9.6,9.6l-8.9,8.9
				C-32.2-20.9-32.4-20.6-32.6-20.3z M-22.7-6.3l-9.6,9.6l-9.6-9.6l8.9-8.9c0.3-0.3,0.5-0.6,0.6-0.9c0.1,0.2,0.3,0.4,0.5,0.6
				L-22.7-6.3z M-33.5-40.5l-9.6,9.6l-21.7-21.7c-1.1-1.1-1.1-2.9,0-4l5.6-5.6c1.1-1.1,2.9-1.1,4,0L-33.5-40.5z M-22.2-30.9
				l-9.6-9.6l21.6-21.6c0.5-0.5,1.2-0.8,2-0.8c0.8,0,1.5,0.3,2,0.8l5.6,5.6c1.1,1.1,1.1,2.9,0,4L-22.2-30.9z M-21.9-7.1l-9.2-9.2
				c-0.5-0.5-0.7-1.1-0.8-1.8c0-0.1,0-0.2,0-0.3c0-0.7,0.3-1.4,0.8-1.9l8.9-8.9l4,4c0.5,0.5,0.8,1.2,0.8,2c0,0.8-0.3,1.5-0.8,2
				c-0.8,0.8-1.2,1.8-1.2,2.9c0,1.1,0.4,2.1,1.2,2.9l0.4,0.4c1.1,1.1,1.1,2.9,0,4L-21.9-7.1z M-31.5,4.2l9.6-9.6l21.7,21.7
				c0.5,0.5,0.8,1.2,0.8,2c0,0.8-0.3,1.5-0.8,2l-5.6,5.6c-1.1,1.1-2.9,1.1-4,0L-31.5,4.2z M-64.4,16.2l21.6-21.6l9.6,9.6l-21.6,21.6
				c-1.1,1.1-2.9,1.1-4,0l-5.6-5.6C-65.5,19.1-65.5,17.3-64.4,16.2z"/>
		</g>
	</g>
</g>
<g id="Capa_18" class="st5">
	<g class="st6">
	</g>
</g>
<g id="AAAAAA">
</g>
<g id="Apagado">
	<g>
		<g>
			<g>
				<path class="st1" d="M39.7,48.2h5.7c7.6,0,14.2,4.6,17.1,11.2c3.9-4.5,6.2-10.4,6.2-16.8c0-14.4-11.7-26.1-26.1-26.1
					S16.4,28.1,16.4,42.5c0,6.4,2.3,12.3,6.2,16.8C25.5,52.8,32,48.2,39.7,48.2z"/>
			</g>
		</g>
		<g>
			<g>
				<path class="st2" d="M42.5,68.6c8,0,15.1-3.6,19.9-9.2c-2.9-6.6-9.4-11.2-17.1-11.2h-5.7c-7.6,0-14.2,4.6-17.1,11.2
					C27.4,65,34.5,68.6,42.5,68.6z"/>
			</g>
		</g>
		<g>
			<circle class="st2" cx="42.5" cy="33.8" r="11.9"/>
		</g>
	</g>
</g>
<g id="Encendido_1_">
	<g>
		<path class="st2" d="M39.7,48.2h5.7c7.6,0,14.2,4.6,17.1,11.2c3.9-4.5,6.2-10.4,6.2-16.8c0-14.4-11.7-26.1-26.1-26.1
			S16.4,28.1,16.4,42.5c0,6.4,2.3,12.3,6.2,16.8C25.5,52.8,32,48.2,39.7,48.2z"/>
	</g>
	<g>
		<path class="st1" d="M42.5,68.6c8,0,15.1-3.6,19.9-9.2c-2.9-6.6-9.4-11.2-17.1-11.2h-5.7c-7.6,0-14.2,4.6-17.1,11.2
			C27.4,65,34.5,68.6,42.5,68.6z"/>
	</g>
	<circle class="st1" cx="42.5" cy="33.8" r="11.9"/>
</g>
</svg>
