<?xml version="1.0" encoding="utf-8"?>
<!-- Generator: Adobe Illustrator 22.0.1, SVG Export Plug-In . SVG Version: 6.00 Build 0)  -->
<svg version="1.1" xmlns="http://www.w3.org/2000/svg" xmlns:xlink="http://www.w3.org/1999/xlink" x="0px" y="0px"
	 viewBox="0 0 85 85" style="enable-background:new 0 0 85 85;" xml:space="preserve">
<style type="text/css">
	.st0{fill:#013E5E;}
	.st1{fill:#1A588E;}
	.st2{fill:#BB9E37;}
	.st3{fill:#CDD8DF;}
	.st4{fill:#FFFFFF;}
	.st5{display:none;}
	.st6{display:inline;}
	.st7{display:inline;fill:#1A588E;}
	.st8{fill:#E6EBEF;}
	.st9{fill:#C7A404;}
	.st10{fill:#FFFFFF;stroke:#1A588E;stroke-miterlimit:10;}
	.st11{fill:none;}
	.st12{fill:#DB3147;}
	.st13{fill:#3DBD37;}
	.st14{fill:#1A588E;stroke:#1A588E;stroke-miterlimit:10;}
</style>
<g id="Capa_1">
</g>
<g id="Capa_2">
</g>
<g id="_x31_" class="st5">
</g>
<g id="_x32_" class="st5">
</g>
<g id="_x33_" class="st5">
</g>
<g id="_x34_" class="st5">
</g>
<g id="_x35_" class="st5">
</g>
<g id="_x36_" class="st5">
</g>
<g id="_x37_" class="st5">
</g>
<g id="_x38_" class="st5">
</g>
<g id="_x39_" class="st5">
</g>
<g id="_x31_0" class="st5">
</g>
<g id="_x31_1" class="st5">
</g>
<g id="Capa_14" class="st5">
</g>
<g id="Capa_19" class="st5">
</g>
<g id="Capa_15" class="st5">
</g>
<g id="Capa_16" class="st5">
</g>
<g id="Capa_17" class="st5">
</g>
<g id="Capa_18" class="st5">
</g>
<g id="AAAAAA">
</g>
<g id="Apagado">
	<g>
		<g>
			<circle class="st4" cx="42.5" cy="45.5" r="10.4"/>
		</g>
		<path class="st1" d="M40.2,29.4c-5.4,0.4-10,1.7-13.8,3.9c-4.6,2.5-8,6.7-10,11.5c-0.1,0.2-0.2,0.4-0.2,0.6c0,0,0,0.1,0,0.1
			c3.7,11.2,14.2,18.7,26.2,18.7c0.4,0,0.7,0,1.1,0c0.6,0,1.2-0.1,1.7-0.2c11.5-1.3,19.5-7.3,23.8-18.5c0,0,0-0.1,0-0.1
			c-1.7-5.1-5.2-9.3-9.8-12C53.7,30.4,47,28.8,40.2,29.4z"/>
		<path class="st1" d="M70.9,35.6c-5.5-9.8-18-15.7-30.9-14.7c-12,1-20.6,5.9-25.7,14.5c-1.1,1.9-1.2,4.2-0.1,6.1l0.4,0.8l0.4-0.8
			c4.9-8.4,13.3-13.2,25-14.2C52.5,26.4,64.6,32,70,41.5l0.4,0.6l0.5-0.6C71.9,39.6,71.9,37.4,70.9,35.6z"/>
		<circle class="st4" cx="42.4" cy="46" r="11"/>
	</g>
</g>
<g id="Encendido_1_">
	<circle class="st2" cx="42.5" cy="45.5" r="10.4"/>
	<path class="st2" d="M40.2,29.4c-5.4,0.4-10,1.7-13.8,3.9c-4.6,2.5-8,6.7-10,11.5c-0.1,0.2-0.2,0.4-0.2,0.6c0,0,0,0.1,0,0.1
		c3.7,11.2,14.2,18.7,26.2,18.7c0.4,0,0.7,0,1.1,0c0.6,0,1.2-0.1,1.7-0.2c11.5-1.3,19.5-7.3,23.8-18.5c0,0,0-0.1,0-0.1
		c-1.7-5.1-5.2-9.3-9.8-12C53.7,30.4,47,28.8,40.2,29.4z"/>
	<path class="st2" d="M70.9,35.6c-5.5-9.8-18-15.7-30.9-14.7c-12,1-20.6,5.9-25.7,14.5c-1.1,1.9-1.2,4.2-0.1,6.1l0.4,0.8l0.4-0.8
		c4.9-8.4,13.3-13.2,25-14.2C52.5,26.4,64.6,32,70,41.5l0.4,0.6l0.5-0.6C71.9,39.6,71.9,37.4,70.9,35.6z"/>
	<circle class="st1" cx="42.4" cy="46" r="11"/>
</g>
</svg>
