<?xml version="1.0" encoding="utf-8"?>
<!-- Generator: Adobe Illustrator 22.0.1, SVG Export Plug-In . SVG Version: 6.00 Build 0)  -->
<svg version="1.1" xmlns="http://www.w3.org/2000/svg" xmlns:xlink="http://www.w3.org/1999/xlink" x="0px" y="0px"
	 viewBox="0 0 85 85" style="enable-background:new 0 0 85 85;" xml:space="preserve">
<style type="text/css">
	.st0{fill:#013E5E;}
	.st1{fill:#1A588E;}
	.st2{fill:#BB9E37;}
	.st3{fill:#CDD8DF;}
	.st4{fill:#FFFFFF;}
	.st5{display:none;}
	.st6{display:inline;}
	.st7{display:inline;fill:#1A588E;}
	.st8{fill:#E6EBEF;}
	.st9{fill:#C7A404;}
	.st10{fill:#FFFFFF;stroke:#1A588E;stroke-miterlimit:10;}
	.st11{fill:none;}
	.st12{fill:#DB3147;}
	.st13{fill:#3DBD37;}
	.st14{fill:#1A588E;stroke:#1A588E;stroke-miterlimit:10;}
</style>
<g id="Capa_1">
</g>
<g id="Capa_2">
</g>
<g id="_x31_" class="st5">
</g>
<g id="_x32_" class="st5">
</g>
<g id="_x33_" class="st5">
</g>
<g id="_x34_" class="st5">
</g>
<g id="_x35_" class="st5">
</g>
<g id="_x36_" class="st5">
</g>
<g id="_x37_" class="st5">
</g>
<g id="_x38_" class="st5">
</g>
<g id="_x39_" class="st5">
</g>
<g id="_x31_0" class="st5">
</g>
<g id="_x31_1" class="st5">
</g>
<g id="Capa_14" class="st5">
</g>
<g id="Capa_19" class="st5">
</g>
<g id="Capa_15" class="st5">
</g>
<g id="Capa_16" class="st5">
</g>
<g id="Capa_17" class="st5">
</g>
<g id="Capa_18" class="st5">
</g>
<g id="AAAAAA">
</g>
<g id="Apagado">
	<polygon class="st10" points="14.2,17.7 14.2,62.9 64.1,62.9 66.4,59.7 66.4,17.7 	"/>
	<rect x="19.7" y="24.2" class="st10" width="13" height="13"/>
	<rect x="19.7" y="40.5" class="st10" width="13" height="13"/>
	<polygon class="st1" points="33.6,22.9 31,25.5 23.8,32.7 18.9,27.7 18.3,28.3 18.1,28.4 16.2,30.4 23.9,38.1 24.7,37.3 31,31 
		33.5,28.5 36.3,25.7 	"/>
	<g>
		<g>
			
				<rect x="55.9" y="56" transform="matrix(0.7071 -0.7071 0.7071 0.7071 -23.6807 62.1276)" class="st1" width="14.4" height="7.3"/>
		</g>
		<g>
			<polygon class="st10" points="64.4,50.8 45.6,31.9 45.2,31.9 35.3,31.8 35.4,42.1 54.3,60.9 			"/>
		</g>
	</g>
</g>
<g id="Encendido_1_">
</g>
</svg>
