<?xml version="1.0" encoding="utf-8"?>
<!-- Generator: Adobe Illustrator 22.0.1, SVG Export Plug-In . SVG Version: 6.00 Build 0)  -->
<svg version="1.1" xmlns="http://www.w3.org/2000/svg" xmlns:xlink="http://www.w3.org/1999/xlink" x="0px" y="0px"
	 viewBox="0 0 85 85" style="enable-background:new 0 0 85 85;" xml:space="preserve">
<style type="text/css">
	.st0{fill:#013E5E;}
	.st1{fill:#1A588E;}
	.st2{fill:#BB9E37;}
	.st3{fill:#CDD8DF;}
	.st4{fill:#FFFFFF;}
	.st5{display:none;}
	.st6{display:inline;}
	.st7{display:inline;fill:#1A588E;}
	.st8{fill:#E6EBEF;}
	.st9{fill:#C7A404;}
	.st10{fill:#FFFFFF;stroke:#1A588E;stroke-miterlimit:10;}
	.st11{fill:none;}
	.st12{fill:#DB3147;}
	.st13{fill:#3DBD37;}
	.st14{fill:#1A588E;stroke:#1A588E;stroke-miterlimit:10;}
</style>
<g id="Capa_1">
</g>
<g id="Capa_2">
</g>
<g id="_x31_" class="st5">
</g>
<g id="_x32_" class="st5">
</g>
<g id="_x33_" class="st5">
</g>
<g id="_x34_" class="st5">
</g>
<g id="_x35_" class="st5">
</g>
<g id="_x36_" class="st5">
</g>
<g id="_x37_" class="st5">
</g>
<g id="_x38_" class="st5">
</g>
<g id="_x39_" class="st5">
</g>
<g id="_x31_0" class="st5">
</g>
<g id="_x31_1" class="st5">
</g>
<g id="Capa_14" class="st5">
</g>
<g id="Capa_19" class="st5">
</g>
<g id="Capa_15" class="st5">
</g>
<g id="Capa_16" class="st5">
</g>
<g id="Capa_17" class="st5">
</g>
<g id="Capa_18" class="st5">
</g>
<g id="AAAAAA">
</g>
<g id="Apagado">
	<g>
		<g>
			<path class="st1" d="M61.6,35.8c-0.2-0.7-0.5-1.4-0.8-2l5.1-5.1l-9.5-9.5l-5.1,5.1c-0.7-0.3-1.3-0.6-2-0.8v-7.2H35.8v7.2
				c-0.7,0.2-1.4,0.5-2,0.8l-5.1-5.1l-9.5,9.5l5.1,5.1c-0.3,0.6-0.6,1.3-0.8,2h-7.2v13.4h7.3c0.2,0.7,0.5,1.3,0.8,1.9l-5.2,5.2
				l9.5,9.5l5.2-5.2c0.6,0.3,1.3,0.6,1.9,0.8v7.4h13.4v-7.4c0.6-0.2,1.3-0.5,1.9-0.8l5.2,5.2l9.5-9.5l-5.2-5.2
				c0.3-0.6,0.6-1.3,0.8-1.9h7.3V35.8H61.6z M50.2,48.9c-1.8,2.2-4.6,3.6-7.7,3.6c-3.1,0-5.8-1.4-7.7-3.6c-2.3-2.7-3.2-6.7-1.5-10.8
				c0.9-2.1,2.6-3.9,4.8-4.8c7.3-3.2,14.4,2.2,14.4,9.1C52.6,44.9,51.7,47.2,50.2,48.9z"/>
		</g>
	</g>
</g>
<g id="Encendido_1_">
</g>
</svg>
