<?xml version="1.0" encoding="utf-8"?>
<!-- Generator: Adobe Illustrator 22.0.1, SVG Export Plug-In . SVG Version: 6.00 Build 0)  -->
<svg version="1.1" xmlns="http://www.w3.org/2000/svg" xmlns:xlink="http://www.w3.org/1999/xlink" x="0px" y="0px"
	 viewBox="0 0 85 85" style="enable-background:new 0 0 85 85;" xml:space="preserve">
<style type="text/css">
	.st0{fill:#013E5E;}
	.st1{fill:#1A588E;}
	.st2{fill:#BB9E37;}
	.st3{fill:#CDD8DF;}
	.st4{fill:#FFFFFF;}
	.st5{fill:#FFFFFF;stroke:#1A588E;stroke-miterlimit:10;}
	.st6{fill:none;}
	.st7{fill:#DB3147;}
	.st8{fill:#3DBD37;}
	.st9{fill:#1A588E;stroke:#1A588E;stroke-miterlimit:10;}
	.st10{fill:#3DBD37;stroke:#FFFFFF;stroke-width:3;stroke-miterlimit:10;}
	.st11{fill:#C5A303;}
	.st12{fill:#E6EBEF;}
</style>
<g id="Capa_1">
</g>
<g id="Capa_2">
</g>
<g id="AAAAAA">
</g>
<g id="Apagado">
</g>
<g id="Encendido_1_">
</g>
<g id="Grises">
	<g>
		<g>
			<path class="st12" d="M49.3,55.9c-2.1,0.9-4.4,1.4-6.8,1.4c-2.4,0-4.7-0.5-6.8-1.4c-8.5,2.8-14.6,10.8-14.6,20.2h42.7
				C63.9,66.7,57.8,58.7,49.3,55.9z"/>
		</g>
		<path class="st12" d="M56.2,32.2C56.2,32.2,56.2,32.2,56.2,32.2l-0.1-4.8l-12.9,5.9l-0.7,0.3l0,0l0,0l-0.7-0.3L29,27.4v4.8
			c0,0-0.1,0-0.1-0.1c-1.1,2.1-1.8,4.6-1.8,7.2c0,8.5,6.9,15.4,15.4,15.4S58,47.9,58,39.3C58,36.8,57.3,34.4,56.2,32.2z"/>
		<path class="st12" d="M63.2,22.3l2-0.9l2.3-1.1L43.2,9.3L42.5,9l0,0l0,0l-0.7,0.3L17.6,20.4l2.3,1.1l9.1,4.2l12.8,5.9l0.7,0.3l0,0
			l0,0l0.7-0.3l12.9-5.9l6.3-2.9v2.1v4.7c-0.6,0.2-1.1,0.9-1.1,1.7h0.2l-0.4,4.7h0.5H64h0.5l-0.4-4.7h0.2c0-0.8-0.5-1.5-1.1-1.7v-5
			V22.3z"/>
	</g>
</g>
</svg>
