<?xml version="1.0" encoding="utf-8"?>
<!-- Generator: Adobe Illustrator 22.0.1, SVG Export Plug-In . SVG Version: 6.00 Build 0)  -->
<svg version="1.1" xmlns="http://www.w3.org/2000/svg" xmlns:xlink="http://www.w3.org/1999/xlink" x="0px" y="0px"
	 viewBox="0 0 85 85" style="enable-background:new 0 0 85 85;" xml:space="preserve">
<style type="text/css">
	.st0{fill:#FFFFFF;stroke:#1A588E;stroke-miterlimit:10;}
	.st1{fill:#1A588E;stroke:#1A588E;stroke-miterlimit:10;}
	.st2{fill:#1A588E;}
	.st3{fill:#BB9E37;}
	.st4{fill:#FFFFFF;}
	.st5{fill:none;}
	.st6{fill:#3DBD37;stroke:#FFFFFF;stroke-width:3;stroke-miterlimit:10;}
	.st7{fill:#3DBD37;}
	.st8{fill:#CDD8DF;}
	.st9{fill:#DB3147;}
	.st10{fill:#C5A303;}
	.st11{fill:#013E5E;}
	.st12{fill:url(#SVGID_1_);}
	.st13{fill:url(#SVGID_2_);}
</style>
<g id="AAAAAA">
</g>
<g id="Apagado">
</g>
<g id="Encendido_1_">
	<g>
		<g>
			<path class="st2" d="M49.3,58.6c-2.1,0.9-4.4,1.4-6.8,1.4c-2.4,0-4.7-0.5-6.8-1.4c-8.5,2.8-14.6,10.8-14.6,20.2h42.7
				C63.9,69.4,57.8,61.5,49.3,58.6z"/>
		</g>
		<g>
			<g>
				<g>
					<g>
						<circle class="st2" cx="42.5" cy="42.1" r="15.4"/>
					</g>
				</g>
			</g>
		</g>
	</g>
	<g>
		<path class="st6" d="M67.8,71.6c-0.8-1.7-2.5-2.8-4.5-2.8c-2.7,0-4.9,2.1-5,4.8c0,0.1,0,0.1,0,0.2c0,2.8,2.2,5,5,5
			c2.8,0,5-2.2,5-5C68.3,73,68.1,72.3,67.8,71.6z"/>
		<path class="st7" d="M67.8,71.6c-0.8-1.7-2.5-2.8-4.5-2.8c-2.7,0-4.9,2.1-5,4.8c0,0.1,0,0.1,0,0.2c0,2.8,2.2,5,5,5
			c2.8,0,5-2.2,5-5C68.3,73,68.1,72.3,67.8,71.6z"/>
	</g>
	<circle class="st7" cx="63.3" cy="73.8" r="5"/>
	<polygon class="st7" points="66.2,70.7 62.4,74.5 60.5,72.5 59.3,73.8 62.4,77 67.4,71.9 	"/>
	<g>
		<path class="st4" d="M42.5,29.8L42.5,29.8L42.5,29.8l-0.8-0.4L27,22.7v9.9c0,2.8,7,5.1,15.5,5.1c8.6,0,15.5-2.3,15.5-5.1v-9.9
			l-14.7,6.8L42.5,29.8z"/>
		<path class="st2" d="M42.5,36.4L42.5,36.4L42.5,36.4l-0.7-0.3L29,30.2v8.6c0,2.5,6.1,4.5,13.6,4.5c7.5,0,13.6-2,13.6-4.5v-8.6
			l-12.9,5.9L42.5,36.4z"/>
		<path class="st2" d="M63.2,25.1l2-0.9l2.3-1.1L43.2,12l-0.7-0.3l0,0l0,0L41.8,12L17.6,23.1l2.3,1.1l9.1,4.2l12.8,5.9l0.7,0.3l0,0
			l0,0l0.7-0.3l12.9-5.9l6.3-2.9v2.1v4.7c-0.6,0.2-1.1,0.9-1.1,1.7h0.2l-0.4,4.7h0.5H64h0.5l-0.4-4.7h0.2c0-0.8-0.5-1.5-1.1-1.7v-5
			V25.1z"/>
	</g>
</g>
<g id="Capa_4">
</g>
</svg>
