<?xml version="1.0" encoding="utf-8"?>
<!-- Generator: Adobe Illustrator 22.0.1, SVG Export Plug-In . SVG Version: 6.00 Build 0)  -->
<svg version="1.1" xmlns="http://www.w3.org/2000/svg" xmlns:xlink="http://www.w3.org/1999/xlink" x="0px" y="0px"
	 viewBox="0 0 85 85" style="enable-background:new 0 0 85 85;" xml:space="preserve">
<style type="text/css">
	.st0{fill:#013E5E;}
	.st1{fill:#1A588E;}
	.st2{fill:#BB9E37;}
	.st3{fill:#CDD8DF;}
	.st4{fill:#FFFFFF;}
	.st5{fill:#FFFFFF;stroke:#1A588E;stroke-miterlimit:10;}
	.st6{fill:none;}
	.st7{fill:#DB3147;}
	.st8{fill:#3DBD37;}
	.st9{fill:#1A588E;stroke:#1A588E;stroke-miterlimit:10;}
	.st10{fill:#3DBD37;stroke:#FFFFFF;stroke-width:3;stroke-miterlimit:10;}
	.st11{fill:#C5A303;}
	.st12{fill:#E6EBEF;}
</style>
<g id="Capa_1">
</g>
<g id="Capa_2">
</g>
<g id="AAAAAA">
</g>
<g id="Apagado">
</g>
<g id="Encendido_1_">
</g>
<g id="Grises">
	<g>
		<g>
			<rect x="14.3" y="30.4" class="st3" width="52" height="36.3"/>
		</g>
		<g>
			<g>
				<g>
					<rect x="20" y="35.3" class="st4" width="11.9" height="11.9"/>
				</g>
			</g>
		</g>
		<g>
			<polygon class="st12" points="59.5,17.5 56.3,17.5 47.5,17.5 47.5,14.3 33.2,14.3 33.2,17.5 24.7,17.5 20,17.5 14.3,17.5 
				14.3,28.9 66.4,28.9 66.4,17.5 			"/>
		</g>
		<g>
			<rect x="20" y="59.1" class="st4" width="40.8" height="4"/>
		</g>
		<g>
			<rect x="20" y="51.8" class="st4" width="40.8" height="4"/>
		</g>
		<g>
			<g>
				<path class="st3" d="M27.8,42.9c-0.6,0.3-1.2,0.4-1.9,0.4c-0.7,0-1.3-0.1-1.9-0.4c-2.3,0.8-4,3-4,5.6h11.9
					C31.9,45.9,30.2,43.7,27.8,42.9z"/>
			</g>
			<g>
				<g>
					<g>
						<g>
							<circle class="st3" cx="25.9" cy="38.3" r="4.3"/>
						</g>
					</g>
				</g>
			</g>
		</g>
		<g>
			<g>
				
					<rect x="55.8" y="59.4" transform="matrix(0.7071 -0.7071 0.7071 0.7071 -26.16 63.0553)" class="st12" width="14.4" height="7.3"/>
			</g>
			<g>
				<polygon class="st12" points="64.3,54.2 45.5,35.4 45.5,35.4 35.2,35.3 35.3,45.6 35.3,45.6 35.3,45.6 35.3,45.6 35.3,45.6 
					54.1,64.4 				"/>
			</g>
		</g>
	</g>
	<rect x="14.3" y="30.4" class="st12" width="52" height="36.3"/>
	<g>
		<g>
			<rect x="20" y="35.3" class="st3" width="11.9" height="11.9"/>
		</g>
	</g>
	<polygon class="st3" points="59.5,17.5 56.3,17.5 47.5,17.5 47.5,14.3 33.2,14.3 33.2,17.5 24.7,17.5 20,17.5 14.3,17.5 14.3,28.9 
		66.4,28.9 66.4,17.5 	"/>
	<rect x="20" y="59.1" class="st3" width="40.8" height="4"/>
	<rect x="20" y="51.8" class="st3" width="40.8" height="4"/>
	<g>
		<path class="st12" d="M27.8,42.9c-0.6,0.3-1.2,0.4-1.9,0.4c-0.7,0-1.3-0.1-1.9-0.4c-2.3,0.8-4,3-4,5.6h11.9
			C31.9,45.9,30.2,43.7,27.8,42.9z"/>
	</g>
	<g>
		<g>
			<g>
				<g>
					<circle class="st12" cx="25.9" cy="38.3" r="4.3"/>
				</g>
			</g>
		</g>
	</g>
	<g>
		
			<rect x="55.8" y="59.4" transform="matrix(0.7071 -0.7071 0.7071 0.7071 -26.16 63.0553)" class="st3" width="14.4" height="7.3"/>
	</g>
	<g>
		<polygon class="st3" points="64.3,54.2 45.5,35.4 45.5,35.4 35.2,35.3 35.3,45.6 35.3,45.6 35.3,45.6 35.3,45.6 35.3,45.6 
			54.1,64.4 		"/>
	</g>
</g>
</svg>
