<?xml version="1.0" encoding="utf-8"?>
<!-- Generator: Adobe Illustrator 22.0.1, SVG Export Plug-In . SVG Version: 6.00 Build 0)  -->
<svg version="1.1" xmlns="http://www.w3.org/2000/svg" xmlns:xlink="http://www.w3.org/1999/xlink" x="0px" y="0px"
	 viewBox="0 0 85 85" style="enable-background:new 0 0 85 85;" xml:space="preserve">
<style type="text/css">
	.st0{fill:#013E5E;}
	.st1{fill:#1A588E;}
	.st2{fill:#BB9E37;}
	.st3{fill:#CDD8DF;}
	.st4{fill:#FFFFFF;}
	.st5{display:none;}
	.st6{display:inline;}
	.st7{display:inline;fill:#1A588E;}
	.st8{fill:#E6EBEF;}
	.st9{fill:#C7A404;}
	.st10{fill:#FFFFFF;stroke:#1A588E;stroke-miterlimit:10;}
	.st11{fill:none;}
	.st12{fill:#DB3147;}
	.st13{fill:#3DBD37;}
	.st14{fill:#1A588E;stroke:#1A588E;stroke-miterlimit:10;}
</style>
<g id="Capa_1">
</g>
<g id="Capa_2">
</g>
<g id="_x31_" class="st5">
</g>
<g id="_x32_" class="st5">
</g>
<g id="_x33_" class="st5">
</g>
<g id="_x34_" class="st5">
</g>
<g id="_x35_" class="st5">
</g>
<g id="_x36_" class="st5">
</g>
<g id="_x37_" class="st5">
</g>
<g id="_x38_" class="st5">
</g>
<g id="_x39_" class="st5">
</g>
<g id="_x31_0" class="st5">
</g>
<g id="_x31_1" class="st5">
</g>
<g id="Capa_14" class="st5">
</g>
<g id="Capa_19" class="st5">
</g>
<g id="Capa_15" class="st5">
</g>
<g id="Capa_16" class="st5">
</g>
<g id="Capa_17" class="st5">
</g>
<g id="Capa_18" class="st5">
</g>
<g id="AAAAAA">
</g>
<g id="Apagado">
	<g>
		<path class="st1" d="M67.5,38.4c-1.1-0.6-2.3-0.9-3.5-1.4c0.6-3.2-0.4-5.9-3.2-7.8c-2.8-1.8-5.7-1.9-8.6-0.1
			c-0.9-2.3-2.2-4.3-4-5.9c-1.8-1.6-3.9-2.7-6.3-3.3c-2.4-0.5-4.7-0.5-7.1,0.2c-3,0.9-5.5,2.5-7.4,5c-2.7,3.6-3.5,7.6-2.5,12
			c-1.1,0-2.2-0.1-3.3,0c-5.2,0.5-9.5,5-9.8,10.1c-0.3,6.4,4.4,11.5,10.8,11.7c4.9,0.1,9.8,0,14.7,0c8.4,0,16.7,0,25.1,0
			c5,0,9.3-3.6,10.4-8.3C74.1,45.8,71.9,40.8,67.5,38.4z"/>
		<g>
			<polygon class="st2" points="35.7,48.1 35.7,65.5 49.3,65.5 49.3,48.1 56.2,48.1 42.5,34.4 28.8,48.1 			"/>
		</g>
	</g>
</g>
<g id="Encendido_1_">
</g>
</svg>
