<?xml version="1.0" encoding="utf-8"?>
<!-- Generator: Adobe Illustrator 22.0.1, SVG Export Plug-In . SVG Version: 6.00 Build 0)  -->
<svg version="1.1" xmlns="http://www.w3.org/2000/svg" xmlns:xlink="http://www.w3.org/1999/xlink" x="0px" y="0px"
	 viewBox="0 0 85 85" style="enable-background:new 0 0 85 85;" xml:space="preserve">
<style type="text/css">
	.st0{fill:#FFFFFF;stroke:#1A588E;stroke-miterlimit:10;}
	.st1{fill:#1A588E;stroke:#1A588E;stroke-miterlimit:10;}
	.st2{fill:#1A588E;}
	.st3{fill:#BB9E37;}
	.st4{fill:#FFFFFF;}
	.st5{fill:none;}
	.st6{fill:#3DBD37;stroke:#FFFFFF;stroke-width:3;stroke-miterlimit:10;}
	.st7{fill:#3DBD37;}
	.st8{fill:#CDD8DF;}
	.st9{fill:#DB3147;}
</style>
<g id="AAAAAA">
</g>
<g id="Apagado">
</g>
<g id="Encendido_1_">
	<g>
		<path class="st3" d="M27.2,32.4L27.2,32.4c1-7.6,7.5-13.5,15.3-13.5s14.3,5.9,15.3,13.5c0.1,0.7,0.1,1.3,0.1,2c0,0.1,0,0.2,0,0.3
			h0c-0.1,8.4-7,15.2-15.5,15.2s-15.3-6.8-15.5-15.2h0c0-0.1,0-0.2,0-0.3C27.1,33.8,27.1,33.1,27.2,32.4z"/>
		<g>
			<path class="st3" d="M46,53.1c0.1-0.1,0.2-0.3,0.2-0.5c0,0,0-0.1,0-0.1c0-0.1,0-0.1,0-0.2c0-0.1,0-0.2-0.1-0.3c0,0,0,0,0,0
				c0,0,0,0,0,0c0.2,0,0.3-0.1,0.5-0.1c0.9-0.2,1.8-0.5,2.7-0.9c0,0,0,0,0,0c0,0,0,0,0,0c2.6,0.9,5,2.2,7,4c0,0,0.1,0.1,0.1,0.1
				c0.3,0.3,0.6,0.6,0.9,0.9c0.1,0.1,0.2,0.2,0.3,0.3c0.3,0.3,0.5,0.6,0.8,0.9c0.1,0.1,0.2,0.2,0.3,0.4c0.2,0.3,0.5,0.6,0.7,0.9
				c0.1,0.1,0.2,0.3,0.3,0.4c0,0,0,0,0,0.1h0c2.6,3.5,4.1,7.8,4.1,12.5H52.7h-6h0l-3.4-15.4L46,53.1z"/>
		</g>
		<g>
			<path class="st3" d="M25.2,58.7L25.2,58.7C25.2,58.7,25.2,58.7,25.2,58.7c0.1-0.2,0.2-0.3,0.3-0.4c0.2-0.3,0.5-0.6,0.7-0.9
				c0.1-0.1,0.2-0.2,0.3-0.4c0.3-0.3,0.5-0.6,0.8-0.9c0.1-0.1,0.2-0.2,0.3-0.3c0.3-0.3,0.6-0.6,0.9-0.9c0,0,0.1-0.1,0.1-0.1
				c2-1.7,4.4-3.1,7-4c0,0,0,0,0,0c0,0,0,0,0,0c0.9,0.4,1.8,0.7,2.7,0.9c0.2,0,0.3,0.1,0.5,0.1c0,0,0,0,0,0c0,0,0,0,0,0
				c-0.1,0.1-0.1,0.2-0.1,0.3c0,0.1,0,0.1,0,0.2c0,0,0,0.1,0,0.1c0,0.2,0.1,0.3,0.2,0.5l2.7,2.7l-3.4,15.4h0h-6H21.1
				C21.1,66.6,22.6,62.2,25.2,58.7z"/>
		</g>
		<g>
			<path class="st2" d="M46.7,71.3h-8.4l3.4-15.4L39,53.1c-0.1-0.1-0.2-0.3-0.2-0.5c0,0,0-0.1,0-0.1c0-0.2,0-0.4,0.1-0.5
				c1.2,0.3,2.4,0.4,3.7,0.4c1.3,0,2.5-0.2,3.7-0.4c0.1,0.2,0.1,0.3,0.1,0.5c0,0,0,0.1,0,0.1c0,0.2-0.1,0.3-0.2,0.5l-2.7,2.7l0,0
				L46.7,71.3z"/>
		</g>
		
			<rect x="28.1" y="62.4" transform="matrix(-1 -4.489754e-11 4.489754e-11 -1 62.1072 127.7278)" class="st2" width="5.9" height="3"/>
		<polygon class="st4" points="32.4,60 32.4,60.4 32.4,60.7 32.4,62 30.9,62 30.9,60.7 30.9,60.4 30.9,60 		"/>
		<polygon class="st4" points="30.3,60 30.3,60.4 30.3,60.7 30.3,62 28.8,62 28.8,60.7 28.8,60.4 28.8,60 		"/>
	</g>
</g>
<g id="Capa_4">
</g>
</svg>
