<?xml version="1.0" encoding="utf-8"?>
<!-- Generator: Adobe Illustrator 22.0.1, SVG Export Plug-In . SVG Version: 6.00 Build 0)  -->
<svg version="1.1" xmlns="http://www.w3.org/2000/svg" xmlns:xlink="http://www.w3.org/1999/xlink" x="0px" y="0px"
	 viewBox="0 0 85 85" style="enable-background:new 0 0 85 85;" xml:space="preserve">
<style type="text/css">
	.st0{fill:#013E5E;}
	.st1{fill:#1A588E;}
	.st2{fill:#BB9E37;}
	.st3{fill:#CDD8DF;}
	.st4{fill:#FFFFFF;}
	.st5{display:none;}
	.st6{display:inline;}
	.st7{display:inline;fill:#1A588E;}
	.st8{fill:#E6EBEF;}
	.st9{fill:#C7A404;}
	.st10{fill:#FFFFFF;stroke:#1A588E;stroke-miterlimit:10;}
	.st11{fill:none;}
	.st12{fill:#DB3147;}
	.st13{fill:#3DBD37;}
	.st14{fill:#1A588E;stroke:#1A588E;stroke-miterlimit:10;}
</style>
<g id="Capa_1">
</g>
<g id="Capa_2">
</g>
<g id="_x31_" class="st5">
</g>
<g id="_x32_" class="st5">
</g>
<g id="_x33_" class="st5">
</g>
<g id="_x34_" class="st5">
</g>
<g id="_x35_" class="st5">
</g>
<g id="_x36_" class="st5">
</g>
<g id="_x37_" class="st5">
</g>
<g id="_x38_" class="st5">
</g>
<g id="_x39_" class="st5">
</g>
<g id="_x31_0" class="st5">
</g>
<g id="_x31_1" class="st5">
</g>
<g id="Capa_14" class="st5">
</g>
<g id="Capa_19" class="st5">
</g>
<g id="Capa_15" class="st5">
</g>
<g id="Capa_16" class="st5">
</g>
<g id="Capa_17" class="st5">
</g>
<g id="Capa_18" class="st5">
</g>
<g id="AAAAAA">
</g>
<g id="Apagado">
	<g>
		<circle class="st10" cx="42.5" cy="45.6" r="15.6"/>
	</g>
	<path class="st10" d="M62.3,36.3c-2.1-4.4-5.6-7.9-9.8-10.1c-2.5-1.3-5.2-2.1-8.1-2.3v-2.1h4.1v-4.5H36.6v4.5h4.1v2.1
		c-11.3,0.9-20.1,10.4-20.1,21.9c0,5.4,2,10.4,5.2,14.2c4,4.8,10,7.8,16.8,7.8c6.7,0,12.7-3,16.8-7.8c3.2-3.8,5.2-8.8,5.2-14.2
		C64.5,42.4,63.7,39.2,62.3,36.3z M51.7,35.1l-1.4,1.4l1.3,1.3l1.4-1.4c1.1,1.2,1.9,2.6,2.6,4.1c0.5,1.3,0.9,2.8,1,4.3h-4.1v1.8h4.1
		c-0.2,3.1-1.4,5.9-3.3,8.2c-0.1,0.1-0.1,0.1-0.2,0.2l-1.5-1.5l-1.3,1.3l1.5,1.5c-2.3,2-5.1,3.2-8.3,3.5v-4.1h-1.8v0.5h0v3.6
		c-3.2-0.2-6.1-1.5-8.4-3.5l1.4-1.4l-1.3-1.3L31.9,55c0,0-0.1-0.1-0.1-0.1c-1.9-2.2-3.1-5.1-3.3-8.2h3.6h0.5v-1.8h-0.5h-3.6
		c0.2-3.2,1.5-6.1,3.5-8.3l1.4,1.4l1.3-1.3l-1.4-1.4c2.3-2,5.2-3.2,8.3-3.5v3.6h0v0.5h1.8v-4.1c1.7,0.1,3.3,0.5,4.8,1.2
		C49.5,33.5,50.7,34.2,51.7,35.1z"/>
	<path class="st1" d="M49.5,50.4l-4.1-4.1c0-0.2,0-0.3,0-0.5c0-1-0.5-1.8-1.2-2.4v-5.9h-3.3v5.9c-0.7,0.5-1.2,1.4-1.2,2.4
		c0,1.6,1.3,2.9,2.9,2.9c0.2,0,0.3,0,0.5,0l4.1,4.1L49.5,50.4z"/>
</g>
<g id="Encendido_1_">
</g>
</svg>
