<?xml version="1.0" encoding="utf-8"?>
<!-- Generator: Adobe Illustrator 22.0.1, SVG Export Plug-In . SVG Version: 6.00 Build 0)  -->
<svg version="1.1" xmlns="http://www.w3.org/2000/svg" xmlns:xlink="http://www.w3.org/1999/xlink" x="0px" y="0px"
	 viewBox="0 0 85 85" style="enable-background:new 0 0 85 85;" xml:space="preserve">
<style type="text/css">
	.st0{fill:#013E5E;}
	.st1{fill:#1A588E;}
	.st2{fill:#BB9E37;}
	.st3{fill:#CDD8DF;}
	.st4{fill:#FFFFFF;}
	.st5{display:none;}
	.st6{display:inline;}
	.st7{display:inline;fill:#1A588E;}
	.st8{fill:#E6EBEF;}
	.st9{fill:#C7A404;}
	.st10{fill:#FFFFFF;stroke:#1A588E;stroke-miterlimit:10;}
	.st11{fill:none;}
	.st12{fill:#DB3147;}
	.st13{fill:#3DBD37;}
	.st14{fill:#1A588E;stroke:#1A588E;stroke-miterlimit:10;}
</style>
<g id="Capa_1">
</g>
<g id="Capa_2">
</g>
<g id="_x31_" class="st5">
</g>
<g id="_x32_" class="st5">
</g>
<g id="_x33_" class="st5">
</g>
<g id="_x34_" class="st5">
</g>
<g id="_x35_" class="st5">
</g>
<g id="_x36_" class="st5">
</g>
<g id="_x37_" class="st5">
</g>
<g id="_x38_" class="st5">
</g>
<g id="_x39_" class="st5">
</g>
<g id="_x31_0" class="st5">
</g>
<g id="_x31_1" class="st5">
</g>
<g id="Capa_14" class="st5">
</g>
<g id="Capa_19" class="st5">
</g>
<g id="Capa_15" class="st5">
</g>
<g id="Capa_16" class="st5">
</g>
<g id="Capa_17" class="st5">
</g>
<g id="Capa_18" class="st5">
</g>
<g id="AAAAAA">
</g>
<g id="Apagado">
</g>
<g id="Encendido_1_">
	<g>
		<rect x="36.6" y="17.3" class="st2" width="11.8" height="4.5"/>
	</g>
	<g>
		
			<rect x="37" y="23.1" transform="matrix(-1.836970e-16 1 -1 -1.836970e-16 67.4946 -17.5445)" class="st2" width="11" height="3.7"/>
	</g>
	<g>
		<circle class="st4" cx="42.5" cy="45.6" r="15.6"/>
	</g>
	<g>
		<path class="st2" d="M62.3,36.3c-2.1-4.4-5.6-7.9-9.8-10.1c-3-1.5-6.4-2.4-10-2.4c-12.1,0-22,9.8-22,22c0,5.4,2,10.4,5.2,14.2
			c4,4.8,10,7.8,16.8,7.8c6.7,0,12.7-3,16.8-7.8c3.2-3.8,5.2-8.8,5.2-14.2C64.5,42.4,63.7,39.2,62.3,36.3z M53.3,54.8
			c-2.6,3-6.4,5-10.7,5c-4.3,0-8.2-1.9-10.7-5c-2.1-2.5-3.3-5.6-3.3-9.1c0-7.8,6.3-14.1,14.1-14.1c2,0,3.9,0.4,5.7,1.2
			c3.4,1.5,6,4.2,7.4,7.7c0.6,1.6,1,3.4,1,5.2C56.6,49.2,55.3,52.4,53.3,54.8z"/>
	</g>
	<g>
		<rect x="41.6" y="28.1" class="st2" width="1.8" height="7.2"/>
	</g>
	<g>
		<rect x="41.6" y="56.2" class="st2" width="1.8" height="7.2"/>
	</g>
	<g>
		
			<rect x="27.5" y="42.1" transform="matrix(-1.836970e-16 1 -1 -1.836970e-16 74.2205 17.3124)" class="st2" width="1.8" height="7.2"/>
	</g>
	<g>
		
			<rect x="55.4" y="41.9" transform="matrix(-1.836970e-16 1 -1 -1.836970e-16 102.0954 -10.5624)" class="st2" width="1.8" height="7.8"/>
	</g>
	<g>
		
			<rect x="27.8" y="41.9" transform="matrix(-1.836970e-16 1 -1 -1.836970e-16 74.4769 17.056)" class="st2" width="1.8" height="7.8"/>
	</g>
	<g>
		
			<rect x="41.6" y="28.1" transform="matrix(-1 -1.224647e-16 1.224647e-16 -1 85.0394 63.9144)" class="st2" width="1.8" height="7.8"/>
	</g>
	<g>
		
			<rect x="41.6" y="55.7" transform="matrix(-1 -1.224647e-16 1.224647e-16 -1 85.0394 119.151)" class="st2" width="1.8" height="7.8"/>
	</g>
	<g>
		<g>
			
				<rect x="51.5" y="53.6" transform="matrix(-0.7071 0.7071 -0.7071 -0.7071 128.9164 57.9903)" class="st2" width="1.8" height="4.3"/>
		</g>
		<g>
			
				<rect x="31.6" y="33.6" transform="matrix(-0.7071 0.7071 -0.7071 -0.7071 80.721 38.0271)" class="st2" width="1.8" height="4.3"/>
		</g>
	</g>
	<g>
		<g>
			
				<rect x="31.6" y="53.6" transform="matrix(0.7071 0.7071 -0.7071 0.7071 48.8966 -6.6576)" class="st2" width="1.8" height="4.3"/>
		</g>
		<g>
			
				<rect x="51.5" y="33.6" transform="matrix(0.7071 0.7071 -0.7071 0.7071 40.6276 -26.6208)" class="st2" width="1.8" height="4.3"/>
		</g>
	</g>
	<g>
		<g>
			<rect x="40.9" y="37.6" class="st1" width="3.3" height="8.2"/>
		</g>
		<g>
			
				<rect x="43.8" y="44.6" transform="matrix(-0.7071 0.7071 -0.7071 -0.7071 111.9497 50.9625)" class="st1" width="3.3" height="8.2"/>
		</g>
		<g>
			<circle class="st1" cx="42.5" cy="45.8" r="2.9"/>
		</g>
	</g>
</g>
</svg>
