<?xml version="1.0" encoding="utf-8"?>
<!-- Generator: Adobe Illustrator 22.0.1, SVG Export Plug-In . SVG Version: 6.00 Build 0)  -->
<svg version="1.1" xmlns="http://www.w3.org/2000/svg" xmlns:xlink="http://www.w3.org/1999/xlink" x="0px" y="0px"
	 viewBox="0 0 85 85" style="enable-background:new 0 0 85 85;" xml:space="preserve">
<style type="text/css">
	.st0{fill:#013E5E;}
	.st1{fill:#1A588E;}
	.st2{fill:#BB9E37;}
	.st3{fill:#CDD8DF;}
	.st4{fill:#FFFFFF;}
	.st5{fill:#FFFFFF;stroke:#1A588E;stroke-miterlimit:10;}
	.st6{fill:none;}
	.st7{fill:#DB3147;}
	.st8{fill:#3DBD37;}
	.st9{fill:#1A588E;stroke:#1A588E;stroke-miterlimit:10;}
	.st10{fill:#3DBD37;stroke:#FFFFFF;stroke-width:3;stroke-miterlimit:10;}
	.st11{fill:#C5A303;}
	.st12{fill:#E6EBEF;}
</style>
<g id="Capa_1">
</g>
<g id="Capa_2">
</g>
<g id="AAAAAA">
</g>
<g id="Apagado">
</g>
<g id="Encendido_1_">
</g>
<g id="Grises">
	<g>
		<polygon class="st2" points="63.7,35.2 72,35.2 72,33 42.5,14.3 13.1,33 13.1,35.2 21.4,35.2 		"/>
		<g>
			<polygon class="st2" points="22.7,64.9 14.9,64.9 14.9,68.5 70.2,68.5 70.2,64.9 62.4,64.9 			"/>
		</g>
		<g>
			<polygon class="st2" points="22.2,36.5 14.2,36.5 14.2,39.9 70.9,39.9 70.9,36.5 62.9,36.5 			"/>
		</g>
		<g>
			<path class="st2" d="M16.6,41.2v22.5h4.7V50.6c0-3.6,2.6-6.6,5.7-6.6c3.2,0,5.7,2.9,5.7,6.6v13.1h1.1h2.9V50.6
				c0-3.6,2.6-6.6,5.7-6.6c3.2,0,5.7,2.9,5.7,6.6v13.1h2.9h1.1V50.6c0-3.6,2.6-6.6,5.7-6.6c3.2,0,5.7,2.9,5.7,6.6v13.1h4.7V44.2l0-3
				H16.6z"/>
		</g>
		<g>
			<polygon class="st2" points="21.4,67.1 13.1,67.1 13.1,70.7 72,70.7 72,67.1 63.7,67.1 			"/>
		</g>
	</g>
</g>
</svg>
